<svg xmlns="http://www.w3.org/2000/svg" viewBox="0 0 96 96" role="img" aria-label="Fan icon modernized critical">
  <defs>
    <linearGradient id="outerGrad" x1="0" y1="0" x2="1" y2="1">
      <stop offset="0%" stop-color="#ffe7e7" />
      <stop offset="100%" stop-color="#ffc1c1" />
    </linearGradient>
    <linearGradient id="bladeGrad" x1="0" y1="0" x2="0" y2="1">
      <stop offset="0%" stop-color="#d4dde8" />
      <stop offset="100%" stop-color="#aeb9c9" />
    </linearGradient>
    <clipPath id="fanDisc">
      <circle cx="48" cy="48" r="35" />
    </clipPath>
  </defs>

  <circle cx="48" cy="48" r="45" fill="url(#outerGrad)" stroke="#a33535" stroke-width="2" />
  <circle cx="48" cy="48" r="37" fill="#ffefef" stroke="#cc4d4d" stroke-width="1.2" />

  <g clip-path="url(#fanDisc)" fill="url(#bladeGrad)" stroke="#7d8ca0" stroke-width="1">
    <ellipse cx="48" cy="28" rx="7.5" ry="22" />
    <ellipse cx="48" cy="28" rx="7.5" ry="22" transform="rotate(60 48 48)" />
    <ellipse cx="48" cy="28" rx="7.5" ry="22" transform="rotate(120 48 48)" />
    <ellipse cx="48" cy="28" rx="7.5" ry="22" transform="rotate(180 48 48)" />
    <ellipse cx="48" cy="28" rx="7.5" ry="22" transform="rotate(240 48 48)" />
    <ellipse cx="48" cy="28" rx="7.5" ry="22" transform="rotate(300 48 48)" />
  </g>

  <circle cx="48" cy="48" r="10" fill="#cdd6e2" stroke="#74859a" stroke-width="1.2" />
  <circle cx="48" cy="48" r="3" fill="#8fa1b6" />
</svg>
