<?xml version='1.0' encoding='utf-8'?>
<svg xmlns="http://www.w3.org/2000/svg" viewBox="467.000 0.000 476.000 592.000" width="476.000" height="592.000">
  <g transform="translate(-46.000,-121.000)"><polygon points="515.0,523.0 610.0,523.0 610.0,535.0 515.0,535.0 515.0,523.0" fill="rgba(127,127,127,1.000)" stroke="rgba(0,0,0,1.000)" stroke-width="0.0" data-name="Polygon1" data-id="20"/>
    <polygon points="515.0,523.0 610.0,523.0 610.0,535.0 515.0,535.0 515.0,523.0" fill="rgba(153,153,153,1.000)" stroke="rgba(0,0,0,1.000)" stroke-width="0.0" data-name="Polygon2" data-id="21"/>
    <polygon points="515.0,524.0 610.0,524.0 610.0,533.0 515.0,533.0 515.0,524.0" fill="rgba(178,178,178,1.000)" stroke="rgba(0,0,0,1.000)" stroke-width="0.0" data-name="Polygon3" data-id="22"/>
    <polygon points="515.0,525.0 610.0,525.0 610.0,533.0 515.0,533.0 515.0,525.0" fill="rgba(204,204,204,1.000)" stroke="rgba(0,0,0,1.000)" stroke-width="0.0" data-name="Polygon4" data-id="23"/>
    <polygon points="515.0,527.0 610.0,527.0 610.0,531.0 515.0,531.0 515.0,527.0" fill="rgba(229,229,229,1.000)" stroke="rgba(0,0,0,1.000)" stroke-width="0.0" data-name="Polygon5" data-id="24"/>
    <polygon points="515.0,528.0 610.0,528.0 610.0,529.0 515.0,529.0 515.0,528.0" fill="rgba(255,255,255,1.000)" stroke="rgba(0,0,0,1.000)" stroke-width="0.0" data-name="Polygon6" data-id="25"/>
    <polyline points="515.0,535.0 610.0,535.0" fill="none" stroke="rgba(0,0,0,1.000)" stroke-width="1.0" data-name="PolyLine1" data-id="26"/>
    <polyline points="610.0,523.0 515.0,523.0" fill="none" stroke="rgba(0,0,0,1.000)" stroke-width="1.0" data-name="PolyLine2" data-id="27"/>
    <polygon points="809.0,487.0 809.0,548.0 804.0,548.0 804.0,487.0 809.0,487.0" fill="rgba(127,127,127,1.000)" stroke="rgba(0,0,0,1.000)" stroke-width="0.0" data-name="Polygon48" data-id="87"/>
    <polygon points="809.0,487.0 809.0,548.0 804.0,548.0 804.0,487.0 809.0,487.0" fill="rgba(153,153,153,1.000)" stroke="rgba(0,0,0,1.000)" stroke-width="0.0" data-name="Polygon49" data-id="88"/>
    <polygon points="808.0,487.0 808.0,548.0 805.0,548.0 805.0,487.0 808.0,487.0" fill="rgba(178,178,178,1.000)" stroke="rgba(0,0,0,1.000)" stroke-width="0.0" data-name="Polygon50" data-id="89"/>
    <polygon points="808.0,487.0 808.0,548.0 805.0,548.0 805.0,487.0 808.0,487.0" fill="rgba(204,204,204,1.000)" stroke="rgba(0,0,0,1.000)" stroke-width="0.0" data-name="Polygon51" data-id="90"/>
    <polygon points="808.0,487.0 808.0,548.0 805.0,548.0 805.0,487.0 808.0,487.0" fill="rgba(229,229,229,1.000)" stroke="rgba(0,0,0,1.000)" stroke-width="0.0" data-name="Polygon52" data-id="91"/>
    <polyline points="806.0,487.0 806.0,548.0 806.0,487.0 806.0,487.0" fill="none" stroke="rgba(0,0,0,1.000)" stroke-width="1.0" data-name="PolyLine18" data-id="93"/>
    <polyline points="804.0,487.0 804.0,548.0" fill="none" stroke="rgba(0,0,0,1.000)" stroke-width="1.0" data-name="PolyLine19" data-id="94"/>
    <polyline points="809.0,548.0 809.0,487.0" fill="none" stroke="rgba(0,0,0,1.000)" stroke-width="1.0" data-name="PolyLine20" data-id="95"/>
    <polygon points="614.0,403.0 614.0,711.0 603.0,711.0 603.0,403.0 614.0,403.0" fill="rgba(127,127,127,1.000)" stroke="rgba(0,0,0,1.000)" stroke-width="0.0" data-name="Polygon142" data-id="231"/>
    <polygon points="614.0,403.0 614.0,711.0 603.0,711.0 603.0,403.0 614.0,403.0" fill="rgba(153,153,153,1.000)" stroke="rgba(0,0,0,1.000)" stroke-width="0.0" data-name="Polygon143" data-id="232"/>
    <polygon points="613.0,403.0 613.0,711.0 604.0,711.0 604.0,403.0 613.0,403.0" fill="rgba(178,178,178,1.000)" stroke="rgba(0,0,0,1.000)" stroke-width="0.0" data-name="Polygon144" data-id="233"/>
    <polygon points="611.0,403.0 611.0,711.0 605.0,711.0 605.0,403.0 611.0,403.0" fill="rgba(204,204,204,1.000)" stroke="rgba(0,0,0,1.000)" stroke-width="0.0" data-name="Polygon145" data-id="234"/>
    <polygon points="610.0,403.0 610.0,711.0 606.0,711.0 606.0,403.0 610.0,403.0" fill="rgba(229,229,229,1.000)" stroke="rgba(0,0,0,1.000)" stroke-width="0.0" data-name="Polygon146" data-id="235"/>
    <polygon points="609.0,403.0 609.0,711.0 608.0,711.0 608.0,403.0 609.0,403.0" fill="rgba(255,255,255,1.000)" stroke="rgba(0,0,0,1.000)" stroke-width="0.0" data-name="Polygon147" data-id="236"/>
    <polyline points="603.0,403.0 603.0,711.0" fill="none" stroke="rgba(0,0,0,1.000)" stroke-width="1.0" data-name="PolyLine56" data-id="237"/>
    <polyline points="614.0,711.0 614.0,403.0" fill="none" stroke="rgba(0,0,0,1.000)" stroke-width="1.0" data-name="PolyLine57" data-id="238"/>
    <polygon points="603.0,404.0 603.0,415.0 614.0,415.0 614.0,404.0 614.0,403.0 614.0,401.0 616.0,401.0 624.0,401.0 624.0,388.0 616.0,388.0 614.0,388.0 613.0,388.0 612.0,389.0 611.0,389.0 609.0,389.0 608.0,391.0 608.0,392.0 607.0,393.0 606.0,393.0 606.0,396.0 604.0,396.0 604.0,397.0 603.0,399.0 603.0,400.0 603.0,401.0 603.0,404.0" fill="rgba(127,127,127,1.000)" stroke="rgba(255,255,255,1.000)" stroke-width="0.0" data-name="Polygon356" data-id="536"/>
    <polygon points="615.0,389.0 614.0,389.0 613.0,389.0 612.0,389.0 610.0,390.0 609.0,390.0 609.0,392.0 608.0,392.0 607.0,393.0 607.0,394.0 605.0,397.0 604.0,397.0 604.0,398.0 604.0,400.0 604.0,402.0 604.0,404.0 604.0,414.0 613.0,414.0 613.0,404.0 613.0,402.0 613.0,401.0 614.0,401.0 615.0,400.0 624.0,400.0 624.0,389.0 615.0,389.0" fill="rgba(153,153,153,1.000)" stroke="rgba(255,255,255,1.000)" stroke-width="0.0" data-name="Polygon357" data-id="537"/>
    <polygon points="615.0,392.0 624.0,392.0 624.0,400.0 615.0,400.0 614.0,400.0 614.0,401.0 613.0,401.0 613.0,403.0 612.0,403.0 612.0,404.0 612.0,405.0 612.0,416.0 604.0,416.0 604.0,405.0 604.0,404.0 605.0,403.0 605.0,401.0 605.0,400.0 605.0,400.0 607.0,397.0 607.0,396.0 608.0,396.0 609.0,395.0 609.0,393.0 610.0,393.0 612.0,393.0 612.0,392.0 613.0,392.0 614.0,392.0 615.0,392.0" fill="rgba(178,178,178,1.000)" stroke="rgba(255,255,255,1.000)" stroke-width="0.0" data-name="Polygon358" data-id="538"/>
    <polygon points="615.0,392.0 614.0,392.0 613.0,392.0 611.0,393.0 610.0,393.0 609.0,395.0 608.0,396.0 608.0,397.0 606.0,397.0 606.0,400.0 606.0,400.0 605.0,401.0 605.0,403.0 605.0,404.0 605.0,415.0 610.0,415.0 610.0,404.0 610.0,403.0 611.0,401.0 611.0,400.0 613.0,400.0 614.0,400.0 614.0,397.0 615.0,397.0 624.0,397.0 624.0,392.0 615.0,392.0" fill="rgba(204,204,204,1.000)" stroke="rgba(255,255,255,1.000)" stroke-width="0.0" data-name="Polygon359" data-id="539"/>
    <polygon points="615.0,393.0 624.0,393.0 624.0,397.0 615.0,397.0 614.0,397.0 612.0,397.0 611.0,397.0 611.0,398.0 610.0,401.0 610.0,401.0 610.0,402.0 610.0,404.0 610.0,416.0 606.0,416.0 606.0,404.0 606.0,402.0 606.0,401.0 606.0,401.0 607.0,401.0 607.0,398.0 607.0,397.0 609.0,397.0 609.0,396.0 610.0,394.0 611.0,394.0 611.0,393.0 612.0,393.0 614.0,393.0 615.0,393.0" fill="rgba(229,229,229,1.000)" stroke="rgba(255,255,255,1.000)" stroke-width="0.0" data-name="Polygon360" data-id="540"/>
    <polygon points="616.0,393.0 614.0,393.0 614.0,394.0 613.0,394.0 612.0,394.0 611.0,396.0 611.0,397.0 609.0,397.0 609.0,398.0 608.0,398.0 608.0,401.0 608.0,401.0 608.0,402.0 608.0,404.0 608.0,416.0 609.0,416.0 609.0,404.0 609.0,401.0 609.0,401.0 611.0,398.0 611.0,397.0 612.0,397.0 613.0,396.0 614.0,396.0 616.0,396.0 624.0,396.0 624.0,393.0 616.0,393.0" fill="rgba(255,255,255,1.000)" stroke="rgba(255,255,255,1.000)" stroke-width="0.0" data-name="Polygon361" data-id="541"/>
    <polyline points="624.0,388.0 616.0,388.0 614.0,388.0 613.0,388.0 612.0,389.0 611.0,389.0 609.0,389.0 608.0,391.0 608.0,392.0 607.0,393.0 606.0,393.0 606.0,396.0 604.0,396.0 604.0,397.0 603.0,399.0 603.0,400.0 603.0,401.0 603.0,404.0 603.0,415.0" fill="none" stroke="rgba(0,0,0,1.000)" stroke-width="1.0" data-name="PolyLine136" data-id="542"/>
    <polyline points="614.0,414.0 614.0,404.0 614.0,402.0 614.0,401.0 615.0,401.0 624.0,401.0" fill="none" stroke="rgba(0,0,0,1.000)" stroke-width="1.0" data-name="PolyLine137" data-id="543"/>
    <polygon points="616.0,388.0 957.0,388.0 957.0,401.0 616.0,401.0 616.0,388.0" fill="rgba(127,127,127,1.000)" stroke="rgba(0,0,0,1.000)" stroke-width="0.0" data-name="Polygon362" data-id="544"/>
    <polygon points="616.0,388.0 957.0,388.0 957.0,401.0 616.0,401.0 616.0,388.0" fill="rgba(153,153,153,1.000)" stroke="rgba(0,0,0,1.000)" stroke-width="0.0" data-name="Polygon363" data-id="545"/>
    <polygon points="616.0,392.0 957.0,392.0 957.0,401.0 616.0,401.0 616.0,392.0" fill="rgba(178,178,178,1.000)" stroke="rgba(0,0,0,1.000)" stroke-width="0.0" data-name="Polygon364" data-id="546"/>
    <polygon points="616.0,392.0 957.0,392.0 957.0,397.0 616.0,397.0 616.0,392.0" fill="rgba(204,204,204,1.000)" stroke="rgba(0,0,0,1.000)" stroke-width="0.0" data-name="Polygon365" data-id="547"/>
    <polygon points="616.0,392.0 957.0,392.0 957.0,397.0 616.0,397.0 616.0,392.0" fill="rgba(229,229,229,1.000)" stroke="rgba(0,0,0,1.000)" stroke-width="0.0" data-name="Polygon366" data-id="548"/>
    <polygon points="616.0,393.0 957.0,393.0 957.0,396.0 616.0,396.0 616.0,393.0" fill="rgba(255,255,255,1.000)" stroke="rgba(0,0,0,1.000)" stroke-width="0.0" data-name="Polygon367" data-id="549"/>
    <polyline points="616.0,401.0 957.0,401.0" fill="none" stroke="rgba(0,0,0,1.000)" stroke-width="1.0" data-name="PolyLine138" data-id="550"/>
    <polyline points="957.0,388.0 616.0,388.0" fill="none" stroke="rgba(0,0,0,1.000)" stroke-width="1.0" data-name="PolyLine139" data-id="551"/>
    <polygon points="976.0,386.0 976.0,375.0 965.0,375.0 965.0,386.0 965.0,387.0 965.0,388.0 964.0,388.0 955.0,388.0 955.0,402.0 964.0,402.0 965.0,402.0 966.0,402.0 968.0,400.0 969.0,400.0 970.0,400.0 971.0,399.0 971.0,398.0 973.0,398.0 974.0,398.0 974.0,395.0 975.0,394.0 975.0,392.0 976.0,391.0 976.0,390.0 976.0,388.0 976.0,386.0" fill="rgba(127,127,127,1.000)" stroke="rgba(255,255,255,1.000)" stroke-width="0.0" data-name="Polygon368" data-id="552"/>
    <polygon points="964.0,400.0 965.0,400.0 966.0,400.0 968.0,400.0 969.0,399.0 970.0,399.0 970.0,398.0 971.0,398.0 973.0,398.0 973.0,395.0 974.0,394.0 975.0,392.0 975.0,391.0 975.0,390.0 975.0,387.0 975.0,386.0 975.0,375.0 966.0,375.0 966.0,386.0 966.0,387.0 966.0,388.0 965.0,388.0 964.0,390.0 955.0,390.0 955.0,400.0 964.0,400.0" fill="rgba(153,153,153,1.000)" stroke="rgba(255,255,255,1.000)" stroke-width="0.0" data-name="Polygon369" data-id="553"/>
    <polygon points="964.0,399.0 955.0,399.0 955.0,391.0 964.0,391.0 965.0,391.0 965.0,390.0 966.0,390.0 966.0,388.0 968.0,388.0 968.0,387.0 968.0,386.0 968.0,375.0 975.0,375.0 975.0,386.0 975.0,387.0 974.0,388.0 974.0,390.0 974.0,391.0 974.0,392.0 973.0,394.0 973.0,395.0 971.0,395.0 970.0,398.0 970.0,398.0 969.0,398.0 968.0,398.0 968.0,399.0 966.0,399.0 965.0,399.0 964.0,399.0" fill="rgba(178,178,178,1.000)" stroke="rgba(255,255,255,1.000)" stroke-width="0.0" data-name="Polygon370" data-id="554"/>
    <polygon points="964.0,398.0 965.0,398.0 966.0,398.0 968.0,398.0 969.0,398.0 970.0,395.0 971.0,394.0 971.0,392.0 973.0,392.0 973.0,391.0 973.0,390.0 974.0,388.0 974.0,387.0 974.0,386.0 974.0,375.0 969.0,375.0 969.0,386.0 969.0,387.0 968.0,388.0 968.0,390.0 966.0,391.0 965.0,391.0 965.0,392.0 964.0,392.0 955.0,392.0 955.0,398.0 964.0,398.0" fill="rgba(204,204,204,1.000)" stroke="rgba(255,255,255,1.000)" stroke-width="0.0" data-name="Polygon371" data-id="555"/>
    <polygon points="964.0,398.0 955.0,398.0 955.0,392.0 964.0,392.0 965.0,392.0 966.0,392.0 968.0,392.0 968.0,391.0 969.0,390.0 969.0,388.0 969.0,387.0 969.0,386.0 969.0,375.0 973.0,375.0 973.0,386.0 973.0,387.0 973.0,388.0 973.0,390.0 971.0,390.0 971.0,391.0 971.0,392.0 970.0,392.0 970.0,394.0 969.0,395.0 968.0,395.0 968.0,398.0 966.0,398.0 965.0,398.0 964.0,398.0" fill="rgba(229,229,229,1.000)" stroke="rgba(255,255,255,1.000)" stroke-width="0.0" data-name="Polygon372" data-id="556"/>
    <polygon points="964.0,398.0 965.0,398.0 965.0,395.0 966.0,395.0 968.0,395.0 969.0,394.0 969.0,392.0 970.0,392.0 970.0,391.0 971.0,391.0 971.0,390.0 971.0,388.0 971.0,387.0 971.0,386.0 971.0,375.0 970.0,375.0 970.0,386.0 970.0,388.0 970.0,390.0 969.0,391.0 969.0,392.0 968.0,392.0 966.0,394.0 965.0,394.0 964.0,394.0 955.0,394.0 955.0,398.0 964.0,398.0" fill="rgba(255,255,255,1.000)" stroke="rgba(255,255,255,1.000)" stroke-width="0.0" data-name="Polygon373" data-id="557"/>
    <polyline points="955.0,402.0 964.0,402.0 965.0,402.0 966.0,402.0 968.0,400.0 969.0,400.0 970.0,400.0 971.0,399.0 971.0,398.0 973.0,398.0 974.0,398.0 974.0,395.0 975.0,394.0 975.0,392.0 976.0,391.0 976.0,390.0 976.0,388.0 976.0,386.0 976.0,375.0" fill="none" stroke="rgba(0,0,0,1.000)" stroke-width="1.0" data-name="PolyLine140" data-id="558"/>
    <polyline points="965.0,375.0 965.0,386.0 965.0,387.0 965.0,388.0 964.0,388.0 955.0,388.0" fill="none" stroke="rgba(0,0,0,1.000)" stroke-width="1.0" data-name="PolyLine141" data-id="559"/>
    <polygon points="965.0,139.0 965.0,150.0 976.0,150.0 976.0,139.0 976.0,138.0 976.0,136.0 978.0,136.0 986.0,136.0 986.0,123.0 978.0,123.0 976.0,123.0 975.0,123.0 974.0,124.0 973.0,124.0 971.0,124.0 970.0,126.0 970.0,127.0 969.0,128.0 968.0,128.0 968.0,131.0 966.0,131.0 966.0,132.0 965.0,134.0 965.0,135.0 965.0,136.0 965.0,139.0" fill="rgba(127,127,127,1.000)" stroke="rgba(255,255,255,1.000)" stroke-width="0.0" data-name="Polygon374" data-id="560"/>
    <polygon points="977.0,124.0 976.0,124.0 975.0,124.0 974.0,124.0 972.0,125.0 971.0,125.0 971.0,127.0 970.0,127.0 969.0,128.0 969.0,129.0 967.0,132.0 966.0,132.0 966.0,133.0 966.0,135.0 966.0,137.0 966.0,139.0 966.0,149.0 975.0,149.0 975.0,139.0 975.0,137.0 975.0,136.0 976.0,136.0 977.0,135.0 986.0,135.0 986.0,124.0 977.0,124.0" fill="rgba(153,153,153,1.000)" stroke="rgba(255,255,255,1.000)" stroke-width="0.0" data-name="Polygon375" data-id="561"/>
    <polygon points="977.0,125.0 986.0,125.0 986.0,133.0 977.0,133.0 976.0,133.0 976.0,134.0 975.0,134.0 975.0,136.0 974.0,136.0 974.0,137.0 974.0,138.0 974.0,149.0 966.0,149.0 966.0,138.0 966.0,137.0 967.0,136.0 967.0,134.0 967.0,133.0 967.0,133.0 969.0,130.0 969.0,129.0 970.0,129.0 971.0,128.0 971.0,126.0 972.0,126.0 974.0,126.0 974.0,125.0 975.0,125.0 976.0,125.0 977.0,125.0" fill="rgba(178,178,178,1.000)" stroke="rgba(255,255,255,1.000)" stroke-width="0.0" data-name="Polygon376" data-id="562"/>
    <polygon points="978.0,127.0 977.0,127.0 976.0,127.0 974.0,128.0 973.0,128.0 972.0,130.0 971.0,131.0 971.0,132.0 969.0,132.0 969.0,135.0 969.0,135.0 968.0,136.0 968.0,138.0 968.0,139.0 968.0,150.0 973.0,150.0 973.0,139.0 973.0,138.0 974.0,136.0 974.0,135.0 976.0,135.0 977.0,135.0 977.0,132.0 978.0,132.0 987.0,132.0 987.0,127.0 978.0,127.0" fill="rgba(204,204,204,1.000)" stroke="rgba(255,255,255,1.000)" stroke-width="0.0" data-name="Polygon377" data-id="563"/>
    <polygon points="978.0,128.0 987.0,128.0 987.0,132.0 978.0,132.0 977.0,132.0 975.0,132.0 974.0,132.0 974.0,133.0 973.0,136.0 973.0,136.0 973.0,137.0 973.0,139.0 973.0,151.0 969.0,151.0 969.0,139.0 969.0,137.0 969.0,136.0 969.0,136.0 970.0,136.0 970.0,133.0 970.0,132.0 972.0,132.0 972.0,131.0 973.0,129.0 974.0,129.0 974.0,128.0 975.0,128.0 977.0,128.0 978.0,128.0" fill="rgba(229,229,229,1.000)" stroke="rgba(255,255,255,1.000)" stroke-width="0.0" data-name="Polygon378" data-id="564"/>
    <polygon points="978.0,128.0 976.0,128.0 976.0,129.0 975.0,129.0 974.0,129.0 973.0,131.0 973.0,132.0 971.0,132.0 971.0,133.0 970.0,133.0 970.0,136.0 970.0,136.0 970.0,137.0 970.0,139.0 970.0,151.0 971.0,151.0 971.0,139.0 971.0,136.0 971.0,136.0 973.0,133.0 973.0,132.0 974.0,132.0 975.0,131.0 976.0,131.0 978.0,131.0 986.0,131.0 986.0,128.0 978.0,128.0" fill="rgba(255,255,255,1.000)" stroke="rgba(255,255,255,1.000)" stroke-width="0.0" data-name="Polygon379" data-id="565"/>
    <polyline points="986.0,123.0 978.0,123.0 976.0,123.0 975.0,123.0 974.0,124.0 973.0,124.0 971.0,124.0 970.0,126.0 970.0,127.0 969.0,128.0 968.0,128.0 968.0,131.0 966.0,131.0 966.0,132.0 965.0,134.0 965.0,135.0 965.0,136.0 965.0,139.0 965.0,150.0" fill="none" stroke="rgba(0,0,0,1.000)" stroke-width="1.0" data-name="PolyLine142" data-id="566"/>
    <polyline points="976.0,149.0 976.0,139.0 976.0,137.0 976.0,136.0 977.0,136.0 986.0,136.0" fill="none" stroke="rgba(0,0,0,1.000)" stroke-width="1.0" data-name="PolyLine143" data-id="567"/>
    <polygon points="976.0,147.0 976.0,386.0 965.0,386.0 965.0,147.0 976.0,147.0" fill="rgba(127,127,127,1.000)" stroke="rgba(0,0,0,1.000)" stroke-width="0.0" data-name="Polygon380" data-id="568"/>
    <polygon points="976.0,147.0 976.0,386.0 965.0,386.0 965.0,147.0 976.0,147.0" fill="rgba(153,153,153,1.000)" stroke="rgba(0,0,0,1.000)" stroke-width="0.0" data-name="Polygon381" data-id="569"/>
    <polygon points="975.0,147.0 975.0,386.0 966.0,386.0 966.0,147.0 975.0,147.0" fill="rgba(178,178,178,1.000)" stroke="rgba(0,0,0,1.000)" stroke-width="0.0" data-name="Polygon382" data-id="570"/>
    <polygon points="974.0,147.0 974.0,386.0 968.0,386.0 968.0,147.0 974.0,147.0" fill="rgba(204,204,204,1.000)" stroke="rgba(0,0,0,1.000)" stroke-width="0.0" data-name="Polygon383" data-id="571"/>
    <polygon points="973.0,147.0 973.0,386.0 969.0,386.0 969.0,147.0 973.0,147.0" fill="rgba(229,229,229,1.000)" stroke="rgba(0,0,0,1.000)" stroke-width="0.0" data-name="Polygon384" data-id="572"/>
    <polygon points="971.0,147.0 971.0,386.0 970.0,386.0 970.0,147.0 971.0,147.0" fill="rgba(255,255,255,1.000)" stroke="rgba(0,0,0,1.000)" stroke-width="0.0" data-name="Polygon385" data-id="573"/>
    <polyline points="965.0,147.0 965.0,386.0" fill="none" stroke="rgba(0,0,0,1.000)" stroke-width="1.0" data-name="PolyLine144" data-id="574"/>
    <polyline points="976.0,386.0 976.0,147.0" fill="none" stroke="rgba(0,0,0,1.000)" stroke-width="1.0" data-name="PolyLine145" data-id="575"/>
    <polygon points="615.0,484.0 803.0,484.0 803.0,489.0 615.0,489.0 615.0,484.0" fill="rgba(127,127,127,1.000)" stroke="rgba(0,0,0,1.000)" stroke-width="0.0" data-name="Polygon386" data-id="576"/>
    <polygon points="615.0,484.0 803.0,484.0 803.0,489.0 615.0,489.0 615.0,484.0" fill="rgba(153,153,153,1.000)" stroke="rgba(0,0,0,1.000)" stroke-width="0.0" data-name="Polygon387" data-id="577"/>
    <polygon points="615.0,485.0 803.0,485.0 803.0,488.0 615.0,488.0 615.0,485.0" fill="rgba(178,178,178,1.000)" stroke="rgba(0,0,0,1.000)" stroke-width="0.0" data-name="Polygon388" data-id="578"/>
    <polygon points="615.0,485.0 803.0,485.0 803.0,488.0 615.0,488.0 615.0,485.0" fill="rgba(204,204,204,1.000)" stroke="rgba(0,0,0,1.000)" stroke-width="0.0" data-name="Polygon389" data-id="579"/>
    <polygon points="615.0,485.0 803.0,485.0 803.0,488.0 615.0,488.0 615.0,485.0" fill="rgba(229,229,229,1.000)" stroke="rgba(0,0,0,1.000)" stroke-width="0.0" data-name="Polygon390" data-id="580"/>
    <polyline points="615.0,487.0 803.0,487.0 615.0,487.0 615.0,487.0" fill="none" stroke="rgba(0,0,0,1.000)" stroke-width="1.0" data-name="PolyLine146" data-id="582"/>
    <polyline points="615.0,489.0 803.0,489.0" fill="none" stroke="rgba(0,0,0,1.000)" stroke-width="1.0" data-name="PolyLine147" data-id="583"/>
    <polyline points="803.0,484.0 615.0,484.0" fill="none" stroke="rgba(0,0,0,1.000)" stroke-width="1.0" data-name="PolyLine148" data-id="584"/>
    </g>
</svg>
