<?xml version='1.0' encoding='utf-8'?>
<svg xmlns="http://www.w3.org/2000/svg" viewBox="247.000 384.000 37.000 34.000" width="37.000" height="34.000">
  <g transform="translate(-46.000,-121.000)"><polygon points="313.0,514.0 313.0,529.0 309.0,529.0 309.0,514.0 313.0,514.0" fill="rgba(127,127,127,1.000)" stroke="rgba(255,255,255,1.000)" stroke-width="0.0" data-name="Polygon487" data-id="749"/>
    <polygon points="313.0,514.0 313.0,529.0 310.0,529.0 310.0,514.0 313.0,514.0" fill="rgba(178,178,178,1.000)" stroke="rgba(255,255,255,1.000)" stroke-width="0.0" data-name="Polygon488" data-id="750"/>
    <polygon points="312.0,514.0 312.0,529.0 310.0,529.0 310.0,514.0 312.0,514.0" fill="rgba(229,229,229,1.000)" stroke="rgba(255,255,255,1.000)" stroke-width="0.0" data-name="Polygon489" data-id="751"/>
    <polygon points="312.0,514.0 312.0,529.0 311.0,529.0 311.0,514.0 312.0,514.0" fill="rgba(255,255,255,1.000)" stroke="rgba(255,255,255,1.000)" stroke-width="0.0" data-name="Polygon490" data-id="752"/>
    <polyline points="309.0,514.0 309.0,529.0" fill="none" stroke="rgba(0,0,0,1.000)" stroke-width="1.0" data-name="PolyLine190" data-id="753"/>
    <polyline points="313.0,529.0 313.0,514.0" fill="none" stroke="rgba(0,0,0,1.000)" stroke-width="1.0" data-name="PolyLine191" data-id="754"/>
    <polygon points="317.0,507.0 326.0,507.0 326.0,510.0 317.0,510.0 317.0,507.0" fill="rgba(127,127,127,1.000)" stroke="rgba(255,255,255,1.000)" stroke-width="0.0" data-name="Polygon491" data-id="755"/>
    <polygon points="317.0,507.0 326.0,507.0 326.0,510.0 317.0,510.0 317.0,507.0" fill="rgba(178,178,178,1.000)" stroke="rgba(255,255,255,1.000)" stroke-width="0.0" data-name="Polygon492" data-id="756"/>
    <polygon points="317.0,507.0 326.0,507.0 326.0,509.0 317.0,509.0 317.0,507.0" fill="rgba(229,229,229,1.000)" stroke="rgba(255,255,255,1.000)" stroke-width="0.0" data-name="Polygon493" data-id="757"/>
    <polygon points="317.0,508.0 326.0,508.0 326.0,509.0 317.0,509.0 317.0,508.0" fill="rgba(255,255,255,1.000)" stroke="rgba(255,255,255,1.000)" stroke-width="0.0" data-name="Polygon494" data-id="758"/>
    <polyline points="317.0,510.0 326.0,510.0" fill="none" stroke="rgba(0,0,0,1.000)" stroke-width="1.0" data-name="PolyLine192" data-id="759"/>
    <polyline points="326.0,507.0 317.0,507.0" fill="none" stroke="rgba(0,0,0,1.000)" stroke-width="1.0" data-name="PolyLine193" data-id="760"/>
    <polygon points="317.0,510.0 317.0,507.0 309.0,507.0 313.0,510.0 317.0,510.0" fill="rgba(127,127,127,1.000)" stroke="rgba(255,255,255,1.000)" stroke-width="0.0" data-name="Polygon495" data-id="761"/>
    <polygon points="313.0,514.0 309.0,514.0 309.0,507.0 313.0,510.0 313.0,514.0" fill="rgba(127,127,127,1.000)" stroke="rgba(255,255,255,1.000)" stroke-width="0.0" data-name="Polygon496" data-id="762"/>
    <polygon points="310.0,514.0 313.0,514.0 313.0,510.0 310.0,507.0 310.0,514.0" fill="rgba(178,178,178,1.000)" stroke="rgba(255,255,255,1.000)" stroke-width="0.0" data-name="Polygon497" data-id="763"/>
    <polygon points="317.0,507.0 317.0,510.0 313.0,510.0 310.0,507.0 317.0,507.0" fill="rgba(178,178,178,1.000)" stroke="rgba(255,255,255,1.000)" stroke-width="0.0" data-name="Polygon498" data-id="764"/>
    <polygon points="310.0,514.0 312.0,514.0 312.0,509.0 310.0,507.0 310.0,514.0" fill="rgba(229,229,229,1.000)" stroke="rgba(255,255,255,1.000)" stroke-width="0.0" data-name="Polygon499" data-id="765"/>
    <polygon points="317.0,507.0 317.0,510.0 312.0,510.0 310.0,507.0 317.0,507.0" fill="rgba(229,229,229,1.000)" stroke="rgba(255,255,255,1.000)" stroke-width="0.0" data-name="Polygon500" data-id="766"/>
    <polygon points="317.0,508.0 317.0,509.0 312.0,509.0 311.0,508.0 317.0,508.0" fill="rgba(255,255,255,1.000)" stroke="rgba(255,255,255,1.000)" stroke-width="0.0" data-name="Polygon501" data-id="767"/>
    <polygon points="311.0,514.0 312.0,514.0 312.0,509.0 311.0,508.0 311.0,514.0" fill="rgba(255,255,255,1.000)" stroke="rgba(255,255,255,1.000)" stroke-width="0.0" data-name="Polygon502" data-id="768"/>
    <polyline points="309.0,514.0 309.0,507.0" fill="none" stroke="rgba(0,0,0,1.000)" stroke-width="1.0" data-name="PolyLine194" data-id="769"/>
    <polyline points="313.0,510.0 313.0,514.0" fill="none" stroke="rgba(0,0,0,1.000)" stroke-width="1.0" data-name="PolyLine195" data-id="770"/>
    <polyline points="317.0,507.0 309.0,507.0" fill="none" stroke="rgba(0,0,0,1.000)" stroke-width="1.0" data-name="PolyLine196" data-id="771"/>
    <polyline points="313.0,510.0 317.0,510.0" fill="none" stroke="rgba(0,0,0,1.000)" stroke-width="1.0" data-name="PolyLine197" data-id="772"/>
    <polygon points="295.0,537.0 295.0,521.0 328.0,537.0 328.0,521.0 295.0,537.0" fill="rgba(127,127,127,1.000)" stroke="rgba(255,255,255,1.000)" stroke-width="0.0" data-name="Polygon503" data-id="773"/>
    <polygon points="295.0,536.0 295.0,522.0 328.0,536.0 328.0,522.0 295.0,536.0" fill="rgba(153,153,153,1.000)" stroke="rgba(255,255,255,1.000)" stroke-width="0.0" data-name="Polygon504" data-id="774"/>
    <polygon points="295.0,534.0 295.0,523.0 328.0,534.0 328.0,523.0 295.0,534.0" fill="rgba(178,178,178,1.000)" stroke="rgba(255,255,255,1.000)" stroke-width="0.0" data-name="Polygon505" data-id="775"/>
    <polygon points="295.0,533.0 295.0,525.0 328.0,533.0 328.0,525.0 295.0,533.0" fill="rgba(204,204,204,1.000)" stroke="rgba(255,255,255,1.000)" stroke-width="0.0" data-name="Polygon506" data-id="776"/>
    <polygon points="295.0,532.0 295.0,526.0 328.0,532.0 328.0,526.0 295.0,532.0" fill="rgba(229,229,229,1.000)" stroke="rgba(255,255,255,1.000)" stroke-width="0.0" data-name="Polygon507" data-id="777"/>
    <polygon points="295.0,530.0 295.0,528.0 328.0,530.0 328.0,528.0 295.0,530.0" fill="rgba(255,255,255,1.000)" stroke="rgba(255,255,255,1.000)" stroke-width="0.0" data-name="Polygon508" data-id="778"/>
    <polyline points="295.0,537.0 295.0,521.0 328.0,537.0 328.0,521.0 295.0,537.0" fill="none" stroke="rgba(0,0,0,1.000)" stroke-width="1.0" data-name="PolyLine198" data-id="779"/>
  </g>
</svg>
