<?xml version='1.0' encoding='utf-8'?>
<svg xmlns="http://www.w3.org/2000/svg" viewBox="0 0 37.000 68.000" width="37.000" height="68.000">
  <g transform="translate(-1088.000,-669.000)">
    <rect x="1090" y="671" width="33" height="64" fill="rgba(255,191,191,1.000)" stroke="rgba(0,0,0,1.000)" stroke-width="0.0" data-name="Rectangle11" data-id="1011"/>
    <polygon points="1102.0,689.0 1098.0,687.0 1098.0,678.0 1102.0,677.0 1116.0,677.0 1116.0,678.0 1116.0,688.0 1103.0,688.0 1102.0,689.0" fill="rgba(153,255,255,1.000)" stroke="rgba(0,0,0,1.000)" stroke-width="1.0" data-name="Polygon554" data-id="1012"/>
    <polygon points="1109.0,727.0 1109.0,711.0 1110.0,710.0 1110.0,708.0 1113.0,708.0 1113.0,710.0 1114.0,711.0 1114.0,727.0 1109.0,727.0" fill="rgba(0,0,0,1.000)" stroke="rgba(0,0,0,1.000)" stroke-width="1.0" data-name="Polygon555" data-id="1013"/>
    <polygon points="1108.0,688.0 1114.0,688.0 1114.0,695.0 1108.0,695.0 1108.0,688.0" fill="rgba(153,255,255,1.000)" stroke="rgba(0,0,0,1.000)" stroke-width="1.0" data-name="Polygon556" data-id="1014"/>
    <polygon points="1111.0,695.0 1112.0,695.0 1112.0,708.0 1111.0,708.0 1111.0,695.0" fill="rgba(127,127,127,1.000)" stroke="rgba(0,0,0,1.000)" stroke-width="1.0" data-name="Polygon557" data-id="1015"/>
    <polyline points="1110.0,708.0 1113.0,708.0 1113.0,711.0 1110.0,711.0 1110.0,708.0" fill="none" stroke="rgba(0,0,0,1.000)" stroke-width="1.0" data-name="PolyLine234" data-id="1016"/>
    <polygon points="1109.0,711.0 1113.0,711.0 1113.0,725.0 1109.0,725.0 1109.0,711.0" fill="rgba(229,229,229,1.000)" stroke="rgba(0,0,0,1.000)" stroke-width="1.0" data-name="Polygon558" data-id="1017"/>
    <polygon points="1110.0,712.0 1111.0,712.0 1111.0,725.0 1110.0,725.0 1110.0,712.0" fill="rgba(127,127,127,1.000)" stroke="rgba(255,255,255,1.000)" stroke-width="0.0" data-name="Polygon559" data-id="1018"/>
    <polyline points="1111.0,712.0 1111.0,725.0 1111.0,712.0" fill="none" stroke="rgba(255,255,255,1.000)" stroke-width="1.0" data-name="PolyLine235" data-id="1020"/>
    <polyline points="1110.0,710.0 1113.0,710.0" fill="none" stroke="rgba(255,255,255,1.000)" stroke-width="1.0" data-name="PolyLine236" data-id="1021"/>
    <polygon points="1108.0,695.0 1108.0,694.0 1108.0,689.0 1102.0,689.0 1098.0,687.0 1098.0,678.0 1098.0,680.0 1098.0,686.0 1103.0,688.0 1108.0,688.0 1108.0,695.0" fill="rgba(0,255,255,1.000)" stroke="rgba(0,0,0,1.000)" stroke-width="1.0" data-name="Polygon560" data-id="1022"/>
    <polygon points="1098.0,680.0 1103.0,678.0 1116.0,678.0 1116.0,677.0 1102.0,677.0 1098.0,678.0 1098.0,680.0" fill="rgba(0,255,255,1.000)" stroke="rgba(0,0,0,1.000)" stroke-width="1.0" data-name="Polygon561" data-id="1023"/>
    <polyline points="1102.0,677.0 1103.0,678.0 1103.0,688.0" fill="none" stroke="rgba(0,0,0,1.000)" stroke-width="1.0" data-name="PolyLine237" data-id="1024"/>
    <polyline points="1098.0,686.0 1100.0,687.0" fill="none" stroke="rgba(0,0,0,1.000)" stroke-width="1.0" data-name="PolyLine238" data-id="1025"/>
    <polyline points="1103.0,688.0 1102.0,689.0" fill="none" stroke="rgba(0,0,0,1.000)" stroke-width="1.0" data-name="PolyLine239" data-id="1026"/>
    <polyline points="1108.0,689.0 1110.0,688.0" fill="none" stroke="rgba(0,0,0,1.000)" stroke-width="1.0" data-name="PolyLine240" data-id="1027"/>
    <polygon points="1112.0,678.0 1115.0,678.0 1115.0,688.0 1112.0,688.0 1112.0,678.0" fill="rgba(255,204,0,1.000)" stroke="rgba(127,127,127,1.000)" stroke-width="1.0" data-name="Polygon562" data-id="1028"/>
    <polyline points="1098.0,687.0 1098.0,686.0 1098.0,680.0 1098.0,678.0 1098.0,687.0" fill="none" stroke="rgba(0,0,0,1.000)" stroke-width="1.0" data-name="PolyLine241" data-id="1030"/>
    <polyline points="1098.0,680.0 1098.0,681.0 1098.0,682.0 1098.0,683.0 1098.0,684.0 1098.0,685.0 1098.0,684.0 1098.0,683.0 1098.0,682.0 1098.0,681.0 1098.0,680.0 1098.0,680.0" fill="none" stroke="rgba(0,0,0,1.000)" stroke-width="1.0" data-name="PolyLine242" data-id="1032"/>
    <polyline points="1098.0,682.0 1098.0,683.0 1098.0,684.0 1098.0,683.0 1098.0,682.0 1098.0,682.0" fill="none" stroke="rgba(0,0,0,1.000)" stroke-width="1.0" data-name="PolyLine243" data-id="1034"/>
    <polygon points="1106.0,686.0 1106.0,687.0 1105.0,687.0 1105.0,686.0 1106.0,686.0 1106.0,686.0" fill="rgba(255,255,0,1.000)" stroke="rgba(0,0,0,1.000)" stroke-width="1.0" data-name="Polygon563" data-id="1035"/>
    <polygon points="1106.0,684.0 1106.0,685.0 1105.0,685.0 1105.0,684.0 1106.0,684.0 1106.0,684.0" fill="rgba(229,229,229,1.000)" stroke="rgba(255,255,255,1.000)" stroke-width="0.0" data-name="Polygon564" data-id="1036"/>
    <polygon points="1106.0,681.0 1106.0,682.0 1105.0,682.0 1105.0,681.0 1106.0,681.0 1106.0,681.0" fill="rgba(229,229,229,1.000)" stroke="rgba(255,255,255,1.000)" stroke-width="0.0" data-name="Polygon565" data-id="1037"/>
    <polygon points="1106.0,679.0 1106.0,680.0 1105.0,680.0 1105.0,679.0 1106.0,679.0 1106.0,679.0" fill="rgba(229,229,229,1.000)" stroke="rgba(255,255,255,1.000)" stroke-width="0.0" data-name="Polygon566" data-id="1038"/>
    <polyline points="1098.0,679.0 1102.0,677.0" fill="none" stroke="rgba(0,0,0,1.000)" stroke-width="1.0" data-name="PolyLine244" data-id="1039"/>
    <polyline points="1098.0,687.0 1101.0,688.0" fill="none" stroke="rgba(0,0,0,1.000)" stroke-width="1.0" data-name="PolyLine245" data-id="1040"/>
    <polygon points="1098.0,682.0 1102.0,682.0 1102.0,683.0 1098.0,683.0 1098.0,682.0" fill="rgba(127,127,127,1.000)" stroke="rgba(0,0,0,1.000)" stroke-width="1.0" data-name="Polygon567" data-id="1041"/>
    <polygon points="1108.0,682.0 1108.0,683.0 1108.0,684.0 1107.0,683.0 1108.0,682.0 1108.0,682.0" fill="rgba(204,204,204,1.000)" stroke="rgba(255,255,255,1.000)" stroke-width="0.0" data-name="Polygon568" data-id="1042"/>
    <polygon points="1110.0,682.0 1110.0,683.0 1111.0,683.0 1110.0,683.0 1110.0,684.0 1110.0,683.0 1109.0,683.0 1110.0,683.0 1110.0,682.0 1110.0,682.0" fill="rgba(204,204,204,1.000)" stroke="rgba(255,255,255,1.000)" stroke-width="0.0" data-name="Polygon569" data-id="1043"/>
    <polygon points="1109.0,717.0 1112.0,717.0 1112.0,721.0 1109.0,721.0 1109.0,717.0" fill="rgba(255,255,255,1.000)" stroke="rgba(0,0,0,1.000)" stroke-width="1.0" data-name="Polygon570" data-id="1044"/>
  </g>
</svg>
