<?xml version='1.0' encoding='utf-8'?>
<svg xmlns="http://www.w3.org/2000/svg" viewBox="373.000 588.000 42.000 28.000" width="42.000" height="28.000">
  <g transform="translate(-46.000,-121.000)"><polygon points="421.0,723.0 452.0,723.0 452.0,735.0 421.0,735.0 421.0,723.0" fill="rgba(127,127,127,1.000)" stroke="rgba(0,0,0,1.000)" stroke-width="0.0" data-name="Polygon298" data-id="454"/>
    <polygon points="421.0,723.0 452.0,723.0 452.0,735.0 421.0,735.0 421.0,723.0" fill="rgba(153,153,153,1.000)" stroke="rgba(0,0,0,1.000)" stroke-width="0.0" data-name="Polygon299" data-id="455"/>
    <polygon points="421.0,724.0 452.0,724.0 452.0,733.0 421.0,733.0 421.0,724.0" fill="rgba(178,178,178,1.000)" stroke="rgba(0,0,0,1.000)" stroke-width="0.0" data-name="Polygon300" data-id="456"/>
    <polygon points="421.0,725.0 452.0,725.0 452.0,733.0 421.0,733.0 421.0,725.0" fill="rgba(204,204,204,1.000)" stroke="rgba(0,0,0,1.000)" stroke-width="0.0" data-name="Polygon301" data-id="457"/>
    <polygon points="421.0,727.0 452.0,727.0 452.0,731.0 421.0,731.0 421.0,727.0" fill="rgba(229,229,229,1.000)" stroke="rgba(0,0,0,1.000)" stroke-width="0.0" data-name="Polygon302" data-id="458"/>
    <polygon points="421.0,728.0 452.0,728.0 452.0,729.0 421.0,729.0 421.0,728.0" fill="rgba(255,255,255,1.000)" stroke="rgba(0,0,0,1.000)" stroke-width="0.0" data-name="Polygon303" data-id="459"/>
    <polyline points="421.0,735.0 452.0,735.0" fill="none" stroke="rgba(0,0,0,1.000)" stroke-width="1.0" data-name="PolyLine114" data-id="460"/>
    <polyline points="452.0,723.0 421.0,723.0" fill="none" stroke="rgba(0,0,0,1.000)" stroke-width="1.0" data-name="PolyLine115" data-id="461"/>
    <polygon points="459.0,720.0 459.0,711.0 447.0,711.0 447.0,720.0 447.0,722.0 447.0,723.0 446.0,723.0 445.0,723.0 436.0,723.0 436.0,735.0 445.0,735.0 447.0,735.0 449.0,735.0 450.0,734.0 451.0,734.0 452.0,734.0 454.0,734.0 455.0,731.0 456.0,730.0 456.0,728.0 457.0,727.0 457.0,726.0 459.0,724.0 459.0,723.0 459.0,720.0" fill="rgba(127,127,127,1.000)" stroke="rgba(255,255,255,1.000)" stroke-width="0.0" data-name="Polygon310" data-id="470"/>
    <polygon points="445.0,734.0 446.0,734.0 447.0,734.0 449.0,734.0 450.0,734.0 451.0,734.0 452.0,734.0 454.0,731.0 454.0,730.0 455.0,730.0 456.0,728.0 456.0,727.0 457.0,726.0 457.0,724.0 457.0,722.0 457.0,720.0 457.0,711.0 449.0,711.0 449.0,720.0 449.0,722.0 447.0,722.0 447.0,723.0 446.0,723.0 446.0,724.0 445.0,724.0 436.0,724.0 436.0,734.0 445.0,734.0" fill="rgba(153,153,153,1.000)" stroke="rgba(255,255,255,1.000)" stroke-width="0.0" data-name="Polygon311" data-id="471"/>
    <polygon points="445.0,734.0 436.0,734.0 436.0,726.0 445.0,726.0 446.0,724.0 447.0,724.0 449.0,724.0 449.0,723.0 449.0,722.0 449.0,720.0 449.0,711.0 456.0,711.0 456.0,720.0 456.0,722.0 456.0,723.0 456.0,724.0 456.0,726.0 455.0,727.0 455.0,728.0 454.0,728.0 454.0,730.0 452.0,730.0 452.0,731.0 451.0,731.0 450.0,734.0 449.0,734.0 447.0,734.0 446.0,734.0 445.0,734.0" fill="rgba(178,178,178,1.000)" stroke="rgba(255,255,255,1.000)" stroke-width="0.0" data-name="Polygon312" data-id="472"/>
    <polygon points="445.0,734.0 446.0,731.0 447.0,731.0 449.0,731.0 450.0,731.0 451.0,730.0 452.0,730.0 452.0,728.0 454.0,728.0 454.0,727.0 455.0,726.0 455.0,724.0 455.0,723.0 455.0,722.0 456.0,720.0 456.0,711.0 450.0,711.0 450.0,720.0 450.0,722.0 450.0,723.0 450.0,724.0 449.0,724.0 449.0,726.0 447.0,726.0 446.0,726.0 445.0,726.0 436.0,726.0 436.0,734.0 445.0,734.0" fill="rgba(204,204,204,1.000)" stroke="rgba(255,255,255,1.000)" stroke-width="0.0" data-name="Polygon313" data-id="473"/>
    <polygon points="445.0,731.0 436.0,731.0 436.0,727.0 445.0,727.0 446.0,727.0 447.0,727.0 449.0,726.0 450.0,726.0 450.0,724.0 451.0,723.0 451.0,722.0 451.0,720.0 451.0,711.0 455.0,711.0 455.0,720.0 455.0,722.0 455.0,723.0 454.0,724.0 454.0,726.0 454.0,727.0 452.0,727.0 452.0,728.0 451.0,728.0 451.0,730.0 450.0,730.0 449.0,730.0 447.0,731.0 446.0,731.0 445.0,731.0" fill="rgba(229,229,229,1.000)" stroke="rgba(255,255,255,1.000)" stroke-width="0.0" data-name="Polygon314" data-id="474"/>
    <polygon points="445.0,730.0 446.0,730.0 447.0,730.0 449.0,730.0 450.0,728.0 451.0,728.0 451.0,727.0 452.0,727.0 452.0,726.0 454.0,724.0 454.0,723.0 454.0,722.0 454.0,720.0 454.0,711.0 452.0,711.0 452.0,720.0 452.0,723.0 451.0,724.0 451.0,726.0 450.0,726.0 450.0,727.0 449.0,727.0 447.0,728.0 445.0,728.0 436.0,728.0 436.0,730.0 445.0,730.0" fill="rgba(255,255,255,1.000)" stroke="rgba(255,255,255,1.000)" stroke-width="0.0" data-name="Polygon315" data-id="475"/>
    <polyline points="436.0,735.0 445.0,735.0 447.0,735.0 449.0,735.0 450.0,734.0 451.0,734.0 452.0,734.0 454.0,734.0 455.0,731.0 456.0,730.0 456.0,728.0 457.0,727.0 457.0,726.0 459.0,724.0 459.0,723.0 459.0,720.0 459.0,711.0" fill="none" stroke="rgba(0,0,0,1.000)" stroke-width="1.0" data-name="PolyLine118" data-id="476"/>
    <polyline points="447.0,711.0 447.0,720.0 447.0,722.0 447.0,723.0 446.0,723.0 445.0,723.0 436.0,723.0" fill="none" stroke="rgba(0,0,0,1.000)" stroke-width="1.0" data-name="PolyLine119" data-id="477"/>
    </g>
</svg>
