<?xml version='1.0' encoding='UTF-8'?>
<svg xmlns="http://www.w3.org/2000/svg" viewBox="200.000 497.000 594.000 104.000" width="594.000" height="104.000">
  <style id="modernize-style-v1">
  svg { shape-rendering: geometricPrecision; text-rendering: geometricPrecision; }
  .state-active { filter: drop-shadow(0 0 2px rgba(33,179,111,.65)) drop-shadow(0 0 7px rgba(33,179,111,.35)); }
  .state-warning { filter: drop-shadow(0 0 2px rgba(232,176,65,.62)) drop-shadow(0 0 7px rgba(232,176,65,.32)); }
  .state-fault { filter: drop-shadow(0 0 2px rgba(217,73,73,.66)) drop-shadow(0 0 8px rgba(217,73,73,.34)); }
  .state-critical { filter: drop-shadow(0 0 3px rgba(255,56,56,.72)) drop-shadow(0 0 10px rgba(255,56,56,.40)); }
  .state-idle { filter: none; }
</style><g transform="translate(-46.000,-121.000)"><polygon points="259.0,641.0 259.0,714.0 248.0,714.0 248.0,641.0 259.0,641.0" fill="rgba(96,113,134,1.000)" stroke="rgba(26,37,49,1.000)" stroke-width="0.0" data-name="Polygon71" data-id="127" stroke-linecap="round" stroke-linejoin="round" vector-effect="non-scaling-stroke"/>
    <polygon points="258.0,641.0 258.0,714.0 249.0,714.0 249.0,641.0 258.0,641.0" fill="rgba(127,146,169,1.000)" stroke="rgba(26,37,49,1.000)" stroke-width="0.0" data-name="Polygon72" data-id="128" stroke-linecap="round" stroke-linejoin="round" vector-effect="non-scaling-stroke"/>
    <polygon points="256.0,641.0 256.0,714.0 250.0,714.0 250.0,641.0 256.0,641.0" fill="rgba(171,187,207,1.000)" stroke="rgba(26,37,49,1.000)" stroke-width="0.0" data-name="Polygon73" data-id="129" stroke-linecap="round" stroke-linejoin="round" vector-effect="non-scaling-stroke"/>
    <polygon points="255.0,641.0 255.0,714.0 251.0,714.0 251.0,641.0 255.0,641.0" fill="rgba(171,187,207,1.000)" stroke="rgba(26,37,49,1.000)" stroke-width="0.0" data-name="Polygon74" data-id="130" stroke-linecap="round" stroke-linejoin="round" vector-effect="non-scaling-stroke"/>
    <polygon points="255.0,641.0 255.0,714.0 251.0,714.0 251.0,641.0 255.0,641.0" fill="rgba(221,231,243,1.000)" stroke="rgba(26,37,49,1.000)" stroke-width="0.0" data-name="Polygon75" data-id="131" stroke-linecap="round" stroke-linejoin="round" vector-effect="non-scaling-stroke"/>
    <polygon points="254.0,641.0 254.0,714.0 253.0,714.0 253.0,641.0 254.0,641.0" fill="rgba(221,231,243,1.000)" stroke="rgba(26,37,49,1.000)" stroke-width="0.0" data-name="Polygon76" data-id="132" stroke-linecap="round" stroke-linejoin="round" vector-effect="non-scaling-stroke"/>
    <polyline points="248.0,641.0 248.0,714.0" fill="none" stroke="rgba(26,37,49,1.000)" stroke-width="1.05" data-name="PolyLine27" data-id="133" stroke-linecap="round" stroke-linejoin="round" vector-effect="non-scaling-stroke"/>
    <polyline points="259.0,714.0 259.0,641.0" fill="none" stroke="rgba(26,37,49,1.000)" stroke-width="1.05" data-name="PolyLine28" data-id="134" stroke-linecap="round" stroke-linejoin="round" vector-effect="non-scaling-stroke"/>
    <polygon points="248.0,647.0 248.0,658.0 259.0,658.0 259.0,647.0 259.0,646.0 259.0,644.0 261.0,644.0 269.0,644.0 269.0,631.0 261.0,631.0 259.0,631.0 258.0,631.0 257.0,632.0 256.0,632.0 254.0,632.0 253.0,634.0 253.0,635.0 252.0,636.0 251.0,636.0 251.0,639.0 249.0,639.0 249.0,640.0 248.0,642.0 248.0,643.0 248.0,644.0 248.0,647.0" fill="rgba(96,113,134,1.000)" stroke="rgba(217,229,244,1.000)" stroke-width="0.0" data-name="Polygon83" data-id="143" stroke-linecap="round" stroke-linejoin="round" vector-effect="non-scaling-stroke"/>
    <polygon points="260.0,632.0 259.0,632.0 258.0,632.0 257.0,632.0 255.0,633.0 254.0,633.0 254.0,635.0 253.0,635.0 252.0,636.0 252.0,637.0 250.0,640.0 249.0,640.0 249.0,641.0 249.0,643.0 249.0,645.0 249.0,647.0 249.0,657.0 258.0,657.0 258.0,647.0 258.0,645.0 258.0,644.0 259.0,644.0 260.0,643.0 269.0,643.0 269.0,632.0 260.0,632.0" fill="rgba(127,146,169,1.000)" stroke="rgba(217,229,244,1.000)" stroke-width="0.0" data-name="Polygon84" data-id="144" stroke-linecap="round" stroke-linejoin="round" vector-effect="non-scaling-stroke"/>
    <polygon points="260.0,632.0 269.0,632.0 269.0,640.0 260.0,640.0 259.0,640.0 259.0,641.0 258.0,641.0 258.0,643.0 257.0,643.0 257.0,644.0 257.0,645.0 257.0,656.0 249.0,656.0 249.0,645.0 249.0,644.0 250.0,643.0 250.0,641.0 250.0,640.0 250.0,640.0 252.0,637.0 252.0,636.0 253.0,636.0 254.0,635.0 254.0,633.0 255.0,633.0 257.0,633.0 257.0,632.0 258.0,632.0 259.0,632.0 260.0,632.0" fill="rgba(171,187,207,1.000)" stroke="rgba(217,229,244,1.000)" stroke-width="0.0" data-name="Polygon85" data-id="145" stroke-linecap="round" stroke-linejoin="round" vector-effect="non-scaling-stroke"/>
    <polygon points="260.0,635.0 259.0,635.0 258.0,635.0 256.0,636.0 255.0,636.0 254.0,638.0 253.0,639.0 253.0,640.0 251.0,640.0 251.0,643.0 251.0,643.0 250.0,644.0 250.0,646.0 250.0,647.0 250.0,658.0 255.0,658.0 255.0,647.0 255.0,646.0 256.0,644.0 256.0,643.0 258.0,643.0 259.0,643.0 259.0,640.0 260.0,640.0 269.0,640.0 269.0,635.0 260.0,635.0" fill="rgba(171,187,207,1.000)" stroke="rgba(217,229,244,1.000)" stroke-width="0.0" data-name="Polygon86" data-id="146" stroke-linecap="round" stroke-linejoin="round" vector-effect="non-scaling-stroke"/>
    <polygon points="260.0,636.0 269.0,636.0 269.0,640.0 260.0,640.0 259.0,640.0 257.0,640.0 256.0,640.0 256.0,641.0 255.0,644.0 255.0,644.0 255.0,645.0 255.0,647.0 255.0,659.0 251.0,659.0 251.0,647.0 251.0,645.0 251.0,644.0 251.0,644.0 252.0,644.0 252.0,641.0 252.0,640.0 254.0,640.0 254.0,639.0 255.0,637.0 256.0,637.0 256.0,636.0 257.0,636.0 259.0,636.0 260.0,636.0" fill="rgba(221,231,243,1.000)" stroke="rgba(217,229,244,1.000)" stroke-width="0.0" data-name="Polygon87" data-id="147" stroke-linecap="round" stroke-linejoin="round" vector-effect="non-scaling-stroke"/>
    <polygon points="261.0,636.0 259.0,636.0 259.0,637.0 258.0,637.0 257.0,637.0 256.0,639.0 256.0,640.0 254.0,640.0 254.0,641.0 253.0,641.0 253.0,644.0 253.0,644.0 253.0,645.0 253.0,647.0 253.0,659.0 254.0,659.0 254.0,647.0 254.0,644.0 254.0,644.0 256.0,641.0 256.0,640.0 257.0,640.0 258.0,639.0 259.0,639.0 261.0,639.0 269.0,639.0 269.0,636.0 261.0,636.0" fill="rgba(221,231,243,1.000)" stroke="rgba(217,229,244,1.000)" stroke-width="0.0" data-name="Polygon88" data-id="148" stroke-linecap="round" stroke-linejoin="round" vector-effect="non-scaling-stroke"/>
    <polyline points="269.0,631.0 261.0,631.0 259.0,631.0 258.0,631.0 257.0,632.0 256.0,632.0 254.0,632.0 253.0,634.0 253.0,635.0 252.0,636.0 251.0,636.0 251.0,639.0 249.0,639.0 249.0,640.0 248.0,642.0 248.0,643.0 248.0,644.0 248.0,647.0 248.0,658.0" fill="none" stroke="rgba(26,37,49,1.000)" stroke-width="1.05" data-name="PolyLine31" data-id="149" stroke-linecap="round" stroke-linejoin="round" vector-effect="non-scaling-stroke"/>
    <polyline points="259.0,657.0 259.0,647.0 259.0,645.0 259.0,644.0 260.0,644.0 269.0,644.0" fill="none" stroke="rgba(26,37,49,1.000)" stroke-width="1.05" data-name="PolyLine32" data-id="150" stroke-linecap="round" stroke-linejoin="round" vector-effect="non-scaling-stroke"/>
    <polygon points="268.0,631.0 837.0,631.0 837.0,644.0 268.0,644.0 268.0,631.0" fill="rgba(96,113,134,1.000)" stroke="rgba(26,37,49,1.000)" stroke-width="0.0" data-name="Polygon274" data-id="422" stroke-linecap="round" stroke-linejoin="round" vector-effect="non-scaling-stroke"/>
    <polygon points="268.0,631.0 837.0,631.0 837.0,644.0 268.0,644.0 268.0,631.0" fill="rgba(127,146,169,1.000)" stroke="rgba(26,37,49,1.000)" stroke-width="0.0" data-name="Polygon275" data-id="423" stroke-linecap="round" stroke-linejoin="round" vector-effect="non-scaling-stroke"/>
    <polygon points="268.0,632.0 837.0,632.0 837.0,641.0 268.0,641.0 268.0,632.0" fill="rgba(171,187,207,1.000)" stroke="rgba(26,37,49,1.000)" stroke-width="0.0" data-name="Polygon276" data-id="424" stroke-linecap="round" stroke-linejoin="round" vector-effect="non-scaling-stroke"/>
    <polygon points="268.0,635.0 837.0,635.0 837.0,640.0 268.0,640.0 268.0,635.0" fill="rgba(171,187,207,1.000)" stroke="rgba(26,37,49,1.000)" stroke-width="0.0" data-name="Polygon277" data-id="425" stroke-linecap="round" stroke-linejoin="round" vector-effect="non-scaling-stroke"/>
    <polygon points="268.0,635.0 837.0,635.0 837.0,640.0 268.0,640.0 268.0,635.0" fill="rgba(221,231,243,1.000)" stroke="rgba(26,37,49,1.000)" stroke-width="0.0" data-name="Polygon278" data-id="426" stroke-linecap="round" stroke-linejoin="round" vector-effect="non-scaling-stroke"/>
    <polygon points="268.0,636.0 837.0,636.0 837.0,639.0 268.0,639.0 268.0,636.0" fill="rgba(221,231,243,1.000)" stroke="rgba(26,37,49,1.000)" stroke-width="0.0" data-name="Polygon279" data-id="427" stroke-linecap="round" stroke-linejoin="round" vector-effect="non-scaling-stroke"/>
    <polyline points="268.0,644.0 837.0,644.0" fill="none" stroke="rgba(26,37,49,1.000)" stroke-width="1.05" data-name="PolyLine106" data-id="428" stroke-linecap="round" stroke-linejoin="round" vector-effect="non-scaling-stroke"/>
    <polyline points="837.0,631.0 268.0,631.0" fill="none" stroke="rgba(26,37,49,1.000)" stroke-width="1.05" data-name="PolyLine107" data-id="429" stroke-linecap="round" stroke-linejoin="round" vector-effect="non-scaling-stroke"/>
    <polygon points="465.0,657.0 838.0,657.0 838.0,670.0 465.0,670.0 465.0,657.0" fill="rgba(96,113,134,1.000)" stroke="rgba(26,37,49,1.000)" stroke-width="0.0" data-name="Polygon280" data-id="430" stroke-linecap="round" stroke-linejoin="round" vector-effect="non-scaling-stroke"/>
    <polygon points="465.0,657.0 838.0,657.0 838.0,670.0 465.0,670.0 465.0,657.0" fill="rgba(127,146,169,1.000)" stroke="rgba(26,37,49,1.000)" stroke-width="0.0" data-name="Polygon281" data-id="431" stroke-linecap="round" stroke-linejoin="round" vector-effect="non-scaling-stroke"/>
    <polygon points="465.0,660.0 838.0,660.0 838.0,669.0 465.0,669.0 465.0,660.0" fill="rgba(171,187,207,1.000)" stroke="rgba(26,37,49,1.000)" stroke-width="0.0" data-name="Polygon282" data-id="432" stroke-linecap="round" stroke-linejoin="round" vector-effect="non-scaling-stroke"/>
    <polygon points="465.0,663.0 838.0,663.0 838.0,668.0 465.0,668.0 465.0,663.0" fill="rgba(171,187,207,1.000)" stroke="rgba(26,37,49,1.000)" stroke-width="0.0" data-name="Polygon283" data-id="433" stroke-linecap="round" stroke-linejoin="round" vector-effect="non-scaling-stroke"/>
    <polygon points="465.0,663.0 838.0,663.0 838.0,668.0 465.0,668.0 465.0,663.0" fill="rgba(221,231,243,1.000)" stroke="rgba(26,37,49,1.000)" stroke-width="0.0" data-name="Polygon284" data-id="434" stroke-linecap="round" stroke-linejoin="round" vector-effect="non-scaling-stroke"/>
    <polygon points="465.0,663.0 838.0,663.0 838.0,666.0 465.0,666.0 465.0,663.0" fill="rgba(221,231,243,1.000)" stroke="rgba(26,37,49,1.000)" stroke-width="0.0" data-name="Polygon285" data-id="435" stroke-linecap="round" stroke-linejoin="round" vector-effect="non-scaling-stroke"/>
    <polyline points="465.0,671.0 838.0,671.0" fill="none" stroke="rgba(26,37,49,1.000)" stroke-width="1.05" data-name="PolyLine108" data-id="436" stroke-linecap="round" stroke-linejoin="round" vector-effect="non-scaling-stroke"/>
    <polyline points="838.0,657.0 465.0,657.0" fill="none" stroke="rgba(26,37,49,1.000)" stroke-width="1.05" data-name="PolyLine109" data-id="437" stroke-linecap="round" stroke-linejoin="round" vector-effect="non-scaling-stroke"/>
    <polygon points="670.0,683.0 838.0,683.0 838.0,696.0 670.0,696.0 670.0,683.0" fill="rgba(96,113,134,1.000)" stroke="rgba(26,37,49,1.000)" stroke-width="0.0" data-name="Polygon286" data-id="438" stroke-linecap="round" stroke-linejoin="round" vector-effect="non-scaling-stroke"/>
    <polygon points="670.0,683.0 838.0,683.0 838.0,696.0 670.0,696.0 670.0,683.0" fill="rgba(127,146,169,1.000)" stroke="rgba(26,37,49,1.000)" stroke-width="0.0" data-name="Polygon287" data-id="439" stroke-linecap="round" stroke-linejoin="round" vector-effect="non-scaling-stroke"/>
    <polygon points="670.0,685.0 838.0,685.0 838.0,694.0 670.0,694.0 670.0,685.0" fill="rgba(171,187,207,1.000)" stroke="rgba(26,37,49,1.000)" stroke-width="0.0" data-name="Polygon288" data-id="440" stroke-linecap="round" stroke-linejoin="round" vector-effect="non-scaling-stroke"/>
    <polygon points="670.0,687.0 838.0,687.0 838.0,692.0 670.0,692.0 670.0,687.0" fill="rgba(171,187,207,1.000)" stroke="rgba(26,37,49,1.000)" stroke-width="0.0" data-name="Polygon289" data-id="441" stroke-linecap="round" stroke-linejoin="round" vector-effect="non-scaling-stroke"/>
    <polygon points="670.0,687.0 838.0,687.0 838.0,692.0 670.0,692.0 670.0,687.0" fill="rgba(221,231,243,1.000)" stroke="rgba(26,37,49,1.000)" stroke-width="0.0" data-name="Polygon290" data-id="442" stroke-linecap="round" stroke-linejoin="round" vector-effect="non-scaling-stroke"/>
    <polygon points="670.0,688.0 838.0,688.0 838.0,691.0 670.0,691.0 670.0,688.0" fill="rgba(221,231,243,1.000)" stroke="rgba(26,37,49,1.000)" stroke-width="0.0" data-name="Polygon291" data-id="443" stroke-linecap="round" stroke-linejoin="round" vector-effect="non-scaling-stroke"/>
    <polyline points="670.0,696.0 838.0,696.0" fill="none" stroke="rgba(26,37,49,1.000)" stroke-width="1.05" data-name="PolyLine110" data-id="444" stroke-linecap="round" stroke-linejoin="round" vector-effect="non-scaling-stroke"/>
    <polyline points="838.0,683.0 670.0,683.0" fill="none" stroke="rgba(26,37,49,1.000)" stroke-width="1.05" data-name="PolyLine111" data-id="445" stroke-linecap="round" stroke-linejoin="round" vector-effect="non-scaling-stroke"/>
    <polygon points="459.0,680.0 459.0,720.0 448.0,720.0 448.0,680.0 459.0,680.0" fill="rgba(96,113,134,1.000)" stroke="rgba(26,37,49,1.000)" stroke-width="0.0" data-name="Polygon292" data-id="446" stroke-linecap="round" stroke-linejoin="round" vector-effect="non-scaling-stroke"/>
    <polygon points="458.0,680.0 458.0,720.0 449.0,720.0 449.0,680.0 458.0,680.0" fill="rgba(127,146,169,1.000)" stroke="rgba(26,37,49,1.000)" stroke-width="0.0" data-name="Polygon293" data-id="447" stroke-linecap="round" stroke-linejoin="round" vector-effect="non-scaling-stroke"/>
    <polygon points="456.0,680.0 456.0,720.0 450.0,720.0 450.0,680.0 456.0,680.0" fill="rgba(171,187,207,1.000)" stroke="rgba(26,37,49,1.000)" stroke-width="0.0" data-name="Polygon294" data-id="448" stroke-linecap="round" stroke-linejoin="round" vector-effect="non-scaling-stroke"/>
    <polygon points="455.0,680.0 455.0,720.0 451.0,720.0 451.0,680.0 455.0,680.0" fill="rgba(171,187,207,1.000)" stroke="rgba(26,37,49,1.000)" stroke-width="0.0" data-name="Polygon295" data-id="449" stroke-linecap="round" stroke-linejoin="round" vector-effect="non-scaling-stroke"/>
    <polygon points="455.0,680.0 455.0,720.0 451.0,720.0 451.0,680.0 455.0,680.0" fill="rgba(221,231,243,1.000)" stroke="rgba(26,37,49,1.000)" stroke-width="0.0" data-name="Polygon296" data-id="450" stroke-linecap="round" stroke-linejoin="round" vector-effect="non-scaling-stroke"/>
    <polygon points="454.0,680.0 454.0,720.0 453.0,720.0 453.0,680.0 454.0,680.0" fill="rgba(221,231,243,1.000)" stroke="rgba(26,37,49,1.000)" stroke-width="0.0" data-name="Polygon297" data-id="451" stroke-linecap="round" stroke-linejoin="round" vector-effect="non-scaling-stroke"/>
    <polyline points="448.0,680.0 448.0,720.0" fill="none" stroke="rgba(26,37,49,1.000)" stroke-width="1.05" data-name="PolyLine112" data-id="452" stroke-linecap="round" stroke-linejoin="round" vector-effect="non-scaling-stroke"/>
    <polyline points="459.0,720.0 459.0,680.0" fill="none" stroke="rgba(26,37,49,1.000)" stroke-width="1.05" data-name="PolyLine113" data-id="453" stroke-linecap="round" stroke-linejoin="round" vector-effect="non-scaling-stroke"/>
    <polygon points="448.0,673.0 448.0,684.0 459.0,684.0 459.0,673.0 459.0,672.0 459.0,670.0 461.0,670.0 469.0,670.0 469.0,657.0 461.0,657.0 459.0,657.0 458.0,657.0 457.0,658.0 456.0,658.0 454.0,658.0 453.0,660.0 453.0,661.0 452.0,662.0 451.0,662.0 451.0,665.0 449.0,665.0 449.0,666.0 448.0,668.0 448.0,669.0 448.0,670.0 448.0,673.0" fill="rgba(96,113,134,1.000)" stroke="rgba(217,229,244,1.000)" stroke-width="0.0" data-name="Polygon304" data-id="462" stroke-linecap="round" stroke-linejoin="round" vector-effect="non-scaling-stroke"/>
    <polygon points="460.0,659.0 459.0,659.0 458.0,659.0 457.0,659.0 455.0,660.0 454.0,660.0 454.0,662.0 453.0,662.0 452.0,663.0 452.0,664.0 450.0,667.0 449.0,667.0 449.0,668.0 449.0,670.0 449.0,672.0 449.0,674.0 449.0,684.0 458.0,684.0 458.0,674.0 458.0,672.0 458.0,671.0 459.0,671.0 460.0,670.0 469.0,670.0 469.0,659.0 460.0,659.0" fill="rgba(127,146,169,1.000)" stroke="rgba(217,229,244,1.000)" stroke-width="0.0" data-name="Polygon305" data-id="463" stroke-linecap="round" stroke-linejoin="round" vector-effect="non-scaling-stroke"/>
    <polygon points="460.0,660.0 469.0,660.0 469.0,668.0 460.0,668.0 459.0,668.0 459.0,669.0 458.0,669.0 458.0,671.0 457.0,671.0 457.0,672.0 457.0,673.0 457.0,684.0 449.0,684.0 449.0,673.0 449.0,672.0 450.0,671.0 450.0,669.0 450.0,668.0 450.0,668.0 452.0,665.0 452.0,664.0 453.0,664.0 454.0,663.0 454.0,661.0 455.0,661.0 457.0,661.0 457.0,660.0 458.0,660.0 459.0,660.0 460.0,660.0" fill="rgba(171,187,207,1.000)" stroke="rgba(217,229,244,1.000)" stroke-width="0.0" data-name="Polygon306" data-id="464" stroke-linecap="round" stroke-linejoin="round" vector-effect="non-scaling-stroke"/>
    <polygon points="460.0,663.0 459.0,663.0 458.0,663.0 456.0,664.0 455.0,664.0 454.0,666.0 453.0,667.0 453.0,668.0 451.0,668.0 451.0,671.0 451.0,671.0 450.0,672.0 450.0,674.0 450.0,675.0 450.0,686.0 455.0,686.0 455.0,675.0 455.0,674.0 456.0,672.0 456.0,671.0 458.0,671.0 459.0,671.0 459.0,668.0 460.0,668.0 469.0,668.0 469.0,663.0 460.0,663.0" fill="rgba(171,187,207,1.000)" stroke="rgba(217,229,244,1.000)" stroke-width="0.0" data-name="Polygon307" data-id="465" stroke-linecap="round" stroke-linejoin="round" vector-effect="non-scaling-stroke"/>
    <polygon points="460.0,663.0 469.0,663.0 469.0,667.0 460.0,667.0 459.0,667.0 457.0,667.0 456.0,667.0 456.0,668.0 455.0,671.0 455.0,671.0 455.0,672.0 455.0,674.0 455.0,686.0 451.0,686.0 451.0,674.0 451.0,672.0 451.0,671.0 451.0,671.0 452.0,671.0 452.0,668.0 452.0,667.0 454.0,667.0 454.0,666.0 455.0,664.0 456.0,664.0 456.0,663.0 457.0,663.0 459.0,663.0 460.0,663.0" fill="rgba(221,231,243,1.000)" stroke="rgba(217,229,244,1.000)" stroke-width="0.0" data-name="Polygon308" data-id="466" stroke-linecap="round" stroke-linejoin="round" vector-effect="non-scaling-stroke"/>
    <polygon points="461.0,663.0 459.0,663.0 459.0,664.0 458.0,664.0 457.0,664.0 456.0,666.0 456.0,667.0 454.0,667.0 454.0,668.0 453.0,668.0 453.0,671.0 453.0,671.0 453.0,672.0 453.0,674.0 453.0,686.0 454.0,686.0 454.0,674.0 454.0,671.0 454.0,671.0 456.0,668.0 456.0,667.0 457.0,667.0 458.0,666.0 459.0,666.0 461.0,666.0 469.0,666.0 469.0,663.0 461.0,663.0" fill="rgba(221,231,243,1.000)" stroke="rgba(217,229,244,1.000)" stroke-width="0.0" data-name="Polygon309" data-id="467" stroke-linecap="round" stroke-linejoin="round" vector-effect="non-scaling-stroke"/>
    <polyline points="469.0,657.0 461.0,657.0 459.0,657.0 458.0,657.0 457.0,658.0 456.0,658.0 454.0,658.0 453.0,660.0 453.0,661.0 452.0,662.0 451.0,662.0 451.0,665.0 449.0,665.0 449.0,666.0 448.0,668.0 448.0,669.0 448.0,670.0 448.0,673.0 448.0,684.0" fill="none" stroke="rgba(26,37,49,1.000)" stroke-width="1.05" data-name="PolyLine116" data-id="468" stroke-linecap="round" stroke-linejoin="round" vector-effect="non-scaling-stroke"/>
    <polyline points="459.0,684.0 459.0,674.0 459.0,672.0 459.0,671.0 460.0,671.0 469.0,671.0" fill="none" stroke="rgba(26,37,49,1.000)" stroke-width="1.05" data-name="PolyLine117" data-id="469" stroke-linecap="round" stroke-linejoin="round" vector-effect="non-scaling-stroke"/>
    <polygon points="665.0,692.0 665.0,716.0 655.0,716.0 655.0,692.0 665.0,692.0" fill="rgba(96,113,134,1.000)" stroke="rgba(26,37,49,1.000)" stroke-width="0.0" data-name="Polygon316" data-id="478" stroke-linecap="round" stroke-linejoin="round" vector-effect="non-scaling-stroke"/>
    <polygon points="665.0,692.0 665.0,716.0 655.0,716.0 655.0,692.0 665.0,692.0" fill="rgba(127,146,169,1.000)" stroke="rgba(26,37,49,1.000)" stroke-width="0.0" data-name="Polygon317" data-id="479" stroke-linecap="round" stroke-linejoin="round" vector-effect="non-scaling-stroke"/>
    <polygon points="664.0,692.0 664.0,716.0 656.0,716.0 656.0,692.0 664.0,692.0" fill="rgba(171,187,207,1.000)" stroke="rgba(26,37,49,1.000)" stroke-width="0.0" data-name="Polygon318" data-id="480" stroke-linecap="round" stroke-linejoin="round" vector-effect="non-scaling-stroke"/>
    <polygon points="663.0,692.0 663.0,716.0 658.0,716.0 658.0,692.0 663.0,692.0" fill="rgba(171,187,207,1.000)" stroke="rgba(26,37,49,1.000)" stroke-width="0.0" data-name="Polygon319" data-id="481" stroke-linecap="round" stroke-linejoin="round" vector-effect="non-scaling-stroke"/>
    <polygon points="662.0,692.0 662.0,716.0 659.0,716.0 659.0,692.0 662.0,692.0" fill="rgba(221,231,243,1.000)" stroke="rgba(26,37,49,1.000)" stroke-width="0.0" data-name="Polygon320" data-id="482" stroke-linecap="round" stroke-linejoin="round" vector-effect="non-scaling-stroke"/>
    <polygon points="662.0,692.0 662.0,716.0 659.0,716.0 659.0,692.0 662.0,692.0" fill="rgba(221,231,243,1.000)" stroke="rgba(26,37,49,1.000)" stroke-width="0.0" data-name="Polygon321" data-id="483" stroke-linecap="round" stroke-linejoin="round" vector-effect="non-scaling-stroke"/>
    <polyline points="655.0,692.0 655.0,716.0" fill="none" stroke="rgba(26,37,49,1.000)" stroke-width="1.05" data-name="PolyLine120" data-id="484" stroke-linecap="round" stroke-linejoin="round" vector-effect="non-scaling-stroke"/>
    <polyline points="665.0,716.0 665.0,692.0" fill="none" stroke="rgba(26,37,49,1.000)" stroke-width="1.05" data-name="PolyLine121" data-id="485" stroke-linecap="round" stroke-linejoin="round" vector-effect="non-scaling-stroke"/>
    <polygon points="655.0,699.0 655.0,710.0 666.0,710.0 666.0,699.0 666.0,698.0 666.0,696.0 668.0,696.0 676.0,696.0 676.0,683.0 668.0,683.0 666.0,683.0 665.0,683.0 664.0,684.0 663.0,684.0 661.0,684.0 660.0,686.0 660.0,687.0 659.0,688.0 658.0,688.0 658.0,691.0 656.0,691.0 656.0,692.0 655.0,694.0 655.0,695.0 655.0,696.0 655.0,699.0" fill="rgba(96,113,134,1.000)" stroke="rgba(217,229,244,1.000)" stroke-width="0.0" data-name="Polygon334" data-id="502" stroke-linecap="round" stroke-linejoin="round" vector-effect="non-scaling-stroke"/>
    <polygon points="667.0,684.0 666.0,684.0 665.0,684.0 664.0,684.0 662.0,685.0 661.0,685.0 661.0,687.0 660.0,687.0 659.0,688.0 659.0,689.0 657.0,692.0 656.0,692.0 656.0,693.0 656.0,695.0 656.0,697.0 656.0,699.0 656.0,709.0 665.0,709.0 665.0,699.0 665.0,697.0 665.0,696.0 666.0,696.0 667.0,695.0 676.0,695.0 676.0,684.0 667.0,684.0" fill="rgba(127,146,169,1.000)" stroke="rgba(217,229,244,1.000)" stroke-width="0.0" data-name="Polygon335" data-id="503" stroke-linecap="round" stroke-linejoin="round" vector-effect="non-scaling-stroke"/>
    <polygon points="667.0,685.0 676.0,685.0 676.0,693.0 667.0,693.0 666.0,693.0 666.0,694.0 665.0,694.0 665.0,696.0 664.0,696.0 664.0,697.0 664.0,698.0 664.0,709.0 656.0,709.0 656.0,698.0 656.0,697.0 657.0,696.0 657.0,694.0 657.0,693.0 657.0,693.0 659.0,690.0 659.0,689.0 660.0,689.0 661.0,688.0 661.0,686.0 662.0,686.0 664.0,686.0 664.0,685.0 665.0,685.0 666.0,685.0 667.0,685.0" fill="rgba(171,187,207,1.000)" stroke="rgba(217,229,244,1.000)" stroke-width="0.0" data-name="Polygon336" data-id="504" stroke-linecap="round" stroke-linejoin="round" vector-effect="non-scaling-stroke"/>
    <polygon points="668.0,687.0 667.0,687.0 666.0,687.0 664.0,688.0 663.0,688.0 662.0,690.0 661.0,691.0 661.0,692.0 659.0,692.0 659.0,695.0 659.0,695.0 658.0,696.0 658.0,698.0 658.0,699.0 658.0,710.0 663.0,710.0 663.0,699.0 663.0,698.0 664.0,696.0 664.0,695.0 666.0,695.0 667.0,695.0 667.0,692.0 668.0,692.0 677.0,692.0 677.0,687.0 668.0,687.0" fill="rgba(171,187,207,1.000)" stroke="rgba(217,229,244,1.000)" stroke-width="0.0" data-name="Polygon337" data-id="505" stroke-linecap="round" stroke-linejoin="round" vector-effect="non-scaling-stroke"/>
    <polygon points="668.0,688.0 677.0,688.0 677.0,692.0 668.0,692.0 667.0,692.0 665.0,692.0 664.0,692.0 664.0,693.0 663.0,696.0 663.0,696.0 663.0,697.0 663.0,699.0 663.0,711.0 659.0,711.0 659.0,699.0 659.0,697.0 659.0,696.0 659.0,696.0 660.0,696.0 660.0,693.0 660.0,692.0 662.0,692.0 662.0,691.0 663.0,689.0 664.0,689.0 664.0,688.0 665.0,688.0 667.0,688.0 668.0,688.0" fill="rgba(221,231,243,1.000)" stroke="rgba(217,229,244,1.000)" stroke-width="0.0" data-name="Polygon338" data-id="506" stroke-linecap="round" stroke-linejoin="round" vector-effect="non-scaling-stroke"/>
    <polygon points="668.0,688.0 666.0,688.0 666.0,689.0 665.0,689.0 664.0,689.0 663.0,691.0 663.0,692.0 661.0,692.0 661.0,693.0 660.0,693.0 660.0,696.0 660.0,696.0 660.0,697.0 660.0,699.0 660.0,711.0 661.0,711.0 661.0,699.0 661.0,696.0 661.0,696.0 663.0,693.0 663.0,692.0 664.0,692.0 665.0,691.0 666.0,691.0 668.0,691.0 676.0,691.0 676.0,688.0 668.0,688.0" fill="rgba(221,231,243,1.000)" stroke="rgba(217,229,244,1.000)" stroke-width="0.0" data-name="Polygon339" data-id="507" stroke-linecap="round" stroke-linejoin="round" vector-effect="non-scaling-stroke"/>
    <polyline points="676.0,683.0 668.0,683.0 666.0,683.0 665.0,683.0 664.0,684.0 663.0,684.0 661.0,684.0 660.0,686.0 660.0,687.0 659.0,688.0 658.0,688.0 658.0,691.0 656.0,691.0 656.0,692.0 655.0,694.0 655.0,695.0 655.0,696.0 655.0,699.0 655.0,710.0" fill="none" stroke="rgba(26,37,49,1.000)" stroke-width="1.05" data-name="PolyLine126" data-id="508" stroke-linecap="round" stroke-linejoin="round" vector-effect="non-scaling-stroke"/>
    <polyline points="666.0,709.0 666.0,699.0 666.0,697.0 666.0,696.0 667.0,696.0 676.0,696.0" fill="none" stroke="rgba(26,37,49,1.000)" stroke-width="1.05" data-name="PolyLine127" data-id="509" stroke-linecap="round" stroke-linejoin="round" vector-effect="non-scaling-stroke"/>
    <polygon points="685.0,625.0 695.0,620.0 695.0,624.0 711.0,621.0 709.0,625.0 711.0,629.0 695.0,628.0 695.0,631.0 685.0,625.0" fill="rgba(96,113,134,1.000)" stroke="rgba(76,92,112,1.000)" stroke-width="1.05" data-name="Polygon432" data-id="660" stroke-linecap="round" stroke-linejoin="round" vector-effect="non-scaling-stroke"/>
    <polyline points="685.0,625.0 695.0,620.0 695.0,624.0 711.0,621.0 709.0,625.0 711.0,629.0 695.0,628.0 695.0,631.0 685.0,625.0" fill="none" stroke="rgba(76,92,112,1.000)" stroke-width="1.05" data-name="PolyLine166" data-id="661" stroke-linecap="round" stroke-linejoin="round" vector-effect="non-scaling-stroke"/>
    <polygon points="688.0,662.0 698.0,657.0 698.0,661.0 714.0,658.0 712.0,662.0 714.0,668.0 698.0,665.0 698.0,669.0 688.0,662.0" fill="rgba(96,113,134,1.000)" stroke="rgba(76,92,112,1.000)" stroke-width="1.05" data-name="Polygon436" data-id="668" stroke-linecap="round" stroke-linejoin="round" vector-effect="non-scaling-stroke"/>
    <polyline points="688.0,662.0 698.0,657.0 698.0,661.0 714.0,658.0 712.0,662.0 714.0,668.0 698.0,665.0 698.0,669.0 688.0,662.0" fill="none" stroke="rgba(76,92,112,1.000)" stroke-width="1.05" data-name="PolyLine170" data-id="669" stroke-linecap="round" stroke-linejoin="round" vector-effect="non-scaling-stroke"/>
    </g>
</svg>
