<?xml version='1.0' encoding='UTF-8'?>
<svg xmlns="http://www.w3.org/2000/svg" viewBox="668.000 185.000 316.000 217.000" width="316.000" height="217.000">
  <style id="modernize-style-v1">
  svg { shape-rendering: geometricPrecision; text-rendering: geometricPrecision; }
  .state-active { filter: drop-shadow(0 0 2px rgba(33,179,111,.65)) drop-shadow(0 0 7px rgba(33,179,111,.35)); }
  .state-warning { filter: drop-shadow(0 0 2px rgba(232,176,65,.62)) drop-shadow(0 0 7px rgba(232,176,65,.32)); }
  .state-fault { filter: drop-shadow(0 0 2px rgba(217,73,73,.66)) drop-shadow(0 0 8px rgba(217,73,73,.34)); }
  .state-critical { filter: drop-shadow(0 0 3px rgba(255,56,56,.72)) drop-shadow(0 0 10px rgba(255,56,56,.40)); }
  .state-idle { filter: none; }
</style><g transform="translate(-46.000,-121.000)"><polygon points="744.0,419.0 1007.0,419.0 1007.0,439.0 744.0,439.0 744.0,419.0" fill="rgba(96,113,134,1.000)" stroke="rgba(26,37,49,1.000)" stroke-width="0.0" data-name="Polygon7" data-id="28" stroke-linecap="round" stroke-linejoin="round" vector-effect="non-scaling-stroke"/>
    <polygon points="744.0,421.0 1007.0,421.0 1007.0,438.0 744.0,438.0 744.0,421.0" fill="rgba(127,146,169,1.000)" stroke="rgba(26,37,49,1.000)" stroke-width="0.0" data-name="Polygon8" data-id="29" stroke-linecap="round" stroke-linejoin="round" vector-effect="non-scaling-stroke"/>
    <polygon points="744.0,424.0 1007.0,424.0 1007.0,436.0 744.0,436.0 744.0,424.0" fill="rgba(171,187,207,1.000)" stroke="rgba(26,37,49,1.000)" stroke-width="0.0" data-name="Polygon9" data-id="30" stroke-linecap="round" stroke-linejoin="round" vector-effect="non-scaling-stroke"/>
    <polygon points="744.0,425.0 1007.0,425.0 1007.0,434.0 744.0,434.0 744.0,425.0" fill="rgba(171,187,207,1.000)" stroke="rgba(26,37,49,1.000)" stroke-width="0.0" data-name="Polygon10" data-id="31" stroke-linecap="round" stroke-linejoin="round" vector-effect="non-scaling-stroke"/>
    <polygon points="744.0,427.0 1007.0,427.0 1007.0,435.0 744.0,435.0 744.0,427.0" fill="rgba(221,231,243,1.000)" stroke="rgba(26,37,49,1.000)" stroke-width="0.0" data-name="Polygon11" data-id="32" stroke-linecap="round" stroke-linejoin="round" vector-effect="non-scaling-stroke"/>
    <polygon points="744.0,429.0 1007.0,429.0 1007.0,430.0 744.0,430.0 744.0,429.0" fill="rgba(221,231,243,1.000)" stroke="rgba(26,37,49,1.000)" stroke-width="0.0" data-name="Polygon12" data-id="33" stroke-linecap="round" stroke-linejoin="round" vector-effect="non-scaling-stroke"/>
    <polyline points="744.0,440.0 1007.0,440.0" fill="none" stroke="rgba(26,37,49,1.000)" stroke-width="1.05" data-name="PolyLine3" data-id="34" stroke-linecap="round" stroke-linejoin="round" vector-effect="non-scaling-stroke"/>
    <polyline points="1007.0,419.0 744.0,419.0" fill="none" stroke="rgba(26,37,49,1.000)" stroke-width="1.05" data-name="PolyLine4" data-id="35" stroke-linecap="round" stroke-linejoin="round" vector-effect="non-scaling-stroke"/>
    <polygon points="1028.0,417.0 1028.0,400.0 1013.0,400.0 1013.0,417.0 1013.0,419.0 1013.0,420.0 1012.0,420.0 999.0,420.0 999.0,440.0 1012.0,440.0 1013.0,440.0 1014.0,439.0 1017.0,439.0 1018.0,437.0 1019.0,437.0 1020.0,435.0 1022.0,435.0 1023.0,433.0 1024.0,431.0 1025.0,429.0 1025.0,428.0 1027.0,425.0 1027.0,424.0 1028.0,423.0 1028.0,419.0 1028.0,417.0" fill="rgba(96,113,134,1.000)" stroke="rgba(217,229,244,1.000)" stroke-width="0.0" data-name="Polygon13" data-id="36" stroke-linecap="round" stroke-linejoin="round" vector-effect="non-scaling-stroke"/>
    <polygon points="1012.0,439.0 1013.0,439.0 1014.0,437.0 1015.0,437.0 1017.0,435.0 1019.0,435.0 1020.0,435.0 1022.0,433.0 1022.0,432.0 1023.0,431.0 1024.0,429.0 1025.0,427.0 1025.0,425.0 1027.0,423.0 1027.0,423.0 1027.0,419.0 1027.0,417.0 1027.0,400.0 1014.0,400.0 1014.0,417.0 1014.0,419.0 1013.0,420.0 1013.0,423.0 1012.0,423.0 999.0,423.0 999.0,439.0 1012.0,439.0" fill="rgba(127,146,169,1.000)" stroke="rgba(217,229,244,1.000)" stroke-width="0.0" data-name="Polygon14" data-id="37" stroke-linecap="round" stroke-linejoin="round" vector-effect="non-scaling-stroke"/>
    <polygon points="1012.0,435.0 999.0,435.0 999.0,423.0 1012.0,423.0 1013.0,423.0 1014.0,423.0 1014.0,423.0 1015.0,420.0 1015.0,419.0 1015.0,417.0 1015.0,400.0 1025.0,400.0 1025.0,417.0 1025.0,419.0 1025.0,420.0 1024.0,423.0 1024.0,424.0 1024.0,427.0 1023.0,428.0 1022.0,429.0 1022.0,431.0 1020.0,432.0 1019.0,433.0 1018.0,433.0 1017.0,435.0 1015.0,435.0 1014.0,435.0 1013.0,435.0 1012.0,435.0" fill="rgba(171,187,207,1.000)" stroke="rgba(217,229,244,1.000)" stroke-width="0.0" data-name="Polygon15" data-id="38" stroke-linecap="round" stroke-linejoin="round" vector-effect="non-scaling-stroke"/>
    <polygon points="1012.0,435.0 1013.0,435.0 1014.0,433.0 1015.0,433.0 1017.0,433.0 1017.0,432.0 1018.0,431.0 1019.0,431.0 1020.0,429.0 1020.0,428.0 1022.0,427.0 1023.0,425.0 1023.0,424.0 1023.0,423.0 1024.0,420.0 1024.0,419.0 1024.0,417.0 1024.0,400.0 1018.0,400.0 1018.0,417.0 1017.0,419.0 1017.0,420.0 1017.0,423.0 1015.0,423.0 1014.0,424.0 1013.0,424.0 1013.0,425.0 1012.0,425.0 999.0,425.0 999.0,435.0 1012.0,435.0" fill="rgba(171,187,207,1.000)" stroke="rgba(217,229,244,1.000)" stroke-width="0.0" data-name="Polygon16" data-id="39" stroke-linecap="round" stroke-linejoin="round" vector-effect="non-scaling-stroke"/>
    <polygon points="1012.0,432.0 999.0,432.0 999.0,427.0 1012.0,427.0 1013.0,427.0 1014.0,427.0 1015.0,425.0 1017.0,424.0 1017.0,423.0 1018.0,423.0 1018.0,419.0 1018.0,417.0 1018.0,400.0 1023.0,400.0 1023.0,417.0 1023.0,419.0 1023.0,420.0 1022.0,423.0 1022.0,423.0 1022.0,424.0 1020.0,425.0 1020.0,427.0 1019.0,428.0 1018.0,429.0 1017.0,431.0 1015.0,431.0 1014.0,432.0 1013.0,432.0 1012.0,432.0" fill="rgba(221,231,243,1.000)" stroke="rgba(217,229,244,1.000)" stroke-width="0.0" data-name="Polygon17" data-id="40" stroke-linecap="round" stroke-linejoin="round" vector-effect="non-scaling-stroke"/>
    <polygon points="1012.0,431.0 1013.0,431.0 1014.0,431.0 1015.0,429.0 1017.0,429.0 1017.0,428.0 1018.0,428.0 1018.0,427.0 1019.0,425.0 1020.0,424.0 1020.0,423.0 1020.0,423.0 1022.0,420.0 1022.0,419.0 1022.0,417.0 1022.0,400.0 1019.0,400.0 1019.0,417.0 1019.0,419.0 1019.0,423.0 1018.0,424.0 1017.0,425.0 1015.0,427.0 1014.0,428.0 1013.0,428.0 1012.0,428.0 999.0,428.0 999.0,431.0 1012.0,431.0" fill="rgba(221,231,243,1.000)" stroke="rgba(217,229,244,1.000)" stroke-width="0.0" data-name="Polygon18" data-id="41" stroke-linecap="round" stroke-linejoin="round" vector-effect="non-scaling-stroke"/>
    <polyline points="999.0,440.0 1012.0,440.0 1013.0,440.0 1014.0,439.0 1017.0,439.0 1018.0,437.0 1019.0,437.0 1020.0,435.0 1022.0,435.0 1023.0,433.0 1024.0,431.0 1025.0,429.0 1025.0,428.0 1027.0,425.0 1027.0,424.0 1028.0,423.0 1028.0,419.0 1028.0,417.0 1028.0,400.0" fill="none" stroke="rgba(26,37,49,1.000)" stroke-width="1.05" data-name="PolyLine5" data-id="42" stroke-linecap="round" stroke-linejoin="round" vector-effect="non-scaling-stroke"/>
    <polyline points="1013.0,400.0 1013.0,417.0 1013.0,419.0 1013.0,420.0 1012.0,420.0 999.0,420.0" fill="none" stroke="rgba(26,37,49,1.000)" stroke-width="1.05" data-name="PolyLine6" data-id="43" stroke-linecap="round" stroke-linejoin="round" vector-effect="non-scaling-stroke"/>
    <polygon points="716.0,417.0 716.0,401.0 734.0,401.0 734.0,417.0 734.0,418.0 734.0,420.0 735.0,420.0 736.0,420.0 750.0,420.0 750.0,440.0 736.0,440.0 734.0,440.0 732.0,438.0 730.0,438.0 729.0,436.0 726.0,436.0 725.0,436.0 724.0,434.0 722.0,433.0 721.0,432.0 720.0,429.0 719.0,428.0 719.0,426.0 717.0,424.0 717.0,421.0 716.0,420.0 716.0,417.0" fill="rgba(96,113,134,1.000)" stroke="rgba(217,229,244,1.000)" stroke-width="0.0" data-name="Polygon19" data-id="44" stroke-linecap="round" stroke-linejoin="round" vector-effect="non-scaling-stroke"/>
    <polygon points="737.0,438.0 734.0,438.0 733.0,436.0 731.0,436.0 729.0,436.0 728.0,436.0 727.0,434.0 724.0,433.0 723.0,432.0 722.0,430.0 722.0,429.0 721.0,428.0 719.0,425.0 719.0,424.0 718.0,421.0 718.0,420.0 718.0,417.0 718.0,401.0 733.0,401.0 733.0,417.0 733.0,418.0 733.0,420.0 734.0,420.0 734.0,421.0 736.0,421.0 737.0,421.0 751.0,421.0 751.0,438.0 737.0,438.0" fill="rgba(127,146,169,1.000)" stroke="rgba(217,229,244,1.000)" stroke-width="0.0" data-name="Polygon20" data-id="45" stroke-linecap="round" stroke-linejoin="round" vector-effect="non-scaling-stroke"/>
    <polygon points="736.0,436.0 750.0,436.0 750.0,424.0 736.0,424.0 735.0,424.0 734.0,424.0 733.0,424.0 733.0,421.0 731.0,421.0 731.0,420.0 730.0,418.0 730.0,417.0 730.0,401.0 720.0,401.0 720.0,417.0 720.0,420.0 720.0,421.0 720.0,424.0 721.0,425.0 721.0,426.0 723.0,428.0 724.0,429.0 724.0,430.0 725.0,432.0 726.0,433.0 728.0,434.0 730.0,434.0 731.0,436.0 733.0,436.0 734.0,436.0 736.0,436.0" fill="rgba(171,187,207,1.000)" stroke="rgba(217,229,244,1.000)" stroke-width="0.0" data-name="Polygon21" data-id="46" stroke-linecap="round" stroke-linejoin="round" vector-effect="non-scaling-stroke"/>
    <polygon points="736.0,434.0 735.0,434.0 732.0,434.0 731.0,433.0 730.0,433.0 729.0,432.0 727.0,432.0 726.0,430.0 725.0,429.0 725.0,428.0 724.0,426.0 722.0,425.0 722.0,424.0 721.0,424.0 721.0,421.0 721.0,418.0 721.0,417.0 721.0,401.0 729.0,401.0 729.0,417.0 729.0,418.0 729.0,421.0 730.0,424.0 731.0,424.0 734.0,425.0 735.0,425.0 736.0,425.0 750.0,425.0 750.0,434.0 736.0,434.0" fill="rgba(171,187,207,1.000)" stroke="rgba(217,229,244,1.000)" stroke-width="0.0" data-name="Polygon22" data-id="47" stroke-linecap="round" stroke-linejoin="round" vector-effect="non-scaling-stroke"/>
    <polygon points="737.0,433.0 751.0,433.0 751.0,426.0 737.0,426.0 734.0,426.0 733.0,426.0 732.0,425.0 731.0,424.0 729.0,424.0 728.0,421.0 728.0,420.0 728.0,417.0 728.0,401.0 723.0,401.0 723.0,417.0 723.0,418.0 723.0,420.0 723.0,424.0 724.0,424.0 724.0,425.0 726.0,426.0 727.0,428.0 728.0,429.0 729.0,430.0 731.0,430.0 732.0,432.0 733.0,432.0 734.0,432.0 736.0,433.0 737.0,433.0" fill="rgba(221,231,243,1.000)" stroke="rgba(217,229,244,1.000)" stroke-width="0.0" data-name="Polygon23" data-id="48" stroke-linecap="round" stroke-linejoin="round" vector-effect="non-scaling-stroke"/>
    <polygon points="737.0,430.0 735.0,430.0 734.0,430.0 733.0,430.0 732.0,430.0 730.0,429.0 729.0,429.0 729.0,428.0 728.0,426.0 727.0,426.0 727.0,425.0 725.0,424.0 725.0,424.0 725.0,421.0 724.0,420.0 724.0,418.0 724.0,417.0 724.0,401.0 727.0,401.0 727.0,417.0 727.0,420.0 727.0,421.0 728.0,424.0 729.0,425.0 730.0,426.0 733.0,428.0 734.0,428.0 737.0,429.0 750.0,429.0 750.0,430.0 737.0,430.0" fill="rgba(221,231,243,1.000)" stroke="rgba(217,229,244,1.000)" stroke-width="0.0" data-name="Polygon24" data-id="49" stroke-linecap="round" stroke-linejoin="round" vector-effect="non-scaling-stroke"/>
    <polyline points="750.0,440.0 736.0,440.0 734.0,440.0 732.0,438.0 730.0,438.0 729.0,436.0 726.0,436.0 725.0,436.0 724.0,434.0 722.0,433.0 721.0,432.0 720.0,429.0 719.0,428.0 719.0,426.0 717.0,424.0 717.0,421.0 716.0,420.0 716.0,417.0 716.0,401.0" fill="none" stroke="rgba(26,37,49,1.000)" stroke-width="1.05" data-name="PolyLine7" data-id="50" stroke-linecap="round" stroke-linejoin="round" vector-effect="non-scaling-stroke"/>
    <polyline points="734.0,401.0 734.0,417.0 734.0,418.0 734.0,420.0 735.0,420.0 737.0,420.0 750.0,420.0" fill="none" stroke="rgba(26,37,49,1.000)" stroke-width="1.05" data-name="PolyLine8" data-id="51" stroke-linecap="round" stroke-linejoin="round" vector-effect="non-scaling-stroke"/>
    <polygon points="736.0,308.0 736.0,401.0 718.0,401.0 718.0,308.0 736.0,308.0" fill="rgba(96,113,134,1.000)" stroke="rgba(26,37,49,1.000)" stroke-width="0.0" data-name="Polygon25" data-id="52" stroke-linecap="round" stroke-linejoin="round" vector-effect="non-scaling-stroke"/>
    <polygon points="734.0,308.0 734.0,401.0 719.0,401.0 719.0,308.0 734.0,308.0" fill="rgba(127,146,169,1.000)" stroke="rgba(26,37,49,1.000)" stroke-width="0.0" data-name="Polygon26" data-id="53" stroke-linecap="round" stroke-linejoin="round" vector-effect="non-scaling-stroke"/>
    <polygon points="733.0,308.0 733.0,401.0 720.0,401.0 720.0,308.0 733.0,308.0" fill="rgba(171,187,207,1.000)" stroke="rgba(26,37,49,1.000)" stroke-width="0.0" data-name="Polygon27" data-id="54" stroke-linecap="round" stroke-linejoin="round" vector-effect="non-scaling-stroke"/>
    <polygon points="731.0,308.0 731.0,401.0 723.0,401.0 723.0,308.0 731.0,308.0" fill="rgba(171,187,207,1.000)" stroke="rgba(26,37,49,1.000)" stroke-width="0.0" data-name="Polygon28" data-id="55" stroke-linecap="round" stroke-linejoin="round" vector-effect="non-scaling-stroke"/>
    <polygon points="729.0,308.0 729.0,401.0 724.0,401.0 724.0,308.0 729.0,308.0" fill="rgba(221,231,243,1.000)" stroke="rgba(26,37,49,1.000)" stroke-width="0.0" data-name="Polygon29" data-id="56" stroke-linecap="round" stroke-linejoin="round" vector-effect="non-scaling-stroke"/>
    <polygon points="728.0,308.0 728.0,401.0 725.0,401.0 725.0,308.0 728.0,308.0" fill="rgba(221,231,243,1.000)" stroke="rgba(26,37,49,1.000)" stroke-width="0.0" data-name="Polygon30" data-id="57" stroke-linecap="round" stroke-linejoin="round" vector-effect="non-scaling-stroke"/>
    <polyline points="718.0,308.0 718.0,401.0" fill="none" stroke="rgba(26,37,49,1.000)" stroke-width="1.05" data-name="PolyLine9" data-id="58" stroke-linecap="round" stroke-linejoin="round" vector-effect="non-scaling-stroke"/>
    <polyline points="735.0,401.0 735.0,308.0" fill="none" stroke="rgba(26,37,49,1.000)" stroke-width="1.05" data-name="PolyLine10" data-id="59" stroke-linecap="round" stroke-linejoin="round" vector-effect="non-scaling-stroke"/>
    <polygon points="1028.0,311.0 1028.0,404.0 1013.0,404.0 1013.0,311.0 1028.0,311.0" fill="rgba(96,113,134,1.000)" stroke="rgba(26,37,49,1.000)" stroke-width="0.0" data-name="Polygon31" data-id="60" stroke-linecap="round" stroke-linejoin="round" vector-effect="non-scaling-stroke"/>
    <polygon points="1027.0,311.0 1027.0,404.0 1014.0,404.0 1014.0,311.0 1027.0,311.0" fill="rgba(127,146,169,1.000)" stroke="rgba(26,37,49,1.000)" stroke-width="0.0" data-name="Polygon32" data-id="61" stroke-linecap="round" stroke-linejoin="round" vector-effect="non-scaling-stroke"/>
    <polygon points="1025.0,311.0 1025.0,404.0 1015.0,404.0 1015.0,311.0 1025.0,311.0" fill="rgba(171,187,207,1.000)" stroke="rgba(26,37,49,1.000)" stroke-width="0.0" data-name="Polygon33" data-id="62" stroke-linecap="round" stroke-linejoin="round" vector-effect="non-scaling-stroke"/>
    <polygon points="1024.0,311.0 1024.0,404.0 1016.0,404.0 1016.0,311.0 1024.0,311.0" fill="rgba(171,187,207,1.000)" stroke="rgba(26,37,49,1.000)" stroke-width="0.0" data-name="Polygon34" data-id="63" stroke-linecap="round" stroke-linejoin="round" vector-effect="non-scaling-stroke"/>
    <polygon points="1023.0,311.0 1023.0,404.0 1018.0,404.0 1018.0,311.0 1023.0,311.0" fill="rgba(221,231,243,1.000)" stroke="rgba(26,37,49,1.000)" stroke-width="0.0" data-name="Polygon35" data-id="64" stroke-linecap="round" stroke-linejoin="round" vector-effect="non-scaling-stroke"/>
    <polygon points="1022.0,311.0 1022.0,404.0 1019.0,404.0 1019.0,311.0 1022.0,311.0" fill="rgba(221,231,243,1.000)" stroke="rgba(26,37,49,1.000)" stroke-width="0.0" data-name="Polygon36" data-id="65" stroke-linecap="round" stroke-linejoin="round" vector-effect="non-scaling-stroke"/>
    <polyline points="1013.0,311.0 1013.0,404.0" fill="none" stroke="rgba(26,37,49,1.000)" stroke-width="1.05" data-name="PolyLine11" data-id="66" stroke-linecap="round" stroke-linejoin="round" vector-effect="non-scaling-stroke"/>
    <polyline points="1028.0,404.0 1028.0,311.0" fill="none" stroke="rgba(26,37,49,1.000)" stroke-width="1.05" data-name="PolyLine12" data-id="67" stroke-linecap="round" stroke-linejoin="round" vector-effect="non-scaling-stroke"/>
    <polygon points="887.0,428.0 887.0,521.0 864.0,521.0 864.0,428.0 887.0,428.0" fill="rgba(96,113,134,1.000)" stroke="rgba(26,37,49,1.000)" stroke-width="0.0" data-name="Polygon53" data-id="98" stroke-linecap="round" stroke-linejoin="round" vector-effect="non-scaling-stroke"/>
    <polygon points="884.0,428.0 884.0,521.0 865.0,521.0 865.0,428.0 884.0,428.0" fill="rgba(127,146,169,1.000)" stroke="rgba(26,37,49,1.000)" stroke-width="0.0" data-name="Polygon54" data-id="99" stroke-linecap="round" stroke-linejoin="round" vector-effect="non-scaling-stroke"/>
    <polygon points="883.0,428.0 883.0,521.0 868.0,521.0 868.0,428.0 883.0,428.0" fill="rgba(171,187,207,1.000)" stroke="rgba(26,37,49,1.000)" stroke-width="0.0" data-name="Polygon55" data-id="100" stroke-linecap="round" stroke-linejoin="round" vector-effect="non-scaling-stroke"/>
    <polygon points="880.0,428.0 880.0,521.0 870.0,521.0 870.0,428.0 880.0,428.0" fill="rgba(171,187,207,1.000)" stroke="rgba(26,37,49,1.000)" stroke-width="0.0" data-name="Polygon56" data-id="101" stroke-linecap="round" stroke-linejoin="round" vector-effect="non-scaling-stroke"/>
    <polygon points="879.0,428.0 879.0,521.0 871.0,521.0 871.0,428.0 879.0,428.0" fill="rgba(221,231,243,1.000)" stroke="rgba(26,37,49,1.000)" stroke-width="0.0" data-name="Polygon57" data-id="102" stroke-linecap="round" stroke-linejoin="round" vector-effect="non-scaling-stroke"/>
    <polygon points="877.0,428.0 877.0,521.0 874.0,521.0 874.0,428.0 877.0,428.0" fill="rgba(221,231,243,1.000)" stroke="rgba(26,37,49,1.000)" stroke-width="0.0" data-name="Polygon58" data-id="103" stroke-linecap="round" stroke-linejoin="round" vector-effect="non-scaling-stroke"/>
    <polyline points="864.0,428.0 864.0,521.0" fill="none" stroke="rgba(26,37,49,1.000)" stroke-width="1.05" data-name="PolyLine21" data-id="104" stroke-linecap="round" stroke-linejoin="round" vector-effect="non-scaling-stroke"/>
    <polyline points="886.0,521.0 886.0,428.0" fill="none" stroke="rgba(26,37,49,1.000)" stroke-width="1.05" data-name="PolyLine22" data-id="105" stroke-linecap="round" stroke-linejoin="round" vector-effect="non-scaling-stroke"/>
    <polygon points="897.0,438.0 854.0,438.0 854.0,419.0 897.0,419.0 897.0,438.0" fill="rgba(96,113,134,1.000)" stroke="rgba(217,229,244,1.000)" stroke-width="0.0" data-name="Polygon172" data-id="270" stroke-linecap="round" stroke-linejoin="round" vector-effect="non-scaling-stroke"/>
    <polygon points="897.0,437.0 854.0,437.0 854.0,421.0 897.0,421.0 897.0,437.0" fill="rgba(127,146,169,1.000)" stroke="rgba(217,229,244,1.000)" stroke-width="0.0" data-name="Polygon173" data-id="271" stroke-linecap="round" stroke-linejoin="round" vector-effect="non-scaling-stroke"/>
    <polygon points="897.0,436.0 854.0,436.0 854.0,424.0 897.0,424.0 897.0,436.0" fill="rgba(171,187,207,1.000)" stroke="rgba(217,229,244,1.000)" stroke-width="0.0" data-name="Polygon174" data-id="272" stroke-linecap="round" stroke-linejoin="round" vector-effect="non-scaling-stroke"/>
    <polygon points="897.0,433.0 854.0,433.0 854.0,425.0 897.0,425.0 897.0,433.0" fill="rgba(171,187,207,1.000)" stroke="rgba(217,229,244,1.000)" stroke-width="0.0" data-name="Polygon175" data-id="273" stroke-linecap="round" stroke-linejoin="round" vector-effect="non-scaling-stroke"/>
    <polygon points="897.0,432.0 854.0,432.0 854.0,427.0 897.0,427.0 897.0,432.0" fill="rgba(221,231,243,1.000)" stroke="rgba(217,229,244,1.000)" stroke-width="0.0" data-name="Polygon176" data-id="274" stroke-linecap="round" stroke-linejoin="round" vector-effect="non-scaling-stroke"/>
    <polygon points="897.0,431.0 854.0,431.0 854.0,428.0 897.0,428.0 897.0,431.0" fill="rgba(221,231,243,1.000)" stroke="rgba(217,229,244,1.000)" stroke-width="0.0" data-name="Polygon177" data-id="275" stroke-linecap="round" stroke-linejoin="round" vector-effect="non-scaling-stroke"/>
    <polyline points="897.0,419.0 854.0,419.0" fill="none" stroke="rgba(26,37,49,1.000)" stroke-width="1.05" data-name="PolyLine65" data-id="276" stroke-linecap="round" stroke-linejoin="round" vector-effect="non-scaling-stroke"/>
    <polyline points="854.0,439.0 897.0,439.0" fill="none" stroke="rgba(26,37,49,1.000)" stroke-width="1.05" data-name="PolyLine66" data-id="277" stroke-linecap="round" stroke-linejoin="round" vector-effect="non-scaling-stroke"/>
    <polygon points="887.0,438.0 887.0,457.0 864.0,457.0 864.0,438.0 864.0,437.0 865.0,434.0 867.0,433.0 868.0,432.0 869.0,430.0 872.0,430.0 873.0,429.0 875.0,429.0 878.0,429.0 879.0,430.0 882.0,430.0 883.0,432.0 884.0,433.0 885.0,434.0 887.0,437.0 887.0,438.0" fill="rgba(96,113,134,1.000)" stroke="rgba(217,229,244,1.000)" stroke-width="0.0" data-name="Polygon178" data-id="278" stroke-linecap="round" stroke-linejoin="round" vector-effect="non-scaling-stroke"/>
    <polygon points="885.0,434.0 884.0,433.0 883.0,432.0 881.0,432.0 880.0,430.0 879.0,430.0 878.0,429.0 876.0,429.0 875.0,429.0 874.0,429.0 873.0,429.0 871.0,430.0 870.0,430.0 869.0,432.0 868.0,432.0 866.0,433.0 865.0,434.0 865.0,457.0 885.0,457.0 885.0,434.0" fill="rgba(127,146,169,1.000)" stroke="rgba(217,229,244,1.000)" stroke-width="0.0" data-name="Polygon179" data-id="279" stroke-linecap="round" stroke-linejoin="round" vector-effect="non-scaling-stroke"/>
    <polygon points="883.0,432.0 882.0,432.0 882.0,430.0 881.0,430.0 879.0,430.0 878.0,429.0 877.0,429.0 876.0,429.0 874.0,429.0 873.0,429.0 872.0,430.0 871.0,430.0 869.0,430.0 869.0,432.0 868.0,432.0 868.0,457.0 883.0,457.0 883.0,432.0" fill="rgba(171,187,207,1.000)" stroke="rgba(217,229,244,1.000)" stroke-width="0.0" data-name="Polygon180" data-id="280" stroke-linecap="round" stroke-linejoin="round" vector-effect="non-scaling-stroke"/>
    <polygon points="880.0,430.0 879.0,430.0 879.0,429.0 878.0,429.0 876.0,429.0 875.0,429.0 874.0,429.0 873.0,429.0 871.0,429.0 871.0,430.0 870.0,430.0 870.0,457.0 880.0,457.0 880.0,430.0" fill="rgba(171,187,207,1.000)" stroke="rgba(217,229,244,1.000)" stroke-width="0.0" data-name="Polygon181" data-id="281" stroke-linecap="round" stroke-linejoin="round" vector-effect="non-scaling-stroke"/>
    <polygon points="879.0,429.0 877.0,429.0 876.0,429.0 875.0,429.0 874.0,429.0 872.0,429.0 871.0,429.0 871.0,430.0 871.0,457.0 879.0,457.0 879.0,429.0" fill="rgba(221,231,243,1.000)" stroke="rgba(217,229,244,1.000)" stroke-width="0.0" data-name="Polygon182" data-id="282" stroke-linecap="round" stroke-linejoin="round" vector-effect="non-scaling-stroke"/>
    <polygon points="877.0,429.0 875.0,429.0 874.0,429.0 874.0,457.0 877.0,457.0 877.0,429.0" fill="rgba(221,231,243,1.000)" stroke="rgba(217,229,244,1.000)" stroke-width="0.0" data-name="Polygon183" data-id="283" stroke-linecap="round" stroke-linejoin="round" vector-effect="non-scaling-stroke"/>
    <polyline points="864.0,457.0 864.0,438.0 864.0,437.0 865.0,434.0 867.0,433.0 868.0,432.0 869.0,430.0 872.0,430.0 873.0,429.0 875.0,429.0 878.0,429.0 879.0,430.0 882.0,430.0 883.0,432.0 884.0,433.0 885.0,434.0 887.0,437.0 887.0,438.0 887.0,457.0" fill="none" stroke="rgba(26,37,49,1.000)" stroke-width="1.05" data-name="PolyLine67" data-id="284" stroke-linecap="round" stroke-linejoin="round" vector-effect="non-scaling-stroke"/>
    </g>
</svg>
