<?xml version='1.0' encoding='UTF-8'?>
<svg xmlns="http://www.w3.org/2000/svg" viewBox="247.000 384.000 37.000 34.000" width="37.000" height="34.000">
  <style id="modernize-style-v1">
  svg { shape-rendering: geometricPrecision; text-rendering: geometricPrecision; }
  .state-active { filter: drop-shadow(0 0 2px rgba(33,179,111,.65)) drop-shadow(0 0 7px rgba(33,179,111,.35)); }
  .state-warning { filter: drop-shadow(0 0 2px rgba(232,176,65,.62)) drop-shadow(0 0 7px rgba(232,176,65,.32)); }
  .state-fault { filter: drop-shadow(0 0 2px rgba(217,73,73,.66)) drop-shadow(0 0 8px rgba(217,73,73,.34)); }
  .state-critical { filter: drop-shadow(0 0 3px rgba(255,56,56,.72)) drop-shadow(0 0 10px rgba(255,56,56,.40)); }
  .state-idle { filter: none; }
</style><g transform="translate(-46.000,-121.000)"><polygon points="313.0,514.0 313.0,529.0 309.0,529.0 309.0,514.0 313.0,514.0" fill="rgba(96,113,134,1.000)" stroke="rgba(217,229,244,1.000)" stroke-width="0.0" data-name="Polygon487" data-id="749" stroke-linecap="round" stroke-linejoin="round" vector-effect="non-scaling-stroke"/>
    <polygon points="313.0,514.0 313.0,529.0 310.0,529.0 310.0,514.0 313.0,514.0" fill="rgba(171,187,207,1.000)" stroke="rgba(217,229,244,1.000)" stroke-width="0.0" data-name="Polygon488" data-id="750" stroke-linecap="round" stroke-linejoin="round" vector-effect="non-scaling-stroke"/>
    <polygon points="312.0,514.0 312.0,529.0 310.0,529.0 310.0,514.0 312.0,514.0" fill="rgba(221,231,243,1.000)" stroke="rgba(217,229,244,1.000)" stroke-width="0.0" data-name="Polygon489" data-id="751" stroke-linecap="round" stroke-linejoin="round" vector-effect="non-scaling-stroke"/>
    <polygon points="312.0,514.0 312.0,529.0 311.0,529.0 311.0,514.0 312.0,514.0" fill="rgba(221,231,243,1.000)" stroke="rgba(217,229,244,1.000)" stroke-width="0.0" data-name="Polygon490" data-id="752" stroke-linecap="round" stroke-linejoin="round" vector-effect="non-scaling-stroke"/>
    <polyline points="309.0,514.0 309.0,529.0" fill="none" stroke="rgba(26,37,49,1.000)" stroke-width="1.05" data-name="PolyLine190" data-id="753" stroke-linecap="round" stroke-linejoin="round" vector-effect="non-scaling-stroke"/>
    <polyline points="313.0,529.0 313.0,514.0" fill="none" stroke="rgba(26,37,49,1.000)" stroke-width="1.05" data-name="PolyLine191" data-id="754" stroke-linecap="round" stroke-linejoin="round" vector-effect="non-scaling-stroke"/>
    <polygon points="317.0,507.0 326.0,507.0 326.0,510.0 317.0,510.0 317.0,507.0" fill="rgba(96,113,134,1.000)" stroke="rgba(217,229,244,1.000)" stroke-width="0.0" data-name="Polygon491" data-id="755" stroke-linecap="round" stroke-linejoin="round" vector-effect="non-scaling-stroke"/>
    <polygon points="317.0,507.0 326.0,507.0 326.0,510.0 317.0,510.0 317.0,507.0" fill="rgba(171,187,207,1.000)" stroke="rgba(217,229,244,1.000)" stroke-width="0.0" data-name="Polygon492" data-id="756" stroke-linecap="round" stroke-linejoin="round" vector-effect="non-scaling-stroke"/>
    <polygon points="317.0,507.0 326.0,507.0 326.0,509.0 317.0,509.0 317.0,507.0" fill="rgba(221,231,243,1.000)" stroke="rgba(217,229,244,1.000)" stroke-width="0.0" data-name="Polygon493" data-id="757" stroke-linecap="round" stroke-linejoin="round" vector-effect="non-scaling-stroke"/>
    <polygon points="317.0,508.0 326.0,508.0 326.0,509.0 317.0,509.0 317.0,508.0" fill="rgba(221,231,243,1.000)" stroke="rgba(217,229,244,1.000)" stroke-width="0.0" data-name="Polygon494" data-id="758" stroke-linecap="round" stroke-linejoin="round" vector-effect="non-scaling-stroke"/>
    <polyline points="317.0,510.0 326.0,510.0" fill="none" stroke="rgba(26,37,49,1.000)" stroke-width="1.05" data-name="PolyLine192" data-id="759" stroke-linecap="round" stroke-linejoin="round" vector-effect="non-scaling-stroke"/>
    <polyline points="326.0,507.0 317.0,507.0" fill="none" stroke="rgba(26,37,49,1.000)" stroke-width="1.05" data-name="PolyLine193" data-id="760" stroke-linecap="round" stroke-linejoin="round" vector-effect="non-scaling-stroke"/>
    <polygon points="317.0,510.0 317.0,507.0 309.0,507.0 313.0,510.0 317.0,510.0" fill="rgba(96,113,134,1.000)" stroke="rgba(217,229,244,1.000)" stroke-width="0.0" data-name="Polygon495" data-id="761" stroke-linecap="round" stroke-linejoin="round" vector-effect="non-scaling-stroke"/>
    <polygon points="313.0,514.0 309.0,514.0 309.0,507.0 313.0,510.0 313.0,514.0" fill="rgba(96,113,134,1.000)" stroke="rgba(217,229,244,1.000)" stroke-width="0.0" data-name="Polygon496" data-id="762" stroke-linecap="round" stroke-linejoin="round" vector-effect="non-scaling-stroke"/>
    <polygon points="310.0,514.0 313.0,514.0 313.0,510.0 310.0,507.0 310.0,514.0" fill="rgba(171,187,207,1.000)" stroke="rgba(217,229,244,1.000)" stroke-width="0.0" data-name="Polygon497" data-id="763" stroke-linecap="round" stroke-linejoin="round" vector-effect="non-scaling-stroke"/>
    <polygon points="317.0,507.0 317.0,510.0 313.0,510.0 310.0,507.0 317.0,507.0" fill="rgba(171,187,207,1.000)" stroke="rgba(217,229,244,1.000)" stroke-width="0.0" data-name="Polygon498" data-id="764" stroke-linecap="round" stroke-linejoin="round" vector-effect="non-scaling-stroke"/>
    <polygon points="310.0,514.0 312.0,514.0 312.0,509.0 310.0,507.0 310.0,514.0" fill="rgba(221,231,243,1.000)" stroke="rgba(217,229,244,1.000)" stroke-width="0.0" data-name="Polygon499" data-id="765" stroke-linecap="round" stroke-linejoin="round" vector-effect="non-scaling-stroke"/>
    <polygon points="317.0,507.0 317.0,510.0 312.0,510.0 310.0,507.0 317.0,507.0" fill="rgba(221,231,243,1.000)" stroke="rgba(217,229,244,1.000)" stroke-width="0.0" data-name="Polygon500" data-id="766" stroke-linecap="round" stroke-linejoin="round" vector-effect="non-scaling-stroke"/>
    <polygon points="317.0,508.0 317.0,509.0 312.0,509.0 311.0,508.0 317.0,508.0" fill="rgba(221,231,243,1.000)" stroke="rgba(217,229,244,1.000)" stroke-width="0.0" data-name="Polygon501" data-id="767" stroke-linecap="round" stroke-linejoin="round" vector-effect="non-scaling-stroke"/>
    <polygon points="311.0,514.0 312.0,514.0 312.0,509.0 311.0,508.0 311.0,514.0" fill="rgba(221,231,243,1.000)" stroke="rgba(217,229,244,1.000)" stroke-width="0.0" data-name="Polygon502" data-id="768" stroke-linecap="round" stroke-linejoin="round" vector-effect="non-scaling-stroke"/>
    <polyline points="309.0,514.0 309.0,507.0" fill="none" stroke="rgba(26,37,49,1.000)" stroke-width="1.05" data-name="PolyLine194" data-id="769" stroke-linecap="round" stroke-linejoin="round" vector-effect="non-scaling-stroke"/>
    <polyline points="313.0,510.0 313.0,514.0" fill="none" stroke="rgba(26,37,49,1.000)" stroke-width="1.05" data-name="PolyLine195" data-id="770" stroke-linecap="round" stroke-linejoin="round" vector-effect="non-scaling-stroke"/>
    <polyline points="317.0,507.0 309.0,507.0" fill="none" stroke="rgba(26,37,49,1.000)" stroke-width="1.05" data-name="PolyLine196" data-id="771" stroke-linecap="round" stroke-linejoin="round" vector-effect="non-scaling-stroke"/>
    <polyline points="313.0,510.0 317.0,510.0" fill="none" stroke="rgba(26,37,49,1.000)" stroke-width="1.05" data-name="PolyLine197" data-id="772" stroke-linecap="round" stroke-linejoin="round" vector-effect="non-scaling-stroke"/>
    <polygon points="295.0,537.0 295.0,521.0 328.0,537.0 328.0,521.0 295.0,537.0" fill="rgba(96,113,134,1.000)" stroke="rgba(217,229,244,1.000)" stroke-width="0.0" data-name="Polygon503" data-id="773" stroke-linecap="round" stroke-linejoin="round" vector-effect="non-scaling-stroke"/>
    <polygon points="295.0,536.0 295.0,522.0 328.0,536.0 328.0,522.0 295.0,536.0" fill="rgba(127,146,169,1.000)" stroke="rgba(217,229,244,1.000)" stroke-width="0.0" data-name="Polygon504" data-id="774" stroke-linecap="round" stroke-linejoin="round" vector-effect="non-scaling-stroke"/>
    <polygon points="295.0,534.0 295.0,523.0 328.0,534.0 328.0,523.0 295.0,534.0" fill="rgba(171,187,207,1.000)" stroke="rgba(217,229,244,1.000)" stroke-width="0.0" data-name="Polygon505" data-id="775" stroke-linecap="round" stroke-linejoin="round" vector-effect="non-scaling-stroke"/>
    <polygon points="295.0,533.0 295.0,525.0 328.0,533.0 328.0,525.0 295.0,533.0" fill="rgba(171,187,207,1.000)" stroke="rgba(217,229,244,1.000)" stroke-width="0.0" data-name="Polygon506" data-id="776" stroke-linecap="round" stroke-linejoin="round" vector-effect="non-scaling-stroke"/>
    <polygon points="295.0,532.0 295.0,526.0 328.0,532.0 328.0,526.0 295.0,532.0" fill="rgba(221,231,243,1.000)" stroke="rgba(217,229,244,1.000)" stroke-width="0.0" data-name="Polygon507" data-id="777" stroke-linecap="round" stroke-linejoin="round" vector-effect="non-scaling-stroke"/>
    <polygon points="295.0,530.0 295.0,528.0 328.0,530.0 328.0,528.0 295.0,530.0" fill="rgba(221,231,243,1.000)" stroke="rgba(217,229,244,1.000)" stroke-width="0.0" data-name="Polygon508" data-id="778" stroke-linecap="round" stroke-linejoin="round" vector-effect="non-scaling-stroke"/>
    <polyline points="295.0,537.0 295.0,521.0 328.0,537.0 328.0,521.0 295.0,537.0" fill="none" stroke="rgba(26,37,49,1.000)" stroke-width="1.05" data-name="PolyLine198" data-id="779" stroke-linecap="round" stroke-linejoin="round" vector-effect="non-scaling-stroke"/>
  </g>
</svg>
