<?xml version='1.0' encoding='UTF-8'?>
<svg xmlns="http://www.w3.org/2000/svg" viewBox="437.000 573.000 157.000 71.000" width="157.000" height="71.000">
  <style id="modernize-style-v1">
  svg { shape-rendering: geometricPrecision; text-rendering: geometricPrecision; }
  .state-active { filter: drop-shadow(0 0 2px rgba(33,179,111,.65)) drop-shadow(0 0 7px rgba(33,179,111,.35)); }
  .state-warning { filter: drop-shadow(0 0 2px rgba(232,176,65,.62)) drop-shadow(0 0 7px rgba(232,176,65,.32)); }
  .state-fault { filter: drop-shadow(0 0 2px rgba(217,73,73,.66)) drop-shadow(0 0 8px rgba(217,73,73,.34)); }
  .state-critical { filter: drop-shadow(0 0 3px rgba(255,56,56,.72)) drop-shadow(0 0 10px rgba(255,56,56,.40)); }
  .state-idle { filter: none; }
</style><g transform="translate(-46.000,-121.000)"><rect x="485" y="696" width="153" height="67" fill="rgba(33,179,111,1.000)" stroke="rgba(26,37,49,1.000)" stroke-width="0.0" data-name="Rectangle2" data-id="114" stroke-linecap="round" stroke-linejoin="round" vector-effect="non-scaling-stroke"/>
    <polygon points="524.0,715.0 527.0,715.0 527.0,727.0 524.0,727.0 524.0,715.0" fill="rgba(47,58,73,1.000)" stroke="rgba(217,229,244,1.000)" stroke-width="0.0" data-name="Polygon233" data-id="358" stroke-linecap="round" stroke-linejoin="round" vector-effect="non-scaling-stroke"/>
    <polygon points="497.0,737.0 497.0,734.0 518.0,734.0 518.0,737.0 497.0,737.0" fill="rgba(47,58,73,1.000)" stroke="rgba(217,229,244,1.000)" stroke-width="0.0" data-name="Polygon234" data-id="359" stroke-linecap="round" stroke-linejoin="round" vector-effect="non-scaling-stroke"/>
    <polygon points="556.0,734.0 556.0,718.0 559.0,718.0 559.0,734.0 556.0,734.0" fill="rgba(47,58,73,1.000)" stroke="rgba(217,229,244,1.000)" stroke-width="0.0" data-name="Polygon235" data-id="360" stroke-linecap="round" stroke-linejoin="round" vector-effect="non-scaling-stroke"/>
    <polygon points="489.0,749.0 629.0,749.0 629.0,758.0 489.0,758.0 489.0,749.0" fill="rgba(171,187,207,1.000)" stroke="rgba(26,37,49,1.000)" stroke-width="1.05" data-name="Polygon236" data-id="361" stroke-linecap="round" stroke-linejoin="round" vector-effect="non-scaling-stroke"/>
    <polygon points="559.0,715.0 578.0,715.0 579.0,711.0 585.0,711.0 587.0,715.0 585.0,715.0 584.0,712.0 580.0,712.0 579.0,715.0 588.0,715.0 588.0,709.0 617.0,709.0 617.0,723.0 625.0,723.0 625.0,712.0 629.0,712.0 629.0,740.0 625.0,740.0 625.0,729.0 617.0,729.0 617.0,743.0 588.0,743.0 588.0,737.0 559.0,737.0 559.0,715.0" fill="rgba(96,113,134,1.000)" stroke="rgba(217,229,244,1.000)" stroke-width="0.0" data-name="Polygon237" data-id="362" stroke-linecap="round" stroke-linejoin="round" vector-effect="non-scaling-stroke"/>
    <polygon points="559.0,717.0 588.0,717.0 588.0,712.0 617.0,712.0 617.0,723.0 625.0,723.0 625.0,715.0 629.0,715.0 629.0,737.0 625.0,737.0 625.0,728.0 617.0,728.0 617.0,739.0 588.0,739.0 588.0,735.0 559.0,735.0 559.0,717.0" fill="rgba(127,146,169,1.000)" stroke="rgba(217,229,244,1.000)" stroke-width="0.0" data-name="Polygon238" data-id="363" stroke-linecap="round" stroke-linejoin="round" vector-effect="non-scaling-stroke"/>
    <polygon points="559.0,719.0 588.0,719.0 588.0,716.0 617.0,716.0 617.0,724.0 625.0,724.0 625.0,717.0 629.0,717.0 629.0,734.0 625.0,734.0 625.0,728.0 617.0,728.0 617.0,736.0 608.0,736.0 608.0,749.0 597.0,749.0 597.0,736.0 588.0,736.0 588.0,732.0 559.0,732.0 559.0,719.0" fill="rgba(171,187,207,1.000)" stroke="rgba(217,229,244,1.000)" stroke-width="0.0" data-name="Polygon239" data-id="364" stroke-linecap="round" stroke-linejoin="round" vector-effect="non-scaling-stroke"/>
    <polygon points="559.0,721.0 588.0,721.0 588.0,719.0 617.0,719.0 617.0,725.0 625.0,725.0 625.0,720.0 629.0,720.0 629.0,732.0 625.0,732.0 625.0,727.0 617.0,727.0 617.0,733.0 588.0,733.0 588.0,730.0 584.0,730.0 584.0,740.0 586.0,740.0 586.0,744.0 561.0,744.0 561.0,740.0 563.0,740.0 563.0,730.0 559.0,730.0 559.0,721.0" fill="rgba(171,187,207,1.000)" stroke="rgba(217,229,244,1.000)" stroke-width="0.0" data-name="Polygon240" data-id="365" stroke-linecap="round" stroke-linejoin="round" vector-effect="non-scaling-stroke"/>
    <polygon points="559.0,723.0 588.0,723.0 588.0,722.0 617.0,722.0 617.0,725.0 625.0,725.0 625.0,723.0 629.0,723.0 629.0,729.0 625.0,729.0 625.0,727.0 617.0,727.0 617.0,730.0 588.0,730.0 588.0,728.0 559.0,728.0 559.0,723.0" fill="rgba(221,231,243,1.000)" stroke="rgba(217,229,244,1.000)" stroke-width="0.0" data-name="Polygon241" data-id="366" stroke-linecap="round" stroke-linejoin="round" vector-effect="non-scaling-stroke"/>
    <polyline points="559.0,715.0 578.0,715.0 579.0,711.0 585.0,711.0 587.0,715.0 588.0,715.0 588.0,709.0 617.0,709.0 617.0,723.0 625.0,723.0 625.0,712.0 629.0,712.0 629.0,740.0 625.0,740.0 625.0,729.0 617.0,729.0 617.0,743.0 608.0,743.0 608.0,749.0 597.0,749.0 597.0,743.0 588.0,743.0 588.0,737.0 584.0,737.0 584.0,740.0 586.0,740.0 586.0,744.0 561.0,744.0 561.0,740.0 563.0,740.0 563.0,737.0 559.0,737.0 559.0,715.0" fill="none" stroke="rgba(26,37,49,1.000)" stroke-width="1.05" data-name="PolyLine87" data-id="367" stroke-linecap="round" stroke-linejoin="round" vector-effect="non-scaling-stroke"/>
    <polygon points="568.0,749.0 568.0,740.0 570.0,740.0 570.0,749.0 568.0,749.0" fill="rgba(221,231,243,1.000)" stroke="rgba(26,37,49,1.000)" stroke-width="1.05" data-name="Polygon242" data-id="368" stroke-linecap="round" stroke-linejoin="round" vector-effect="non-scaling-stroke"/>
    <polygon points="563.0,741.0 565.0,741.0 565.0,743.0 563.0,743.0 563.0,741.0" fill="rgba(47,58,73,1.000)" stroke="rgba(217,229,244,1.000)" stroke-width="0.0" data-name="Polygon243" data-id="369" stroke-linecap="round" stroke-linejoin="round" vector-effect="non-scaling-stroke"/>
    <polygon points="582.0,741.0 584.0,741.0 584.0,743.0 582.0,743.0 582.0,741.0" fill="rgba(47,58,73,1.000)" stroke="rgba(217,229,244,1.000)" stroke-width="0.0" data-name="Polygon244" data-id="370" stroke-linecap="round" stroke-linejoin="round" vector-effect="non-scaling-stroke"/>
    <polygon points="573.0,741.0 574.0,741.0 574.0,743.0 573.0,743.0 573.0,741.0" fill="rgba(47,58,73,1.000)" stroke="rgba(217,229,244,1.000)" stroke-width="0.0" data-name="Polygon245" data-id="371" stroke-linecap="round" stroke-linejoin="round" vector-effect="non-scaling-stroke"/>
    <polygon points="568.0,741.0 570.0,741.0 570.0,743.0 568.0,743.0 568.0,741.0" fill="rgba(127,146,169,1.000)" stroke="rgba(217,229,244,1.000)" stroke-width="0.0" data-name="Polygon246" data-id="372" stroke-linecap="round" stroke-linejoin="round" vector-effect="non-scaling-stroke"/>
    <polyline points="579.0,715.0 580.0,712.0 584.0,712.0 585.0,715.0 579.0,715.0" fill="none" stroke="rgba(26,37,49,1.000)" stroke-width="1.05" data-name="PolyLine88" data-id="373" stroke-linecap="round" stroke-linejoin="round" vector-effect="non-scaling-stroke"/>
    <polygon points="620.0,699.0 620.0,702.0 611.0,702.0 611.0,709.0 606.0,709.0 606.0,702.0 597.0,702.0 597.0,699.0 620.0,699.0" fill="rgba(96,113,134,1.000)" stroke="rgba(217,229,244,1.000)" stroke-width="0.0" data-name="Polygon247" data-id="374" stroke-linecap="round" stroke-linejoin="round" vector-effect="non-scaling-stroke"/>
    <polygon points="618.0,699.0 618.0,702.0 611.0,702.0 611.0,709.0 606.0,709.0 606.0,702.0 599.0,702.0 599.0,699.0 618.0,699.0" fill="rgba(127,146,169,1.000)" stroke="rgba(217,229,244,1.000)" stroke-width="0.0" data-name="Polygon248" data-id="375" stroke-linecap="round" stroke-linejoin="round" vector-effect="non-scaling-stroke"/>
    <polygon points="616.0,699.0 616.0,702.0 610.0,702.0 610.0,709.0 607.0,709.0 607.0,702.0 601.0,702.0 601.0,699.0 616.0,699.0" fill="rgba(171,187,207,1.000)" stroke="rgba(217,229,244,1.000)" stroke-width="0.0" data-name="Polygon249" data-id="376" stroke-linecap="round" stroke-linejoin="round" vector-effect="non-scaling-stroke"/>
    <polygon points="613.0,699.0 613.0,702.0 610.0,702.0 610.0,709.0 607.0,709.0 607.0,702.0 604.0,702.0 604.0,699.0 613.0,699.0" fill="rgba(171,187,207,1.000)" stroke="rgba(217,229,244,1.000)" stroke-width="0.0" data-name="Polygon250" data-id="377" stroke-linecap="round" stroke-linejoin="round" vector-effect="non-scaling-stroke"/>
    <polygon points="611.0,699.0 611.0,702.0 609.0,702.0 609.0,709.0 608.0,709.0 608.0,702.0 606.0,702.0 606.0,699.0 611.0,699.0" fill="rgba(221,231,243,1.000)" stroke="rgba(217,229,244,1.000)" stroke-width="0.0" data-name="Polygon251" data-id="378" stroke-linecap="round" stroke-linejoin="round" vector-effect="non-scaling-stroke"/>
    <polyline points="620.0,699.0 620.0,702.0 611.0,702.0 611.0,709.0 606.0,709.0 606.0,702.0 597.0,702.0 597.0,699.0 620.0,699.0" fill="none" stroke="rgba(26,37,49,1.000)" stroke-width="1.05" data-name="PolyLine89" data-id="379" stroke-linecap="round" stroke-linejoin="round" vector-effect="non-scaling-stroke"/>
    <polyline points="588.0,737.0 588.0,715.0" fill="none" stroke="rgba(26,37,49,1.000)" stroke-width="1.05" data-name="PolyLine90" data-id="380" stroke-linecap="round" stroke-linejoin="round" vector-effect="non-scaling-stroke"/>
    <polyline points="617.0,729.0 617.0,723.0" fill="none" stroke="rgba(26,37,49,1.000)" stroke-width="1.05" data-name="PolyLine91" data-id="381" stroke-linecap="round" stroke-linejoin="round" vector-effect="non-scaling-stroke"/>
    <polyline points="625.0,729.0 625.0,723.0" fill="none" stroke="rgba(26,37,49,1.000)" stroke-width="1.05" data-name="PolyLine92" data-id="382" stroke-linecap="round" stroke-linejoin="round" vector-effect="non-scaling-stroke"/>
    <polyline points="606.0,702.0 611.0,702.0" fill="none" stroke="rgba(26,37,49,1.000)" stroke-width="1.05" data-name="PolyLine93" data-id="383" stroke-linecap="round" stroke-linejoin="round" vector-effect="non-scaling-stroke"/>
    <polyline points="568.0,747.0 570.0,747.0" fill="none" stroke="rgba(26,37,49,1.000)" stroke-width="1.05" data-name="PolyLine94" data-id="384" stroke-linecap="round" stroke-linejoin="round" vector-effect="non-scaling-stroke"/>
    <polyline points="597.0,747.0 608.0,747.0" fill="none" stroke="rgba(26,37,49,1.000)" stroke-width="1.05" data-name="PolyLine95" data-id="385" stroke-linecap="round" stroke-linejoin="round" vector-effect="non-scaling-stroke"/>
    <polygon points="603.0,718.0 603.0,712.0 613.0,712.0 613.0,718.0 603.0,718.0" fill="rgba(171,187,207,1.000)" stroke="rgba(26,37,49,1.000)" stroke-width="1.05" data-name="Polygon252" data-id="386" stroke-linecap="round" stroke-linejoin="round" vector-effect="non-scaling-stroke"/>
    <polygon points="589.0,724.0 589.0,718.0 592.0,718.0 592.0,724.0 589.0,724.0" fill="rgba(171,187,207,1.000)" stroke="rgba(26,37,49,1.000)" stroke-width="1.05" data-name="Polygon253" data-id="387" stroke-linecap="round" stroke-linejoin="round" vector-effect="non-scaling-stroke"/>
    <polyline points="594.0,743.0 594.0,731.0" fill="none" stroke="rgba(76,92,112,1.000)" stroke-width="1.05" data-name="PolyLine96" data-id="388" stroke-linecap="round" stroke-linejoin="round" vector-effect="non-scaling-stroke"/>
    <polyline points="594.0,721.0 594.0,709.0" fill="none" stroke="rgba(76,92,112,1.000)" stroke-width="1.05" data-name="PolyLine97" data-id="389" stroke-linecap="round" stroke-linejoin="round" vector-effect="non-scaling-stroke"/>
    <polygon points="601.0,746.0 604.0,746.0 604.0,747.0 601.0,747.0 601.0,746.0" fill="rgba(96,113,134,1.000)" stroke="rgba(217,229,244,1.000)" stroke-width="0.0" data-name="Polygon254" data-id="390" stroke-linecap="round" stroke-linejoin="round" vector-effect="non-scaling-stroke"/>
    <polygon points="527.0,749.0 527.0,712.0 556.0,712.0 556.0,749.0 527.0,749.0" fill="rgba(171,187,207,1.000)" stroke="rgba(217,229,244,1.000)" stroke-width="0.0" data-name="Polygon255" data-id="391" stroke-linecap="round" stroke-linejoin="round" vector-effect="non-scaling-stroke"/>
    <polygon points="527.0,731.0 527.0,712.0 556.0,712.0 556.0,731.0 527.0,731.0" fill="rgba(171,187,207,1.000)" stroke="rgba(217,229,244,1.000)" stroke-width="0.0" data-name="Polygon256" data-id="392" stroke-linecap="round" stroke-linejoin="round" vector-effect="non-scaling-stroke"/>
    <polygon points="527.0,722.0 527.0,712.0 556.0,712.0 556.0,722.0 527.0,722.0" fill="rgba(171,187,207,1.000)" stroke="rgba(217,229,244,1.000)" stroke-width="0.0" data-name="Polygon257" data-id="393" stroke-linecap="round" stroke-linejoin="round" vector-effect="non-scaling-stroke"/>
    <polygon points="527.0,718.0 527.0,715.0 556.0,715.0 556.0,718.0 527.0,718.0" fill="rgba(221,231,243,1.000)" stroke="rgba(217,229,244,1.000)" stroke-width="0.0" data-name="Polygon258" data-id="394" stroke-linecap="round" stroke-linejoin="round" vector-effect="non-scaling-stroke"/>
    <polyline points="527.0,749.0 527.0,712.0 556.0,712.0 556.0,749.0 527.0,749.0" fill="none" stroke="rgba(26,37,49,1.000)" stroke-width="1.05" data-name="PolyLine98" data-id="395" stroke-linecap="round" stroke-linejoin="round" vector-effect="non-scaling-stroke"/>
    <polygon points="521.0,734.0 494.0,734.0 489.0,732.0 489.0,711.0 494.0,709.0 521.0,709.0 521.0,711.0 524.0,714.0 524.0,729.0 521.0,731.0 521.0,734.0" fill="rgba(96,113,134,1.000)" stroke="rgba(217,229,244,1.000)" stroke-width="0.0" data-name="Polygon259" data-id="396" stroke-linecap="round" stroke-linejoin="round" vector-effect="non-scaling-stroke"/>
    <polygon points="521.0,731.0 494.0,731.0 489.0,730.0 489.0,713.0 494.0,712.0 521.0,712.0 521.0,713.0 524.0,715.0 524.0,727.0 521.0,729.0 521.0,731.0" fill="rgba(127,146,169,1.000)" stroke="rgba(217,229,244,1.000)" stroke-width="0.0" data-name="Polygon260" data-id="397" stroke-linecap="round" stroke-linejoin="round" vector-effect="non-scaling-stroke"/>
    <polygon points="521.0,729.0 494.0,729.0 489.0,728.0 489.0,715.0 494.0,714.0 521.0,714.0 521.0,715.0 524.0,717.0 524.0,726.0 521.0,727.0 521.0,729.0" fill="rgba(171,187,207,1.000)" stroke="rgba(217,229,244,1.000)" stroke-width="0.0" data-name="Polygon261" data-id="398" stroke-linecap="round" stroke-linejoin="round" vector-effect="non-scaling-stroke"/>
    <polygon points="521.0,726.0 494.0,726.0 489.0,726.0 489.0,717.0 494.0,717.0 521.0,717.0 524.0,718.0 524.0,724.0 521.0,725.0 521.0,726.0" fill="rgba(171,187,207,1.000)" stroke="rgba(217,229,244,1.000)" stroke-width="0.0" data-name="Polygon262" data-id="399" stroke-linecap="round" stroke-linejoin="round" vector-effect="non-scaling-stroke"/>
    <polygon points="521.0,724.0 494.0,724.0 489.0,723.0 489.0,719.0 494.0,719.0 521.0,719.0 521.0,720.0 524.0,720.0 524.0,723.0 521.0,723.0 521.0,724.0" fill="rgba(221,231,243,1.000)" stroke="rgba(217,229,244,1.000)" stroke-width="0.0" data-name="Polygon263" data-id="400" stroke-linecap="round" stroke-linejoin="round" vector-effect="non-scaling-stroke"/>
    <polyline points="521.0,734.0 494.0,734.0 489.0,732.0 489.0,711.0 494.0,709.0 521.0,709.0 521.0,711.0 524.0,714.0 524.0,729.0 521.0,731.0 521.0,734.0" fill="none" stroke="rgba(26,37,49,1.000)" stroke-width="1.05" data-name="PolyLine99" data-id="401" stroke-linecap="round" stroke-linejoin="round" vector-effect="non-scaling-stroke"/>
    <polygon points="497.0,749.0 497.0,737.0 518.0,737.0 518.0,749.0 497.0,749.0" fill="rgba(171,187,207,1.000)" stroke="rgba(26,37,49,1.000)" stroke-width="1.05" data-name="Polygon264" data-id="402" stroke-linecap="round" stroke-linejoin="round" vector-effect="non-scaling-stroke"/>
    <polygon points="499.0,737.0 499.0,724.0 509.0,724.0 509.0,737.0 499.0,737.0" fill="rgba(171,187,207,1.000)" stroke="rgba(26,37,49,1.000)" stroke-width="1.05" data-name="Polygon265" data-id="403" stroke-linecap="round" stroke-linejoin="round" vector-effect="non-scaling-stroke"/>
    <polyline points="500.0,735.0 500.0,726.0 508.0,726.0" fill="none" stroke="rgba(217,229,244,1.000)" stroke-width="1.05" data-name="PolyLine100" data-id="404" stroke-linecap="round" stroke-linejoin="round" vector-effect="non-scaling-stroke"/>
    <polygon points="499.0,735.0 500.0,735.0 500.0,736.0 499.0,736.0 499.0,735.0" fill="rgba(47,58,73,1.000)" stroke="rgba(217,229,244,1.000)" stroke-width="0.0" data-name="Polygon266" data-id="405" stroke-linecap="round" stroke-linejoin="round" vector-effect="non-scaling-stroke"/>
    <polyline points="508.0,735.0 508.0,736.0 508.0,735.0" fill="none" stroke="rgba(217,229,244,1.000)" stroke-width="1.05" data-name="PolyLine101" data-id="407" stroke-linecap="round" stroke-linejoin="round" vector-effect="non-scaling-stroke"/>
    <polyline points="508.0,725.0 508.0,726.0 508.0,725.0" fill="none" stroke="rgba(217,229,244,1.000)" stroke-width="1.05" data-name="PolyLine102" data-id="409" stroke-linecap="round" stroke-linejoin="round" vector-effect="non-scaling-stroke"/>
    <polygon points="499.0,725.0 500.0,725.0 500.0,726.0 499.0,726.0 499.0,725.0" fill="rgba(47,58,73,1.000)" stroke="rgba(217,229,244,1.000)" stroke-width="0.0" data-name="Polygon267" data-id="410" stroke-linecap="round" stroke-linejoin="round" vector-effect="non-scaling-stroke"/>
    <polyline points="521.0,731.0 521.0,711.0" fill="none" stroke="rgba(26,37,49,1.000)" stroke-width="1.05" data-name="PolyLine103" data-id="411" stroke-linecap="round" stroke-linejoin="round" vector-effect="non-scaling-stroke"/>
    <polygon points="497.0,709.0 519.0,709.0 519.0,722.0 497.0,722.0 497.0,709.0" fill="rgba(71,85,103,1.000)" stroke="rgba(217,229,244,1.000)" stroke-width="0.0" data-name="Polygon268" data-id="412" stroke-linecap="round" stroke-linejoin="round" vector-effect="non-scaling-stroke"/>
    <polygon points="497.0,718.0 520.0,718.0 520.0,719.0 497.0,719.0 497.0,718.0" fill="rgba(171,187,207,1.000)" stroke="rgba(217,229,244,1.000)" stroke-width="0.0" data-name="Polygon269" data-id="413" stroke-linecap="round" stroke-linejoin="round" vector-effect="non-scaling-stroke"/>
    <polyline points="497.0,721.0 520.0,721.0 497.0,721.0 497.0,721.0" fill="none" stroke="rgba(217,229,244,1.000)" stroke-width="1.05" data-name="PolyLine104" data-id="415" stroke-linecap="round" stroke-linejoin="round" vector-effect="non-scaling-stroke"/>
    <polygon points="497.0,714.0 520.0,714.0 520.0,715.0 497.0,715.0 497.0,714.0" fill="rgba(171,187,207,1.000)" stroke="rgba(217,229,244,1.000)" stroke-width="0.0" data-name="Polygon270" data-id="416" stroke-linecap="round" stroke-linejoin="round" vector-effect="non-scaling-stroke"/>
    <polygon points="497.0,716.0 520.0,716.0 520.0,717.0 497.0,717.0 497.0,716.0" fill="rgba(171,187,207,1.000)" stroke="rgba(217,229,244,1.000)" stroke-width="0.0" data-name="Polygon271" data-id="417" stroke-linecap="round" stroke-linejoin="round" vector-effect="non-scaling-stroke"/>
    <polygon points="497.0,712.0 520.0,712.0 520.0,713.0 497.0,713.0 497.0,712.0" fill="rgba(127,146,169,1.000)" stroke="rgba(217,229,244,1.000)" stroke-width="0.0" data-name="Polygon272" data-id="418" stroke-linecap="round" stroke-linejoin="round" vector-effect="non-scaling-stroke"/>
    <polyline points="497.0,711.0 520.0,711.0 497.0,711.0 497.0,711.0" fill="none" stroke="rgba(217,229,244,1.000)" stroke-width="1.05" data-name="PolyLine105" data-id="420" stroke-linecap="round" stroke-linejoin="round" vector-effect="non-scaling-stroke"/>
    <polygon points="497.0,709.0 520.0,709.0 520.0,710.0 497.0,710.0 497.0,709.0" fill="rgba(127,146,169,1.000)" stroke="rgba(217,229,244,1.000)" stroke-width="0.0" data-name="Polygon273" data-id="421" stroke-linecap="round" stroke-linejoin="round" vector-effect="non-scaling-stroke"/>
    </g>
</svg>
