<?xml version='1.0' encoding='UTF-8'?>
<svg xmlns="http://www.w3.org/2000/svg" viewBox="278.000 400.000 167.000 196.000" width="167.000" height="196.000">
  <style id="modernize-style-v1">
  svg { shape-rendering: geometricPrecision; text-rendering: geometricPrecision; }
  .state-active { filter: drop-shadow(0 0 2px rgba(33,179,111,.65)) drop-shadow(0 0 7px rgba(33,179,111,.35)); }
  .state-warning { filter: drop-shadow(0 0 2px rgba(232,176,65,.62)) drop-shadow(0 0 7px rgba(232,176,65,.32)); }
  .state-fault { filter: drop-shadow(0 0 2px rgba(217,73,73,.66)) drop-shadow(0 0 8px rgba(217,73,73,.34)); }
  .state-critical { filter: drop-shadow(0 0 3px rgba(255,56,56,.72)) drop-shadow(0 0 10px rgba(255,56,56,.40)); }
  .state-idle { filter: none; }
</style><g transform="translate(-46.000,-121.000)"><polygon points="406.0,543.0 406.0,715.0 395.0,715.0 395.0,543.0 406.0,543.0" fill="rgba(96,113,134,1.000)" stroke="rgba(26,37,49,1.000)" stroke-width="0.0" data-name="Polygon148" data-id="239" stroke-linecap="round" stroke-linejoin="round" vector-effect="non-scaling-stroke"/>
    <polygon points="405.0,543.0 405.0,715.0 396.0,715.0 396.0,543.0 405.0,543.0" fill="rgba(127,146,169,1.000)" stroke="rgba(26,37,49,1.000)" stroke-width="0.0" data-name="Polygon149" data-id="240" stroke-linecap="round" stroke-linejoin="round" vector-effect="non-scaling-stroke"/>
    <polygon points="404.0,543.0 404.0,715.0 398.0,715.0 398.0,543.0 404.0,543.0" fill="rgba(171,187,207,1.000)" stroke="rgba(26,37,49,1.000)" stroke-width="0.0" data-name="Polygon150" data-id="241" stroke-linecap="round" stroke-linejoin="round" vector-effect="non-scaling-stroke"/>
    <polygon points="403.0,543.0 403.0,715.0 399.0,715.0 399.0,543.0 403.0,543.0" fill="rgba(171,187,207,1.000)" stroke="rgba(26,37,49,1.000)" stroke-width="0.0" data-name="Polygon151" data-id="242" stroke-linecap="round" stroke-linejoin="round" vector-effect="non-scaling-stroke"/>
    <polygon points="403.0,543.0 403.0,715.0 399.0,715.0 399.0,543.0 403.0,543.0" fill="rgba(221,231,243,1.000)" stroke="rgba(26,37,49,1.000)" stroke-width="0.0" data-name="Polygon152" data-id="243" stroke-linecap="round" stroke-linejoin="round" vector-effect="non-scaling-stroke"/>
    <polygon points="401.0,543.0 401.0,715.0 400.0,715.0 400.0,543.0 401.0,543.0" fill="rgba(221,231,243,1.000)" stroke="rgba(26,37,49,1.000)" stroke-width="0.0" data-name="Polygon153" data-id="244" stroke-linecap="round" stroke-linejoin="round" vector-effect="non-scaling-stroke"/>
    <polyline points="395.0,543.0 395.0,715.0" fill="none" stroke="rgba(26,37,49,1.000)" stroke-width="1.05" data-name="PolyLine58" data-id="245" stroke-linecap="round" stroke-linejoin="round" vector-effect="non-scaling-stroke"/>
    <polyline points="406.0,715.0 406.0,543.0" fill="none" stroke="rgba(26,37,49,1.000)" stroke-width="1.05" data-name="PolyLine59" data-id="246" stroke-linecap="round" stroke-linejoin="round" vector-effect="non-scaling-stroke"/>
    <polygon points="413.0,536.0 389.0,536.0 389.0,523.0 413.0,523.0 413.0,536.0" fill="rgba(96,113,134,1.000)" stroke="rgba(217,229,244,1.000)" stroke-width="0.0" data-name="Polygon154" data-id="247" stroke-linecap="round" stroke-linejoin="round" vector-effect="non-scaling-stroke"/>
    <polygon points="413.0,535.0 389.0,535.0 389.0,524.0 413.0,524.0 413.0,535.0" fill="rgba(127,146,169,1.000)" stroke="rgba(217,229,244,1.000)" stroke-width="0.0" data-name="Polygon155" data-id="248" stroke-linecap="round" stroke-linejoin="round" vector-effect="non-scaling-stroke"/>
    <polygon points="413.0,533.0 389.0,533.0 389.0,525.0 413.0,525.0 413.0,533.0" fill="rgba(171,187,207,1.000)" stroke="rgba(217,229,244,1.000)" stroke-width="0.0" data-name="Polygon156" data-id="249" stroke-linecap="round" stroke-linejoin="round" vector-effect="non-scaling-stroke"/>
    <polygon points="413.0,532.0 389.0,532.0 389.0,527.0 413.0,527.0 413.0,532.0" fill="rgba(171,187,207,1.000)" stroke="rgba(217,229,244,1.000)" stroke-width="0.0" data-name="Polygon157" data-id="250" stroke-linecap="round" stroke-linejoin="round" vector-effect="non-scaling-stroke"/>
    <polygon points="413.0,531.0 389.0,531.0 389.0,527.0 413.0,527.0 413.0,531.0" fill="rgba(221,231,243,1.000)" stroke="rgba(217,229,244,1.000)" stroke-width="0.0" data-name="Polygon158" data-id="251" stroke-linecap="round" stroke-linejoin="round" vector-effect="non-scaling-stroke"/>
    <polygon points="413.0,529.0 389.0,529.0 389.0,528.0 413.0,528.0 413.0,529.0" fill="rgba(221,231,243,1.000)" stroke="rgba(217,229,244,1.000)" stroke-width="0.0" data-name="Polygon159" data-id="252" stroke-linecap="round" stroke-linejoin="round" vector-effect="non-scaling-stroke"/>
    <polyline points="413.0,523.0 389.0,523.0" fill="none" stroke="rgba(26,37,49,1.000)" stroke-width="1.05" data-name="PolyLine60" data-id="253" stroke-linecap="round" stroke-linejoin="round" vector-effect="non-scaling-stroke"/>
    <polyline points="389.0,536.0 413.0,536.0" fill="none" stroke="rgba(26,37,49,1.000)" stroke-width="1.05" data-name="PolyLine61" data-id="254" stroke-linecap="round" stroke-linejoin="round" vector-effect="non-scaling-stroke"/>
    <polygon points="406.0,537.0 406.0,548.0 395.0,548.0 395.0,537.0 395.0,534.0 395.0,533.0 396.0,532.0 396.0,530.0 398.0,530.0 399.0,529.0 400.0,529.0 401.0,529.0 403.0,529.0 404.0,530.0 405.0,530.0 405.0,532.0 406.0,533.0 406.0,534.0 406.0,537.0" fill="rgba(96,113,134,1.000)" stroke="rgba(217,229,244,1.000)" stroke-width="0.0" data-name="Polygon160" data-id="255" stroke-linecap="round" stroke-linejoin="round" vector-effect="non-scaling-stroke"/>
    <polygon points="406.0,532.0 405.0,532.0 405.0,530.0 404.0,530.0 404.0,529.0 403.0,529.0 401.0,529.0 400.0,529.0 399.0,529.0 398.0,529.0 398.0,530.0 396.0,530.0 396.0,532.0 395.0,532.0 395.0,548.0 406.0,548.0 406.0,532.0" fill="rgba(127,146,169,1.000)" stroke="rgba(217,229,244,1.000)" stroke-width="0.0" data-name="Polygon161" data-id="256" stroke-linecap="round" stroke-linejoin="round" vector-effect="non-scaling-stroke"/>
    <polygon points="405.0,530.0 404.0,530.0 404.0,529.0 402.0,529.0 401.0,529.0 400.0,529.0 399.0,529.0 397.0,529.0 397.0,530.0 396.0,530.0 396.0,548.0 405.0,548.0 405.0,530.0" fill="rgba(171,187,207,1.000)" stroke="rgba(217,229,244,1.000)" stroke-width="0.0" data-name="Polygon162" data-id="257" stroke-linecap="round" stroke-linejoin="round" vector-effect="non-scaling-stroke"/>
    <polygon points="404.0,529.0 403.0,529.0 402.0,529.0 401.0,529.0 399.0,529.0 398.0,529.0 398.0,548.0 404.0,548.0 404.0,529.0" fill="rgba(171,187,207,1.000)" stroke="rgba(217,229,244,1.000)" stroke-width="0.0" data-name="Polygon163" data-id="258" stroke-linecap="round" stroke-linejoin="round" vector-effect="non-scaling-stroke"/>
    <polygon points="403.0,529.0 402.0,529.0 400.0,529.0 399.0,529.0 399.0,548.0 403.0,548.0 403.0,529.0" fill="rgba(221,231,243,1.000)" stroke="rgba(217,229,244,1.000)" stroke-width="0.0" data-name="Polygon164" data-id="259" stroke-linecap="round" stroke-linejoin="round" vector-effect="non-scaling-stroke"/>
    <polygon points="401.0,529.0 400.0,529.0 400.0,548.0 401.0,548.0 401.0,529.0" fill="rgba(221,231,243,1.000)" stroke="rgba(217,229,244,1.000)" stroke-width="0.0" data-name="Polygon165" data-id="260" stroke-linecap="round" stroke-linejoin="round" vector-effect="non-scaling-stroke"/>
    <polyline points="395.0,548.0 395.0,537.0 395.0,534.0 395.0,533.0 396.0,532.0 396.0,530.0 398.0,530.0 399.0,529.0 400.0,529.0 401.0,529.0 403.0,529.0 404.0,530.0 405.0,530.0 405.0,532.0 406.0,533.0 406.0,534.0 406.0,537.0 406.0,548.0" fill="none" stroke="rgba(26,37,49,1.000)" stroke-width="1.05" data-name="PolyLine62" data-id="261" stroke-linecap="round" stroke-linejoin="round" vector-effect="non-scaling-stroke"/>
    <polygon points="326.0,523.0 489.0,523.0 489.0,535.0 326.0,535.0 326.0,523.0" fill="rgba(96,113,134,1.000)" stroke="rgba(26,37,49,1.000)" stroke-width="0.0" data-name="Polygon459" data-id="710" stroke-linecap="round" stroke-linejoin="round" vector-effect="non-scaling-stroke"/>
    <polygon points="326.0,523.0 489.0,523.0 489.0,535.0 326.0,535.0 326.0,523.0" fill="rgba(127,146,169,1.000)" stroke="rgba(26,37,49,1.000)" stroke-width="0.0" data-name="Polygon460" data-id="711" stroke-linecap="round" stroke-linejoin="round" vector-effect="non-scaling-stroke"/>
    <polygon points="326.0,524.0 489.0,524.0 489.0,533.0 326.0,533.0 326.0,524.0" fill="rgba(171,187,207,1.000)" stroke="rgba(26,37,49,1.000)" stroke-width="0.0" data-name="Polygon461" data-id="712" stroke-linecap="round" stroke-linejoin="round" vector-effect="non-scaling-stroke"/>
    <polygon points="326.0,525.0 489.0,525.0 489.0,533.0 326.0,533.0 326.0,525.0" fill="rgba(171,187,207,1.000)" stroke="rgba(26,37,49,1.000)" stroke-width="0.0" data-name="Polygon462" data-id="713" stroke-linecap="round" stroke-linejoin="round" vector-effect="non-scaling-stroke"/>
    <polygon points="326.0,527.0 489.0,527.0 489.0,531.0 326.0,531.0 326.0,527.0" fill="rgba(221,231,243,1.000)" stroke="rgba(26,37,49,1.000)" stroke-width="0.0" data-name="Polygon463" data-id="714" stroke-linecap="round" stroke-linejoin="round" vector-effect="non-scaling-stroke"/>
    <polygon points="326.0,528.0 489.0,528.0 489.0,529.0 326.0,529.0 326.0,528.0" fill="rgba(221,231,243,1.000)" stroke="rgba(26,37,49,1.000)" stroke-width="0.0" data-name="Polygon464" data-id="715" stroke-linecap="round" stroke-linejoin="round" vector-effect="non-scaling-stroke"/>
    <polyline points="326.0,535.0 489.0,535.0" fill="none" stroke="rgba(26,37,49,1.000)" stroke-width="1.05" data-name="PolyLine179" data-id="716" stroke-linecap="round" stroke-linejoin="round" vector-effect="non-scaling-stroke"/>
    <polyline points="489.0,523.0 326.0,523.0" fill="none" stroke="rgba(26,37,49,1.000)" stroke-width="1.05" data-name="PolyLine180" data-id="717" stroke-linecap="round" stroke-linejoin="round" vector-effect="non-scaling-stroke"/>
    </g>
</svg>
