<?xml version='1.0' encoding='UTF-8'?>
<svg xmlns="http://www.w3.org/2000/svg" viewBox="373.000 588.000 42.000 28.000" width="42.000" height="28.000">
  <style id="modernize-style-v1">
  svg { shape-rendering: geometricPrecision; text-rendering: geometricPrecision; }
  .state-active { filter: drop-shadow(0 0 2px rgba(33,179,111,.65)) drop-shadow(0 0 7px rgba(33,179,111,.35)); }
  .state-warning { filter: drop-shadow(0 0 2px rgba(232,176,65,.62)) drop-shadow(0 0 7px rgba(232,176,65,.32)); }
  .state-fault { filter: drop-shadow(0 0 2px rgba(217,73,73,.66)) drop-shadow(0 0 8px rgba(217,73,73,.34)); }
  .state-critical { filter: drop-shadow(0 0 3px rgba(255,56,56,.72)) drop-shadow(0 0 10px rgba(255,56,56,.40)); }
  .state-idle { filter: none; }
</style><g transform="translate(-46.000,-121.000)"><polygon points="421.0,723.0 452.0,723.0 452.0,735.0 421.0,735.0 421.0,723.0" fill="rgba(96,113,134,1.000)" stroke="rgba(26,37,49,1.000)" stroke-width="0.0" data-name="Polygon298" data-id="454" stroke-linecap="round" stroke-linejoin="round" vector-effect="non-scaling-stroke"/>
    <polygon points="421.0,723.0 452.0,723.0 452.0,735.0 421.0,735.0 421.0,723.0" fill="rgba(127,146,169,1.000)" stroke="rgba(26,37,49,1.000)" stroke-width="0.0" data-name="Polygon299" data-id="455" stroke-linecap="round" stroke-linejoin="round" vector-effect="non-scaling-stroke"/>
    <polygon points="421.0,724.0 452.0,724.0 452.0,733.0 421.0,733.0 421.0,724.0" fill="rgba(171,187,207,1.000)" stroke="rgba(26,37,49,1.000)" stroke-width="0.0" data-name="Polygon300" data-id="456" stroke-linecap="round" stroke-linejoin="round" vector-effect="non-scaling-stroke"/>
    <polygon points="421.0,725.0 452.0,725.0 452.0,733.0 421.0,733.0 421.0,725.0" fill="rgba(171,187,207,1.000)" stroke="rgba(26,37,49,1.000)" stroke-width="0.0" data-name="Polygon301" data-id="457" stroke-linecap="round" stroke-linejoin="round" vector-effect="non-scaling-stroke"/>
    <polygon points="421.0,727.0 452.0,727.0 452.0,731.0 421.0,731.0 421.0,727.0" fill="rgba(221,231,243,1.000)" stroke="rgba(26,37,49,1.000)" stroke-width="0.0" data-name="Polygon302" data-id="458" stroke-linecap="round" stroke-linejoin="round" vector-effect="non-scaling-stroke"/>
    <polygon points="421.0,728.0 452.0,728.0 452.0,729.0 421.0,729.0 421.0,728.0" fill="rgba(221,231,243,1.000)" stroke="rgba(26,37,49,1.000)" stroke-width="0.0" data-name="Polygon303" data-id="459" stroke-linecap="round" stroke-linejoin="round" vector-effect="non-scaling-stroke"/>
    <polyline points="421.0,735.0 452.0,735.0" fill="none" stroke="rgba(26,37,49,1.000)" stroke-width="1.05" data-name="PolyLine114" data-id="460" stroke-linecap="round" stroke-linejoin="round" vector-effect="non-scaling-stroke"/>
    <polyline points="452.0,723.0 421.0,723.0" fill="none" stroke="rgba(26,37,49,1.000)" stroke-width="1.05" data-name="PolyLine115" data-id="461" stroke-linecap="round" stroke-linejoin="round" vector-effect="non-scaling-stroke"/>
    <polygon points="459.0,720.0 459.0,711.0 447.0,711.0 447.0,720.0 447.0,722.0 447.0,723.0 446.0,723.0 445.0,723.0 436.0,723.0 436.0,735.0 445.0,735.0 447.0,735.0 449.0,735.0 450.0,734.0 451.0,734.0 452.0,734.0 454.0,734.0 455.0,731.0 456.0,730.0 456.0,728.0 457.0,727.0 457.0,726.0 459.0,724.0 459.0,723.0 459.0,720.0" fill="rgba(96,113,134,1.000)" stroke="rgba(217,229,244,1.000)" stroke-width="0.0" data-name="Polygon310" data-id="470" stroke-linecap="round" stroke-linejoin="round" vector-effect="non-scaling-stroke"/>
    <polygon points="445.0,734.0 446.0,734.0 447.0,734.0 449.0,734.0 450.0,734.0 451.0,734.0 452.0,734.0 454.0,731.0 454.0,730.0 455.0,730.0 456.0,728.0 456.0,727.0 457.0,726.0 457.0,724.0 457.0,722.0 457.0,720.0 457.0,711.0 449.0,711.0 449.0,720.0 449.0,722.0 447.0,722.0 447.0,723.0 446.0,723.0 446.0,724.0 445.0,724.0 436.0,724.0 436.0,734.0 445.0,734.0" fill="rgba(127,146,169,1.000)" stroke="rgba(217,229,244,1.000)" stroke-width="0.0" data-name="Polygon311" data-id="471" stroke-linecap="round" stroke-linejoin="round" vector-effect="non-scaling-stroke"/>
    <polygon points="445.0,734.0 436.0,734.0 436.0,726.0 445.0,726.0 446.0,724.0 447.0,724.0 449.0,724.0 449.0,723.0 449.0,722.0 449.0,720.0 449.0,711.0 456.0,711.0 456.0,720.0 456.0,722.0 456.0,723.0 456.0,724.0 456.0,726.0 455.0,727.0 455.0,728.0 454.0,728.0 454.0,730.0 452.0,730.0 452.0,731.0 451.0,731.0 450.0,734.0 449.0,734.0 447.0,734.0 446.0,734.0 445.0,734.0" fill="rgba(171,187,207,1.000)" stroke="rgba(217,229,244,1.000)" stroke-width="0.0" data-name="Polygon312" data-id="472" stroke-linecap="round" stroke-linejoin="round" vector-effect="non-scaling-stroke"/>
    <polygon points="445.0,734.0 446.0,731.0 447.0,731.0 449.0,731.0 450.0,731.0 451.0,730.0 452.0,730.0 452.0,728.0 454.0,728.0 454.0,727.0 455.0,726.0 455.0,724.0 455.0,723.0 455.0,722.0 456.0,720.0 456.0,711.0 450.0,711.0 450.0,720.0 450.0,722.0 450.0,723.0 450.0,724.0 449.0,724.0 449.0,726.0 447.0,726.0 446.0,726.0 445.0,726.0 436.0,726.0 436.0,734.0 445.0,734.0" fill="rgba(171,187,207,1.000)" stroke="rgba(217,229,244,1.000)" stroke-width="0.0" data-name="Polygon313" data-id="473" stroke-linecap="round" stroke-linejoin="round" vector-effect="non-scaling-stroke"/>
    <polygon points="445.0,731.0 436.0,731.0 436.0,727.0 445.0,727.0 446.0,727.0 447.0,727.0 449.0,726.0 450.0,726.0 450.0,724.0 451.0,723.0 451.0,722.0 451.0,720.0 451.0,711.0 455.0,711.0 455.0,720.0 455.0,722.0 455.0,723.0 454.0,724.0 454.0,726.0 454.0,727.0 452.0,727.0 452.0,728.0 451.0,728.0 451.0,730.0 450.0,730.0 449.0,730.0 447.0,731.0 446.0,731.0 445.0,731.0" fill="rgba(221,231,243,1.000)" stroke="rgba(217,229,244,1.000)" stroke-width="0.0" data-name="Polygon314" data-id="474" stroke-linecap="round" stroke-linejoin="round" vector-effect="non-scaling-stroke"/>
    <polygon points="445.0,730.0 446.0,730.0 447.0,730.0 449.0,730.0 450.0,728.0 451.0,728.0 451.0,727.0 452.0,727.0 452.0,726.0 454.0,724.0 454.0,723.0 454.0,722.0 454.0,720.0 454.0,711.0 452.0,711.0 452.0,720.0 452.0,723.0 451.0,724.0 451.0,726.0 450.0,726.0 450.0,727.0 449.0,727.0 447.0,728.0 445.0,728.0 436.0,728.0 436.0,730.0 445.0,730.0" fill="rgba(221,231,243,1.000)" stroke="rgba(217,229,244,1.000)" stroke-width="0.0" data-name="Polygon315" data-id="475" stroke-linecap="round" stroke-linejoin="round" vector-effect="non-scaling-stroke"/>
    <polyline points="436.0,735.0 445.0,735.0 447.0,735.0 449.0,735.0 450.0,734.0 451.0,734.0 452.0,734.0 454.0,734.0 455.0,731.0 456.0,730.0 456.0,728.0 457.0,727.0 457.0,726.0 459.0,724.0 459.0,723.0 459.0,720.0 459.0,711.0" fill="none" stroke="rgba(26,37,49,1.000)" stroke-width="1.05" data-name="PolyLine118" data-id="476" stroke-linecap="round" stroke-linejoin="round" vector-effect="non-scaling-stroke"/>
    <polyline points="447.0,711.0 447.0,720.0 447.0,722.0 447.0,723.0 446.0,723.0 445.0,723.0 436.0,723.0" fill="none" stroke="rgba(26,37,49,1.000)" stroke-width="1.05" data-name="PolyLine119" data-id="477" stroke-linecap="round" stroke-linejoin="round" vector-effect="non-scaling-stroke"/>
    </g>
</svg>
