<?xml version='1.0' encoding='utf-8'?>
<svg xmlns="http://www.w3.org/2000/svg" viewBox="150.000 2.000 635.000 597.000" width="635.000" height="597.000">
  <g transform="translate(-46.000,-121.000)"><polygon points="216.0,364.0 661.0,364.0 661.0,377.0 216.0,377.0 216.0,364.0" fill="rgba(127,127,127,1.000)" stroke="rgba(0,0,0,1.000)" stroke-width="0.0" data-name="Polygon59" data-id="106"/>
    <polygon points="216.0,364.0 661.0,364.0 661.0,377.0 216.0,377.0 216.0,364.0" fill="rgba(153,153,153,1.000)" stroke="rgba(0,0,0,1.000)" stroke-width="0.0" data-name="Polygon60" data-id="107"/>
    <polygon points="216.0,365.0 661.0,365.0 661.0,374.0 216.0,374.0 216.0,365.0" fill="rgba(178,178,178,1.000)" stroke="rgba(0,0,0,1.000)" stroke-width="0.0" data-name="Polygon61" data-id="108"/>
    <polygon points="216.0,367.0 661.0,367.0 661.0,372.0 216.0,372.0 216.0,367.0" fill="rgba(204,204,204,1.000)" stroke="rgba(0,0,0,1.000)" stroke-width="0.0" data-name="Polygon62" data-id="109"/>
    <polygon points="216.0,367.0 661.0,367.0 661.0,372.0 216.0,372.0 216.0,367.0" fill="rgba(229,229,229,1.000)" stroke="rgba(0,0,0,1.000)" stroke-width="0.0" data-name="Polygon63" data-id="110"/>
    <polygon points="216.0,368.0 661.0,368.0 661.0,371.0 216.0,371.0 216.0,368.0" fill="rgba(255,255,255,1.000)" stroke="rgba(0,0,0,1.000)" stroke-width="0.0" data-name="Polygon64" data-id="111"/>
    <polyline points="216.0,376.0 661.0,376.0" fill="none" stroke="rgba(0,0,0,1.000)" stroke-width="1.0" data-name="PolyLine23" data-id="112"/>
    <polyline points="661.0,364.0 216.0,364.0" fill="none" stroke="rgba(0,0,0,1.000)" stroke-width="1.0" data-name="PolyLine24" data-id="113"/>
    <polygon points="201.0,523.0 296.0,523.0 296.0,535.0 201.0,535.0 201.0,523.0" fill="rgba(127,127,127,1.000)" stroke="rgba(0,0,0,1.000)" stroke-width="0.0" data-name="Polygon65" data-id="119"/>
    <polygon points="201.0,523.0 296.0,523.0 296.0,535.0 201.0,535.0 201.0,523.0" fill="rgba(153,153,153,1.000)" stroke="rgba(0,0,0,1.000)" stroke-width="0.0" data-name="Polygon66" data-id="120"/>
    <polygon points="201.0,524.0 296.0,524.0 296.0,533.0 201.0,533.0 201.0,524.0" fill="rgba(178,178,178,1.000)" stroke="rgba(0,0,0,1.000)" stroke-width="0.0" data-name="Polygon67" data-id="121"/>
    <polygon points="201.0,525.0 296.0,525.0 296.0,533.0 201.0,533.0 201.0,525.0" fill="rgba(204,204,204,1.000)" stroke="rgba(0,0,0,1.000)" stroke-width="0.0" data-name="Polygon68" data-id="122"/>
    <polygon points="201.0,527.0 296.0,527.0 296.0,531.0 201.0,531.0 201.0,527.0" fill="rgba(229,229,229,1.000)" stroke="rgba(0,0,0,1.000)" stroke-width="0.0" data-name="Polygon69" data-id="123"/>
    <polygon points="201.0,528.0 296.0,528.0 296.0,529.0 201.0,529.0 201.0,528.0" fill="rgba(255,255,255,1.000)" stroke="rgba(0,0,0,1.000)" stroke-width="0.0" data-name="Polygon70" data-id="124"/>
    <polyline points="201.0,535.0 296.0,535.0" fill="none" stroke="rgba(0,0,0,1.000)" stroke-width="1.0" data-name="PolyLine25" data-id="125"/>
    <polyline points="296.0,523.0 201.0,523.0" fill="none" stroke="rgba(0,0,0,1.000)" stroke-width="1.0" data-name="PolyLine26" data-id="126"/>
    <polygon points="209.0,385.0 209.0,718.0 198.0,718.0 198.0,385.0 209.0,385.0" fill="rgba(127,127,127,1.000)" stroke="rgba(0,0,0,1.000)" stroke-width="0.0" data-name="Polygon95" data-id="159"/>
    <polygon points="209.0,385.0 209.0,718.0 198.0,718.0 198.0,385.0 209.0,385.0" fill="rgba(153,153,153,1.000)" stroke="rgba(0,0,0,1.000)" stroke-width="0.0" data-name="Polygon96" data-id="160"/>
    <polygon points="208.0,385.0 208.0,718.0 199.0,718.0 199.0,385.0 208.0,385.0" fill="rgba(178,178,178,1.000)" stroke="rgba(0,0,0,1.000)" stroke-width="0.0" data-name="Polygon97" data-id="161"/>
    <polygon points="207.0,385.0 207.0,718.0 201.0,718.0 201.0,385.0 207.0,385.0" fill="rgba(204,204,204,1.000)" stroke="rgba(0,0,0,1.000)" stroke-width="0.0" data-name="Polygon98" data-id="162"/>
    <polygon points="205.0,385.0 205.0,718.0 201.0,718.0 201.0,385.0 205.0,385.0" fill="rgba(229,229,229,1.000)" stroke="rgba(0,0,0,1.000)" stroke-width="0.0" data-name="Polygon99" data-id="163"/>
    <polygon points="204.0,385.0 204.0,718.0 203.0,718.0 203.0,385.0 204.0,385.0" fill="rgba(255,255,255,1.000)" stroke="rgba(0,0,0,1.000)" stroke-width="0.0" data-name="Polygon100" data-id="164"/>
    <polyline points="198.0,385.0 198.0,718.0" fill="none" stroke="rgba(0,0,0,1.000)" stroke-width="1.0" data-name="PolyLine35" data-id="165"/>
    <polyline points="209.0,718.0 209.0,385.0" fill="none" stroke="rgba(0,0,0,1.000)" stroke-width="1.0" data-name="PolyLine36" data-id="166"/>
    <polygon points="208.0,461.0 829.0,461.0 829.0,466.0 208.0,466.0 208.0,461.0" fill="rgba(127,127,127,1.000)" stroke="rgba(0,0,0,1.000)" stroke-width="0.0" data-name="Polygon340" data-id="510"/>
    <polygon points="208.0,461.0 829.0,461.0 829.0,466.0 208.0,466.0 208.0,461.0" fill="rgba(153,153,153,1.000)" stroke="rgba(0,0,0,1.000)" stroke-width="0.0" data-name="Polygon341" data-id="511"/>
    <polygon points="208.0,464.0 829.0,464.0 829.0,467.0 208.0,467.0 208.0,464.0" fill="rgba(178,178,178,1.000)" stroke="rgba(0,0,0,1.000)" stroke-width="0.0" data-name="Polygon342" data-id="512"/>
    <polygon points="208.0,464.0 829.0,464.0 829.0,467.0 208.0,467.0 208.0,464.0" fill="rgba(204,204,204,1.000)" stroke="rgba(0,0,0,1.000)" stroke-width="0.0" data-name="Polygon343" data-id="513"/>
    <polygon points="208.0,464.0 829.0,464.0 829.0,467.0 208.0,467.0 208.0,464.0" fill="rgba(229,229,229,1.000)" stroke="rgba(0,0,0,1.000)" stroke-width="0.0" data-name="Polygon344" data-id="514"/>
    <polyline points="208.0,465.0 829.0,465.0 208.0,465.0 208.0,465.0" fill="none" stroke="rgba(0,0,0,1.000)" stroke-width="1.0" data-name="PolyLine128" data-id="516"/>
    <polyline points="208.0,468.0 829.0,468.0" fill="none" stroke="rgba(0,0,0,1.000)" stroke-width="1.0" data-name="PolyLine129" data-id="517"/>
    <polyline points="829.0,461.0 208.0,461.0" fill="none" stroke="rgba(0,0,0,1.000)" stroke-width="1.0" data-name="PolyLine130" data-id="518"/>
    <polygon points="198.0,380.0 198.0,391.0 209.0,391.0 209.0,380.0 209.0,379.0 209.0,377.0 211.0,377.0 219.0,377.0 219.0,364.0 211.0,364.0 209.0,364.0 208.0,364.0 207.0,365.0 206.0,365.0 204.0,365.0 203.0,367.0 203.0,368.0 202.0,369.0 201.0,369.0 201.0,372.0 199.0,372.0 199.0,373.0 198.0,375.0 198.0,376.0 198.0,377.0 198.0,380.0" fill="rgba(127,127,127,1.000)" stroke="rgba(255,255,255,1.000)" stroke-width="0.0" data-name="Polygon397" data-id="593"/>
    <polygon points="210.0,364.0 209.0,364.0 208.0,364.0 207.0,364.0 205.0,365.0 204.0,365.0 204.0,367.0 203.0,367.0 202.0,368.0 202.0,369.0 200.0,372.0 199.0,372.0 199.0,373.0 199.0,375.0 199.0,377.0 199.0,379.0 199.0,389.0 208.0,389.0 208.0,379.0 208.0,377.0 208.0,376.0 209.0,376.0 210.0,375.0 219.0,375.0 219.0,364.0 210.0,364.0" fill="rgba(153,153,153,1.000)" stroke="rgba(255,255,255,1.000)" stroke-width="0.0" data-name="Polygon398" data-id="594"/>
    <polygon points="210.0,365.0 219.0,365.0 219.0,373.0 210.0,373.0 209.0,373.0 209.0,374.0 208.0,374.0 208.0,376.0 207.0,376.0 207.0,377.0 207.0,378.0 207.0,389.0 199.0,389.0 199.0,378.0 199.0,377.0 200.0,376.0 200.0,374.0 200.0,373.0 200.0,373.0 202.0,370.0 202.0,369.0 203.0,369.0 204.0,368.0 204.0,366.0 205.0,366.0 207.0,366.0 207.0,365.0 208.0,365.0 209.0,365.0 210.0,365.0" fill="rgba(178,178,178,1.000)" stroke="rgba(255,255,255,1.000)" stroke-width="0.0" data-name="Polygon399" data-id="595"/>
    <polygon points="211.0,367.0 210.0,367.0 209.0,367.0 207.0,368.0 206.0,368.0 205.0,370.0 204.0,371.0 204.0,372.0 202.0,372.0 202.0,375.0 202.0,375.0 201.0,376.0 201.0,378.0 201.0,379.0 201.0,390.0 206.0,390.0 206.0,379.0 206.0,378.0 207.0,376.0 207.0,375.0 209.0,375.0 210.0,375.0 210.0,372.0 211.0,372.0 220.0,372.0 220.0,367.0 211.0,367.0" fill="rgba(204,204,204,1.000)" stroke="rgba(255,255,255,1.000)" stroke-width="0.0" data-name="Polygon400" data-id="596"/>
    <polygon points="210.0,368.0 219.0,368.0 219.0,372.0 210.0,372.0 209.0,372.0 207.0,372.0 206.0,372.0 206.0,373.0 205.0,376.0 205.0,376.0 205.0,377.0 205.0,379.0 205.0,391.0 201.0,391.0 201.0,379.0 201.0,377.0 201.0,376.0 201.0,376.0 202.0,376.0 202.0,373.0 202.0,372.0 204.0,372.0 204.0,371.0 205.0,369.0 206.0,369.0 206.0,368.0 207.0,368.0 209.0,368.0 210.0,368.0" fill="rgba(229,229,229,1.000)" stroke="rgba(255,255,255,1.000)" stroke-width="0.0" data-name="Polygon401" data-id="597"/>
    <polygon points="211.0,368.0 209.0,368.0 209.0,369.0 208.0,369.0 207.0,369.0 206.0,371.0 206.0,372.0 204.0,372.0 204.0,373.0 203.0,373.0 203.0,376.0 203.0,376.0 203.0,377.0 203.0,379.0 203.0,391.0 204.0,391.0 204.0,379.0 204.0,376.0 204.0,376.0 206.0,373.0 206.0,372.0 207.0,372.0 208.0,371.0 209.0,371.0 211.0,371.0 219.0,371.0 219.0,368.0 211.0,368.0" fill="rgba(255,255,255,1.000)" stroke="rgba(255,255,255,1.000)" stroke-width="0.0" data-name="Polygon402" data-id="598"/>
    <polyline points="219.0,364.0 211.0,364.0 209.0,364.0 208.0,364.0 207.0,365.0 206.0,365.0 204.0,365.0 203.0,367.0 203.0,368.0 202.0,369.0 201.0,369.0 201.0,372.0 199.0,372.0 199.0,373.0 198.0,375.0 198.0,376.0 198.0,377.0 198.0,380.0 198.0,391.0" fill="none" stroke="rgba(0,0,0,1.000)" stroke-width="1.0" data-name="PolyLine151" data-id="599"/>
    <polyline points="209.0,389.0 209.0,379.0 209.0,377.0 209.0,376.0 210.0,376.0 219.0,376.0" fill="none" stroke="rgba(0,0,0,1.000)" stroke-width="1.0" data-name="PolyLine152" data-id="600"/>
    <polygon points="680.0,360.0 680.0,349.0 669.0,349.0 669.0,360.0 669.0,361.0 669.0,362.0 668.0,362.0 659.0,362.0 659.0,376.0 668.0,376.0 669.0,376.0 670.0,376.0 672.0,374.0 673.0,374.0 674.0,374.0 675.0,373.0 675.0,372.0 677.0,372.0 678.0,372.0 678.0,369.0 679.0,368.0 679.0,366.0 680.0,365.0 680.0,364.0 680.0,362.0 680.0,360.0" fill="rgba(127,127,127,1.000)" stroke="rgba(255,255,255,1.000)" stroke-width="0.0" data-name="Polygon438" data-id="673"/>
    <polygon points="668.0,374.0 669.0,374.0 670.0,374.0 672.0,374.0 673.0,373.0 674.0,373.0 674.0,372.0 675.0,372.0 677.0,372.0 677.0,369.0 678.0,368.0 679.0,366.0 679.0,365.0 679.0,364.0 679.0,361.0 679.0,360.0 679.0,349.0 670.0,349.0 670.0,360.0 670.0,361.0 670.0,362.0 669.0,362.0 668.0,364.0 659.0,364.0 659.0,374.0 668.0,374.0" fill="rgba(153,153,153,1.000)" stroke="rgba(255,255,255,1.000)" stroke-width="0.0" data-name="Polygon439" data-id="674"/>
    <polygon points="668.0,373.0 659.0,373.0 659.0,365.0 668.0,365.0 669.0,365.0 669.0,364.0 670.0,364.0 670.0,362.0 672.0,362.0 672.0,361.0 672.0,360.0 672.0,349.0 679.0,349.0 679.0,360.0 679.0,361.0 678.0,362.0 678.0,364.0 678.0,365.0 678.0,366.0 677.0,368.0 677.0,369.0 675.0,369.0 674.0,372.0 674.0,372.0 673.0,372.0 672.0,372.0 672.0,373.0 670.0,373.0 669.0,373.0 668.0,373.0" fill="rgba(178,178,178,1.000)" stroke="rgba(255,255,255,1.000)" stroke-width="0.0" data-name="Polygon440" data-id="675"/>
    <polygon points="668.0,372.0 669.0,372.0 670.0,372.0 672.0,372.0 673.0,372.0 674.0,369.0 675.0,368.0 675.0,366.0 677.0,366.0 677.0,365.0 677.0,364.0 678.0,362.0 678.0,361.0 678.0,360.0 678.0,349.0 673.0,349.0 673.0,360.0 673.0,361.0 672.0,362.0 672.0,364.0 670.0,365.0 669.0,365.0 669.0,366.0 668.0,366.0 659.0,366.0 659.0,372.0 668.0,372.0" fill="rgba(204,204,204,1.000)" stroke="rgba(255,255,255,1.000)" stroke-width="0.0" data-name="Polygon441" data-id="676"/>
    <polygon points="668.0,372.0 659.0,372.0 659.0,366.0 668.0,366.0 669.0,366.0 670.0,366.0 672.0,366.0 672.0,365.0 673.0,364.0 673.0,362.0 673.0,361.0 673.0,360.0 673.0,349.0 677.0,349.0 677.0,360.0 677.0,361.0 677.0,362.0 677.0,364.0 675.0,364.0 675.0,365.0 675.0,366.0 674.0,366.0 674.0,368.0 673.0,369.0 672.0,369.0 672.0,372.0 670.0,372.0 669.0,372.0 668.0,372.0" fill="rgba(229,229,229,1.000)" stroke="rgba(255,255,255,1.000)" stroke-width="0.0" data-name="Polygon442" data-id="677"/>
    <polygon points="668.0,372.0 669.0,372.0 669.0,369.0 670.0,369.0 672.0,369.0 673.0,368.0 673.0,366.0 674.0,366.0 674.0,365.0 675.0,365.0 675.0,364.0 675.0,362.0 675.0,361.0 675.0,360.0 675.0,349.0 674.0,349.0 674.0,360.0 674.0,362.0 674.0,364.0 673.0,365.0 673.0,366.0 672.0,366.0 670.0,368.0 669.0,368.0 668.0,368.0 659.0,368.0 659.0,372.0 668.0,372.0" fill="rgba(255,255,255,1.000)" stroke="rgba(255,255,255,1.000)" stroke-width="0.0" data-name="Polygon443" data-id="678"/>
    <polyline points="659.0,376.0 668.0,376.0 669.0,376.0 670.0,376.0 672.0,374.0 673.0,374.0 674.0,374.0 675.0,373.0 675.0,372.0 677.0,372.0 678.0,372.0 678.0,369.0 679.0,368.0 679.0,366.0 680.0,365.0 680.0,364.0 680.0,362.0 680.0,360.0 680.0,349.0" fill="none" stroke="rgba(0,0,0,1.000)" stroke-width="1.0" data-name="PolyLine172" data-id="679"/>
    <polyline points="669.0,349.0 669.0,360.0 669.0,361.0 669.0,362.0 668.0,362.0 659.0,362.0" fill="none" stroke="rgba(0,0,0,1.000)" stroke-width="1.0" data-name="PolyLine173" data-id="680"/>
    <polygon points="669.0,141.0 669.0,152.0 680.0,152.0 680.0,141.0 680.0,140.0 680.0,138.0 682.0,138.0 690.0,138.0 690.0,125.0 682.0,125.0 680.0,125.0 679.0,125.0 678.0,126.0 677.0,126.0 675.0,126.0 674.0,128.0 674.0,129.0 673.0,130.0 672.0,130.0 672.0,133.0 670.0,133.0 670.0,134.0 669.0,136.0 669.0,137.0 669.0,138.0 669.0,141.0" fill="rgba(127,127,127,1.000)" stroke="rgba(255,255,255,1.000)" stroke-width="0.0" data-name="Polygon444" data-id="681"/>
    <polygon points="681.0,127.0 680.0,127.0 679.0,127.0 678.0,127.0 676.0,128.0 675.0,128.0 675.0,130.0 674.0,130.0 673.0,131.0 673.0,132.0 671.0,135.0 670.0,135.0 670.0,136.0 670.0,138.0 670.0,140.0 670.0,142.0 670.0,152.0 679.0,152.0 679.0,142.0 679.0,140.0 679.0,139.0 680.0,139.0 681.0,138.0 690.0,138.0 690.0,127.0 681.0,127.0" fill="rgba(153,153,153,1.000)" stroke="rgba(255,255,255,1.000)" stroke-width="0.0" data-name="Polygon445" data-id="682"/>
    <polygon points="681.0,128.0 690.0,128.0 690.0,136.0 681.0,136.0 680.0,136.0 680.0,137.0 679.0,137.0 679.0,139.0 678.0,139.0 678.0,140.0 678.0,141.0 678.0,152.0 670.0,152.0 670.0,141.0 670.0,140.0 671.0,139.0 671.0,137.0 671.0,136.0 671.0,136.0 673.0,133.0 673.0,132.0 674.0,132.0 675.0,131.0 675.0,129.0 676.0,129.0 678.0,129.0 678.0,128.0 679.0,128.0 680.0,128.0 681.0,128.0" fill="rgba(178,178,178,1.000)" stroke="rgba(255,255,255,1.000)" stroke-width="0.0" data-name="Polygon446" data-id="683"/>
    <polygon points="681.0,129.0 680.0,129.0 679.0,129.0 677.0,130.0 676.0,130.0 675.0,132.0 674.0,133.0 674.0,134.0 672.0,134.0 672.0,137.0 672.0,137.0 671.0,138.0 671.0,140.0 671.0,141.0 671.0,152.0 676.0,152.0 676.0,141.0 676.0,140.0 677.0,138.0 677.0,137.0 679.0,137.0 680.0,137.0 680.0,134.0 681.0,134.0 690.0,134.0 690.0,129.0 681.0,129.0" fill="rgba(204,204,204,1.000)" stroke="rgba(255,255,255,1.000)" stroke-width="0.0" data-name="Polygon447" data-id="684"/>
    <polygon points="682.0,131.0 691.0,131.0 691.0,135.0 682.0,135.0 681.0,135.0 679.0,135.0 678.0,135.0 678.0,136.0 677.0,139.0 677.0,139.0 677.0,140.0 677.0,142.0 677.0,154.0 673.0,154.0 673.0,142.0 673.0,140.0 673.0,139.0 673.0,139.0 674.0,139.0 674.0,136.0 674.0,135.0 676.0,135.0 676.0,134.0 677.0,132.0 678.0,132.0 678.0,131.0 679.0,131.0 681.0,131.0 682.0,131.0" fill="rgba(229,229,229,1.000)" stroke="rgba(255,255,255,1.000)" stroke-width="0.0" data-name="Polygon448" data-id="685"/>
    <polygon points="682.0,131.0 680.0,131.0 680.0,132.0 679.0,132.0 678.0,132.0 677.0,134.0 677.0,135.0 675.0,135.0 675.0,136.0 674.0,136.0 674.0,139.0 674.0,139.0 674.0,140.0 674.0,142.0 674.0,154.0 675.0,154.0 675.0,142.0 675.0,139.0 675.0,139.0 677.0,136.0 677.0,135.0 678.0,135.0 679.0,134.0 680.0,134.0 682.0,134.0 690.0,134.0 690.0,131.0 682.0,131.0" fill="rgba(255,255,255,1.000)" stroke="rgba(255,255,255,1.000)" stroke-width="0.0" data-name="Polygon449" data-id="686"/>
    <polyline points="690.0,125.0 682.0,125.0 680.0,125.0 679.0,125.0 678.0,126.0 677.0,126.0 675.0,126.0 674.0,128.0 674.0,129.0 673.0,130.0 672.0,130.0 672.0,133.0 670.0,133.0 670.0,134.0 669.0,136.0 669.0,137.0 669.0,138.0 669.0,141.0 669.0,152.0" fill="none" stroke="rgba(0,0,0,1.000)" stroke-width="1.0" data-name="PolyLine174" data-id="687"/>
    <polyline points="681.0,152.0 681.0,142.0 681.0,140.0 681.0,139.0 682.0,139.0 691.0,139.0" fill="none" stroke="rgba(0,0,0,1.000)" stroke-width="1.0" data-name="PolyLine175" data-id="688"/>
    <polygon points="680.0,151.0 680.0,364.0 669.0,364.0 669.0,151.0 680.0,151.0" fill="rgba(127,127,127,1.000)" stroke="rgba(0,0,0,1.000)" stroke-width="0.0" data-name="Polygon450" data-id="689"/>
    <polygon points="680.0,151.0 680.0,364.0 669.0,364.0 669.0,151.0 680.0,151.0" fill="rgba(153,153,153,1.000)" stroke="rgba(0,0,0,1.000)" stroke-width="0.0" data-name="Polygon451" data-id="690"/>
    <polygon points="679.0,151.0 679.0,364.0 670.0,364.0 670.0,151.0 679.0,151.0" fill="rgba(178,178,178,1.000)" stroke="rgba(0,0,0,1.000)" stroke-width="0.0" data-name="Polygon452" data-id="691"/>
    <polygon points="677.0,151.0 677.0,364.0 671.0,364.0 671.0,151.0 677.0,151.0" fill="rgba(204,204,204,1.000)" stroke="rgba(0,0,0,1.000)" stroke-width="0.0" data-name="Polygon453" data-id="692"/>
    <polygon points="677.0,151.0 677.0,364.0 673.0,364.0 673.0,151.0 677.0,151.0" fill="rgba(229,229,229,1.000)" stroke="rgba(0,0,0,1.000)" stroke-width="0.0" data-name="Polygon454" data-id="693"/>
    <polygon points="675.0,151.0 675.0,364.0 674.0,364.0 674.0,151.0 675.0,151.0" fill="rgba(255,255,255,1.000)" stroke="rgba(0,0,0,1.000)" stroke-width="0.0" data-name="Polygon455" data-id="694"/>
    <polyline points="669.0,151.0 669.0,364.0" fill="none" stroke="rgba(0,0,0,1.000)" stroke-width="1.0" data-name="PolyLine176" data-id="695"/>
    <polyline points="681.0,364.0 681.0,151.0" fill="none" stroke="rgba(0,0,0,1.000)" stroke-width="1.0" data-name="PolyLine177" data-id="696"/>
    </g>
</svg>
