<?xml version='1.0' encoding='utf-8'?>
<svg xmlns="http://www.w3.org/2000/svg" viewBox="0.000 277.000 984.000 459.000" width="984.000" height="459.000">
  <g transform="translate(-46.000,-121.000)"><rect x="48" y="767" width="631" height="88" fill="rgba(255,191,191,1.000)" stroke="rgba(0,0,0,1.000)" stroke-width="0.0" data-name="Rectangle1" data-id="1"/>
    <polygon points="515.0,523.0 610.0,523.0 610.0,535.0 515.0,535.0 515.0,523.0" fill="rgba(127,127,127,1.000)" stroke="rgba(0,0,0,1.000)" stroke-width="0.0" data-name="Polygon1" data-id="20"/>
    <polygon points="515.0,523.0 610.0,523.0 610.0,535.0 515.0,535.0 515.0,523.0" fill="rgba(153,153,153,1.000)" stroke="rgba(0,0,0,1.000)" stroke-width="0.0" data-name="Polygon2" data-id="21"/>
    <polygon points="515.0,524.0 610.0,524.0 610.0,533.0 515.0,533.0 515.0,524.0" fill="rgba(178,178,178,1.000)" stroke="rgba(0,0,0,1.000)" stroke-width="0.0" data-name="Polygon3" data-id="22"/>
    <polygon points="515.0,525.0 610.0,525.0 610.0,533.0 515.0,533.0 515.0,525.0" fill="rgba(204,204,204,1.000)" stroke="rgba(0,0,0,1.000)" stroke-width="0.0" data-name="Polygon4" data-id="23"/>
    <polygon points="515.0,527.0 610.0,527.0 610.0,531.0 515.0,531.0 515.0,527.0" fill="rgba(229,229,229,1.000)" stroke="rgba(0,0,0,1.000)" stroke-width="0.0" data-name="Polygon5" data-id="24"/>
    <polygon points="515.0,528.0 610.0,528.0 610.0,529.0 515.0,529.0 515.0,528.0" fill="rgba(255,255,255,1.000)" stroke="rgba(0,0,0,1.000)" stroke-width="0.0" data-name="Polygon6" data-id="25"/>
    <polyline points="515.0,535.0 610.0,535.0" fill="none" stroke="rgba(0,0,0,1.000)" stroke-width="1.0" data-name="PolyLine1" data-id="26"/>
    <polyline points="610.0,523.0 515.0,523.0" fill="none" stroke="rgba(0,0,0,1.000)" stroke-width="1.0" data-name="PolyLine2" data-id="27"/>
    <polygon points="744.0,419.0 1007.0,419.0 1007.0,439.0 744.0,439.0 744.0,419.0" fill="rgba(127,127,127,1.000)" stroke="rgba(0,0,0,1.000)" stroke-width="0.0" data-name="Polygon7" data-id="28"/>
    <polygon points="744.0,421.0 1007.0,421.0 1007.0,438.0 744.0,438.0 744.0,421.0" fill="rgba(153,153,153,1.000)" stroke="rgba(0,0,0,1.000)" stroke-width="0.0" data-name="Polygon8" data-id="29"/>
    <polygon points="744.0,424.0 1007.0,424.0 1007.0,436.0 744.0,436.0 744.0,424.0" fill="rgba(178,178,178,1.000)" stroke="rgba(0,0,0,1.000)" stroke-width="0.0" data-name="Polygon9" data-id="30"/>
    <polygon points="744.0,425.0 1007.0,425.0 1007.0,434.0 744.0,434.0 744.0,425.0" fill="rgba(204,204,204,1.000)" stroke="rgba(0,0,0,1.000)" stroke-width="0.0" data-name="Polygon10" data-id="31"/>
    <polygon points="744.0,427.0 1007.0,427.0 1007.0,435.0 744.0,435.0 744.0,427.0" fill="rgba(229,229,229,1.000)" stroke="rgba(0,0,0,1.000)" stroke-width="0.0" data-name="Polygon11" data-id="32"/>
    <polygon points="744.0,429.0 1007.0,429.0 1007.0,430.0 744.0,430.0 744.0,429.0" fill="rgba(255,255,255,1.000)" stroke="rgba(0,0,0,1.000)" stroke-width="0.0" data-name="Polygon12" data-id="33"/>
    <polyline points="744.0,440.0 1007.0,440.0" fill="none" stroke="rgba(0,0,0,1.000)" stroke-width="1.0" data-name="PolyLine3" data-id="34"/>
    <polyline points="1007.0,419.0 744.0,419.0" fill="none" stroke="rgba(0,0,0,1.000)" stroke-width="1.0" data-name="PolyLine4" data-id="35"/>
    <polygon points="1028.0,417.0 1028.0,400.0 1013.0,400.0 1013.0,417.0 1013.0,419.0 1013.0,420.0 1012.0,420.0 999.0,420.0 999.0,440.0 1012.0,440.0 1013.0,440.0 1014.0,439.0 1017.0,439.0 1018.0,437.0 1019.0,437.0 1020.0,435.0 1022.0,435.0 1023.0,433.0 1024.0,431.0 1025.0,429.0 1025.0,428.0 1027.0,425.0 1027.0,424.0 1028.0,423.0 1028.0,419.0 1028.0,417.0" fill="rgba(127,127,127,1.000)" stroke="rgba(255,255,255,1.000)" stroke-width="0.0" data-name="Polygon13" data-id="36"/>
    <polygon points="1012.0,439.0 1013.0,439.0 1014.0,437.0 1015.0,437.0 1017.0,435.0 1019.0,435.0 1020.0,435.0 1022.0,433.0 1022.0,432.0 1023.0,431.0 1024.0,429.0 1025.0,427.0 1025.0,425.0 1027.0,423.0 1027.0,423.0 1027.0,419.0 1027.0,417.0 1027.0,400.0 1014.0,400.0 1014.0,417.0 1014.0,419.0 1013.0,420.0 1013.0,423.0 1012.0,423.0 999.0,423.0 999.0,439.0 1012.0,439.0" fill="rgba(153,153,153,1.000)" stroke="rgba(255,255,255,1.000)" stroke-width="0.0" data-name="Polygon14" data-id="37"/>
    <polygon points="1012.0,435.0 999.0,435.0 999.0,423.0 1012.0,423.0 1013.0,423.0 1014.0,423.0 1014.0,423.0 1015.0,420.0 1015.0,419.0 1015.0,417.0 1015.0,400.0 1025.0,400.0 1025.0,417.0 1025.0,419.0 1025.0,420.0 1024.0,423.0 1024.0,424.0 1024.0,427.0 1023.0,428.0 1022.0,429.0 1022.0,431.0 1020.0,432.0 1019.0,433.0 1018.0,433.0 1017.0,435.0 1015.0,435.0 1014.0,435.0 1013.0,435.0 1012.0,435.0" fill="rgba(178,178,178,1.000)" stroke="rgba(255,255,255,1.000)" stroke-width="0.0" data-name="Polygon15" data-id="38"/>
    <polygon points="1012.0,435.0 1013.0,435.0 1014.0,433.0 1015.0,433.0 1017.0,433.0 1017.0,432.0 1018.0,431.0 1019.0,431.0 1020.0,429.0 1020.0,428.0 1022.0,427.0 1023.0,425.0 1023.0,424.0 1023.0,423.0 1024.0,420.0 1024.0,419.0 1024.0,417.0 1024.0,400.0 1018.0,400.0 1018.0,417.0 1017.0,419.0 1017.0,420.0 1017.0,423.0 1015.0,423.0 1014.0,424.0 1013.0,424.0 1013.0,425.0 1012.0,425.0 999.0,425.0 999.0,435.0 1012.0,435.0" fill="rgba(204,204,204,1.000)" stroke="rgba(255,255,255,1.000)" stroke-width="0.0" data-name="Polygon16" data-id="39"/>
    <polygon points="1012.0,432.0 999.0,432.0 999.0,427.0 1012.0,427.0 1013.0,427.0 1014.0,427.0 1015.0,425.0 1017.0,424.0 1017.0,423.0 1018.0,423.0 1018.0,419.0 1018.0,417.0 1018.0,400.0 1023.0,400.0 1023.0,417.0 1023.0,419.0 1023.0,420.0 1022.0,423.0 1022.0,423.0 1022.0,424.0 1020.0,425.0 1020.0,427.0 1019.0,428.0 1018.0,429.0 1017.0,431.0 1015.0,431.0 1014.0,432.0 1013.0,432.0 1012.0,432.0" fill="rgba(229,229,229,1.000)" stroke="rgba(255,255,255,1.000)" stroke-width="0.0" data-name="Polygon17" data-id="40"/>
    <polygon points="1012.0,431.0 1013.0,431.0 1014.0,431.0 1015.0,429.0 1017.0,429.0 1017.0,428.0 1018.0,428.0 1018.0,427.0 1019.0,425.0 1020.0,424.0 1020.0,423.0 1020.0,423.0 1022.0,420.0 1022.0,419.0 1022.0,417.0 1022.0,400.0 1019.0,400.0 1019.0,417.0 1019.0,419.0 1019.0,423.0 1018.0,424.0 1017.0,425.0 1015.0,427.0 1014.0,428.0 1013.0,428.0 1012.0,428.0 999.0,428.0 999.0,431.0 1012.0,431.0" fill="rgba(255,255,255,1.000)" stroke="rgba(255,255,255,1.000)" stroke-width="0.0" data-name="Polygon18" data-id="41"/>
    <polyline points="999.0,440.0 1012.0,440.0 1013.0,440.0 1014.0,439.0 1017.0,439.0 1018.0,437.0 1019.0,437.0 1020.0,435.0 1022.0,435.0 1023.0,433.0 1024.0,431.0 1025.0,429.0 1025.0,428.0 1027.0,425.0 1027.0,424.0 1028.0,423.0 1028.0,419.0 1028.0,417.0 1028.0,400.0" fill="none" stroke="rgba(0,0,0,1.000)" stroke-width="1.0" data-name="PolyLine5" data-id="42"/>
    <polyline points="1013.0,400.0 1013.0,417.0 1013.0,419.0 1013.0,420.0 1012.0,420.0 999.0,420.0" fill="none" stroke="rgba(0,0,0,1.000)" stroke-width="1.0" data-name="PolyLine6" data-id="43"/>
    </g>
</svg>
