<?xml version='1.0' encoding='utf-8'?>
<svg xmlns="http://www.w3.org/2000/svg" viewBox="668.000 185.000 316.000 238.000" width="316.000" height="238.000">
  <g transform="translate(-46.000,-121.000)"><polygon points="716.0,417.0 716.0,401.0 734.0,401.0 734.0,417.0 734.0,418.0 734.0,420.0 735.0,420.0 736.0,420.0 750.0,420.0 750.0,440.0 736.0,440.0 734.0,440.0 732.0,438.0 730.0,438.0 729.0,436.0 726.0,436.0 725.0,436.0 724.0,434.0 722.0,433.0 721.0,432.0 720.0,429.0 719.0,428.0 719.0,426.0 717.0,424.0 717.0,421.0 716.0,420.0 716.0,417.0" fill="rgba(127,127,127,1.000)" stroke="rgba(255,255,255,1.000)" stroke-width="0.0" data-name="Polygon19" data-id="44"/>
    <polygon points="737.0,438.0 734.0,438.0 733.0,436.0 731.0,436.0 729.0,436.0 728.0,436.0 727.0,434.0 724.0,433.0 723.0,432.0 722.0,430.0 722.0,429.0 721.0,428.0 719.0,425.0 719.0,424.0 718.0,421.0 718.0,420.0 718.0,417.0 718.0,401.0 733.0,401.0 733.0,417.0 733.0,418.0 733.0,420.0 734.0,420.0 734.0,421.0 736.0,421.0 737.0,421.0 751.0,421.0 751.0,438.0 737.0,438.0" fill="rgba(153,153,153,1.000)" stroke="rgba(255,255,255,1.000)" stroke-width="0.0" data-name="Polygon20" data-id="45"/>
    <polygon points="736.0,436.0 750.0,436.0 750.0,424.0 736.0,424.0 735.0,424.0 734.0,424.0 733.0,424.0 733.0,421.0 731.0,421.0 731.0,420.0 730.0,418.0 730.0,417.0 730.0,401.0 720.0,401.0 720.0,417.0 720.0,420.0 720.0,421.0 720.0,424.0 721.0,425.0 721.0,426.0 723.0,428.0 724.0,429.0 724.0,430.0 725.0,432.0 726.0,433.0 728.0,434.0 730.0,434.0 731.0,436.0 733.0,436.0 734.0,436.0 736.0,436.0" fill="rgba(178,178,178,1.000)" stroke="rgba(255,255,255,1.000)" stroke-width="0.0" data-name="Polygon21" data-id="46"/>
    <polygon points="736.0,434.0 735.0,434.0 732.0,434.0 731.0,433.0 730.0,433.0 729.0,432.0 727.0,432.0 726.0,430.0 725.0,429.0 725.0,428.0 724.0,426.0 722.0,425.0 722.0,424.0 721.0,424.0 721.0,421.0 721.0,418.0 721.0,417.0 721.0,401.0 729.0,401.0 729.0,417.0 729.0,418.0 729.0,421.0 730.0,424.0 731.0,424.0 734.0,425.0 735.0,425.0 736.0,425.0 750.0,425.0 750.0,434.0 736.0,434.0" fill="rgba(204,204,204,1.000)" stroke="rgba(255,255,255,1.000)" stroke-width="0.0" data-name="Polygon22" data-id="47"/>
    <polygon points="737.0,433.0 751.0,433.0 751.0,426.0 737.0,426.0 734.0,426.0 733.0,426.0 732.0,425.0 731.0,424.0 729.0,424.0 728.0,421.0 728.0,420.0 728.0,417.0 728.0,401.0 723.0,401.0 723.0,417.0 723.0,418.0 723.0,420.0 723.0,424.0 724.0,424.0 724.0,425.0 726.0,426.0 727.0,428.0 728.0,429.0 729.0,430.0 731.0,430.0 732.0,432.0 733.0,432.0 734.0,432.0 736.0,433.0 737.0,433.0" fill="rgba(229,229,229,1.000)" stroke="rgba(255,255,255,1.000)" stroke-width="0.0" data-name="Polygon23" data-id="48"/>
    <polygon points="737.0,430.0 735.0,430.0 734.0,430.0 733.0,430.0 732.0,430.0 730.0,429.0 729.0,429.0 729.0,428.0 728.0,426.0 727.0,426.0 727.0,425.0 725.0,424.0 725.0,424.0 725.0,421.0 724.0,420.0 724.0,418.0 724.0,417.0 724.0,401.0 727.0,401.0 727.0,417.0 727.0,420.0 727.0,421.0 728.0,424.0 729.0,425.0 730.0,426.0 733.0,428.0 734.0,428.0 737.0,429.0 750.0,429.0 750.0,430.0 737.0,430.0" fill="rgba(255,255,255,1.000)" stroke="rgba(255,255,255,1.000)" stroke-width="0.0" data-name="Polygon24" data-id="49"/>
    <polyline points="750.0,440.0 736.0,440.0 734.0,440.0 732.0,438.0 730.0,438.0 729.0,436.0 726.0,436.0 725.0,436.0 724.0,434.0 722.0,433.0 721.0,432.0 720.0,429.0 719.0,428.0 719.0,426.0 717.0,424.0 717.0,421.0 716.0,420.0 716.0,417.0 716.0,401.0" fill="none" stroke="rgba(0,0,0,1.000)" stroke-width="1.0" data-name="PolyLine7" data-id="50"/>
    <polyline points="734.0,401.0 734.0,417.0 734.0,418.0 734.0,420.0 735.0,420.0 737.0,420.0 750.0,420.0" fill="none" stroke="rgba(0,0,0,1.000)" stroke-width="1.0" data-name="PolyLine8" data-id="51"/>
    <polygon points="736.0,308.0 736.0,401.0 718.0,401.0 718.0,308.0 736.0,308.0" fill="rgba(127,127,127,1.000)" stroke="rgba(0,0,0,1.000)" stroke-width="0.0" data-name="Polygon25" data-id="52"/>
    <polygon points="734.0,308.0 734.0,401.0 719.0,401.0 719.0,308.0 734.0,308.0" fill="rgba(153,153,153,1.000)" stroke="rgba(0,0,0,1.000)" stroke-width="0.0" data-name="Polygon26" data-id="53"/>
    <polygon points="733.0,308.0 733.0,401.0 720.0,401.0 720.0,308.0 733.0,308.0" fill="rgba(178,178,178,1.000)" stroke="rgba(0,0,0,1.000)" stroke-width="0.0" data-name="Polygon27" data-id="54"/>
    <polygon points="731.0,308.0 731.0,401.0 723.0,401.0 723.0,308.0 731.0,308.0" fill="rgba(204,204,204,1.000)" stroke="rgba(0,0,0,1.000)" stroke-width="0.0" data-name="Polygon28" data-id="55"/>
    <polygon points="729.0,308.0 729.0,401.0 724.0,401.0 724.0,308.0 729.0,308.0" fill="rgba(229,229,229,1.000)" stroke="rgba(0,0,0,1.000)" stroke-width="0.0" data-name="Polygon29" data-id="56"/>
    <polygon points="728.0,308.0 728.0,401.0 725.0,401.0 725.0,308.0 728.0,308.0" fill="rgba(255,255,255,1.000)" stroke="rgba(0,0,0,1.000)" stroke-width="0.0" data-name="Polygon30" data-id="57"/>
    <polyline points="718.0,308.0 718.0,401.0" fill="none" stroke="rgba(0,0,0,1.000)" stroke-width="1.0" data-name="PolyLine9" data-id="58"/>
    <polyline points="735.0,401.0 735.0,308.0" fill="none" stroke="rgba(0,0,0,1.000)" stroke-width="1.0" data-name="PolyLine10" data-id="59"/>
    <polygon points="1028.0,311.0 1028.0,404.0 1013.0,404.0 1013.0,311.0 1028.0,311.0" fill="rgba(127,127,127,1.000)" stroke="rgba(0,0,0,1.000)" stroke-width="0.0" data-name="Polygon31" data-id="60"/>
    <polygon points="1027.0,311.0 1027.0,404.0 1014.0,404.0 1014.0,311.0 1027.0,311.0" fill="rgba(153,153,153,1.000)" stroke="rgba(0,0,0,1.000)" stroke-width="0.0" data-name="Polygon32" data-id="61"/>
    <polygon points="1025.0,311.0 1025.0,404.0 1015.0,404.0 1015.0,311.0 1025.0,311.0" fill="rgba(178,178,178,1.000)" stroke="rgba(0,0,0,1.000)" stroke-width="0.0" data-name="Polygon33" data-id="62"/>
    <polygon points="1024.0,311.0 1024.0,404.0 1016.0,404.0 1016.0,311.0 1024.0,311.0" fill="rgba(204,204,204,1.000)" stroke="rgba(0,0,0,1.000)" stroke-width="0.0" data-name="Polygon34" data-id="63"/>
    <polygon points="1023.0,311.0 1023.0,404.0 1018.0,404.0 1018.0,311.0 1023.0,311.0" fill="rgba(229,229,229,1.000)" stroke="rgba(0,0,0,1.000)" stroke-width="0.0" data-name="Polygon35" data-id="64"/>
    <polygon points="1022.0,311.0 1022.0,404.0 1019.0,404.0 1019.0,311.0 1022.0,311.0" fill="rgba(255,255,255,1.000)" stroke="rgba(0,0,0,1.000)" stroke-width="0.0" data-name="Polygon36" data-id="65"/>
    <polyline points="1013.0,311.0 1013.0,404.0" fill="none" stroke="rgba(0,0,0,1.000)" stroke-width="1.0" data-name="PolyLine11" data-id="66"/>
    <polyline points="1028.0,404.0 1028.0,311.0" fill="none" stroke="rgba(0,0,0,1.000)" stroke-width="1.0" data-name="PolyLine12" data-id="67"/>
    <polygon points="996.0,497.0 996.0,542.0 988.0,542.0 988.0,497.0 996.0,497.0" fill="rgba(127,127,127,1.000)" stroke="rgba(0,0,0,1.000)" stroke-width="0.0" data-name="Polygon43" data-id="76"/>
    </g>
</svg>
