<?xml version='1.0' encoding='utf-8'?>
<svg xmlns="http://www.w3.org/2000/svg" viewBox="0 0 208.000 278.000" width="208.000" height="278.000">
  <g transform="translate(-999.000,-459.000)">
    <rect x="1074" y="461" width="48" height="39" fill="rgba(255,191,191,1.000)" stroke="rgba(132,132,132,1.000)" stroke-width="0.0" data-name="Rectangle5" data-id="614"/>
    <polygon points="1111.0,485.0 1170.0,485.0 1170.0,493.0 1111.0,493.0 1111.0,485.0" fill="rgba(127,127,127,1.000)" stroke="rgba(0,0,0,1.000)" stroke-width="0.0" data-name="Polygon404" data-id="615"/>
    <polygon points="1111.0,487.0 1170.0,487.0 1170.0,495.0 1111.0,495.0 1111.0,487.0" fill="rgba(153,153,153,1.000)" stroke="rgba(0,0,0,1.000)" stroke-width="0.0" data-name="Polygon405" data-id="616"/>
    <polygon points="1111.0,487.0 1170.0,487.0 1170.0,492.0 1111.0,492.0 1111.0,487.0" fill="rgba(178,178,178,1.000)" stroke="rgba(0,0,0,1.000)" stroke-width="0.0" data-name="Polygon406" data-id="617"/>
    <polygon points="1111.0,488.0 1170.0,488.0 1170.0,491.0 1111.0,491.0 1111.0,488.0" fill="rgba(204,204,204,1.000)" stroke="rgba(0,0,0,1.000)" stroke-width="0.0" data-name="Polygon407" data-id="618"/>
    <polygon points="1111.0,488.0 1170.0,488.0 1170.0,491.0 1111.0,491.0 1111.0,488.0" fill="rgba(229,229,229,1.000)" stroke="rgba(0,0,0,1.000)" stroke-width="0.0" data-name="Polygon408" data-id="619"/>
    <polyline points="1111.0,489.0 1170.0,489.0 1111.0,489.0 1111.0,489.0" fill="none" stroke="rgba(0,0,0,1.000)" stroke-width="1.0" data-name="PolyLine153" data-id="621"/>
    <polyline points="1111.0,493.0 1170.0,493.0" fill="none" stroke="rgba(0,0,0,1.000)" stroke-width="1.0" data-name="PolyLine154" data-id="622"/>
    <polyline points="1170.0,485.0 1111.0,485.0" fill="none" stroke="rgba(0,0,0,1.000)" stroke-width="1.0" data-name="PolyLine155" data-id="623"/>
    <polygon points="1001.0,485.0 1087.0,485.0 1087.0,493.0 1001.0,493.0 1001.0,485.0" fill="rgba(127,127,127,1.000)" stroke="rgba(0,0,0,1.000)" stroke-width="0.0" data-name="Polygon415" data-id="632"/>
    <polygon points="1001.0,487.0 1087.0,487.0 1087.0,495.0 1001.0,495.0 1001.0,487.0" fill="rgba(153,153,153,1.000)" stroke="rgba(0,0,0,1.000)" stroke-width="0.0" data-name="Polygon416" data-id="633"/>
    <polygon points="1001.0,487.0 1087.0,487.0 1087.0,492.0 1001.0,492.0 1001.0,487.0" fill="rgba(178,178,178,1.000)" stroke="rgba(0,0,0,1.000)" stroke-width="0.0" data-name="Polygon417" data-id="634"/>
    <polygon points="1001.0,488.0 1087.0,488.0 1087.0,491.0 1001.0,491.0 1001.0,488.0" fill="rgba(204,204,204,1.000)" stroke="rgba(0,0,0,1.000)" stroke-width="0.0" data-name="Polygon418" data-id="635"/>
    <polygon points="1001.0,488.0 1087.0,488.0 1087.0,491.0 1001.0,491.0 1001.0,488.0" fill="rgba(229,229,229,1.000)" stroke="rgba(0,0,0,1.000)" stroke-width="0.0" data-name="Polygon419" data-id="636"/>
    <polyline points="1001.0,489.0 1087.0,489.0 1001.0,489.0 1001.0,489.0" fill="none" stroke="rgba(0,0,0,1.000)" stroke-width="1.0" data-name="PolyLine158" data-id="638"/>
    <polyline points="1001.0,493.0 1087.0,493.0" fill="none" stroke="rgba(0,0,0,1.000)" stroke-width="1.0" data-name="PolyLine159" data-id="639"/>
    <polyline points="1087.0,485.0 1001.0,485.0" fill="none" stroke="rgba(0,0,0,1.000)" stroke-width="1.0" data-name="PolyLine160" data-id="640"/>
    <polygon points="1088.0,468.0 1109.0,468.0 1109.0,477.0 1088.0,477.0 1088.0,468.0" fill="rgba(0,0,0,1.000)" stroke="rgba(0,0,0,1.000)" stroke-width="1.0" data-name="Polygon420" data-id="641"/>
    <polygon points="1098.0,476.0 1098.0,491.0 1096.0,491.0 1096.0,476.0 1098.0,476.0" fill="rgba(127,127,127,1.000)" stroke="rgba(255,255,255,1.000)" stroke-width="0.0" data-name="Polygon421" data-id="642"/>
    <polygon points="1098.0,476.0 1098.0,491.0 1096.0,491.0 1096.0,476.0 1098.0,476.0" fill="rgba(178,178,178,1.000)" stroke="rgba(255,255,255,1.000)" stroke-width="0.0" data-name="Polygon422" data-id="643"/>
    <polygon points="1098.0,476.0 1098.0,491.0 1097.0,491.0 1097.0,476.0 1098.0,476.0" fill="rgba(229,229,229,1.000)" stroke="rgba(255,255,255,1.000)" stroke-width="0.0" data-name="Polygon423" data-id="644"/>
    <polyline points="1097.0,476.0 1097.0,491.0 1097.0,476.0 1097.0,476.0" fill="none" stroke="rgba(255,255,255,1.000)" stroke-width="1.0" data-name="PolyLine161" data-id="646"/>
    <polyline points="1096.0,476.0 1096.0,491.0" fill="none" stroke="rgba(0,0,0,1.000)" stroke-width="1.0" data-name="PolyLine162" data-id="647"/>
    <polyline points="1098.0,491.0 1098.0,476.0" fill="none" stroke="rgba(0,0,0,1.000)" stroke-width="1.0" data-name="PolyLine163" data-id="648"/>
    <polygon points="1085.0,498.0 1085.0,484.0 1110.0,498.0 1110.0,484.0 1085.0,498.0" fill="rgba(127,127,127,1.000)" stroke="rgba(255,255,255,1.000)" stroke-width="0.0" data-name="Polygon424" data-id="649"/>
    <polygon points="1085.0,497.0 1085.0,485.0 1110.0,497.0 1110.0,485.0 1085.0,497.0" fill="rgba(153,153,153,1.000)" stroke="rgba(255,255,255,1.000)" stroke-width="0.0" data-name="Polygon425" data-id="650"/>
    <polygon points="1085.0,496.0 1085.0,486.0 1110.0,496.0 1110.0,486.0 1085.0,496.0" fill="rgba(178,178,178,1.000)" stroke="rgba(255,255,255,1.000)" stroke-width="0.0" data-name="Polygon426" data-id="651"/>
    <polygon points="1085.0,494.0 1085.0,487.0 1110.0,494.0 1110.0,487.0 1085.0,494.0" fill="rgba(204,204,204,1.000)" stroke="rgba(255,255,255,1.000)" stroke-width="0.0" data-name="Polygon427" data-id="652"/>
    <polygon points="1085.0,493.0 1085.0,489.0 1110.0,493.0 1110.0,489.0 1085.0,493.0" fill="rgba(229,229,229,1.000)" stroke="rgba(255,255,255,1.000)" stroke-width="0.0" data-name="Polygon428" data-id="653"/>
    <polygon points="1085.0,492.0 1085.0,490.0 1110.0,492.0 1110.0,490.0 1085.0,492.0" fill="rgba(255,255,255,1.000)" stroke="rgba(255,255,255,1.000)" stroke-width="0.0" data-name="Polygon429" data-id="654"/>
    <polyline points="1085.0,498.0 1085.0,484.0 1110.0,498.0 1110.0,484.0 1085.0,498.0" fill="none" stroke="rgba(0,0,0,1.000)" stroke-width="1.0" data-name="PolyLine164" data-id="655"/>
    <polygon points="1087.0,468.0 1108.0,468.0 1108.0,476.0 1087.0,476.0 1087.0,468.0" fill="rgba(127,127,127,1.000)" stroke="rgba(0,0,0,1.000)" stroke-width="1.0" data-name="Polygon430" data-id="656"/>
    <polygon points="1179.0,488.0 1189.0,483.0 1189.0,487.0 1205.0,484.0 1203.0,488.0 1205.0,494.0 1189.0,491.0 1189.0,495.0 1179.0,488.0" fill="rgba(132,132,132,1.000)" stroke="rgba(132,132,132,1.000)" stroke-width="1.0" data-name="Polygon437" data-id="670"/>
    <polyline points="1179.0,488.0 1189.0,483.0 1189.0,487.0 1205.0,484.0 1203.0,488.0 1205.0,494.0 1189.0,491.0 1189.0,495.0 1179.0,488.0" fill="none" stroke="rgba(132,132,132,1.000)" stroke-width="1.0" data-name="PolyLine171" data-id="671"/>
    <polygon points="1040.0,529.0 1055.0,529.0 1055.0,710.0 1040.0,710.0 1040.0,529.0" fill="rgba(204,204,204,1.000)" stroke="rgba(0,0,0,1.000)" stroke-width="1.0" data-name="Polygon509" data-id="800"/>
    <polygon points="1041.0,685.0 1054.0,685.0 1054.0,691.0 1041.0,691.0 1041.0,685.0" fill="rgba(76,76,76,1.000)" stroke="rgba(0,0,0,1.000)" stroke-width="1.0" data-name="Polygon510" data-id="801"/>
    <polygon points="1041.0,544.0 1054.0,544.0 1054.0,685.0 1041.0,685.0 1041.0,544.0" fill="rgba(229,229,229,1.000)" stroke="rgba(0,0,0,1.000)" stroke-width="1.0" data-name="Polygon511" data-id="802"/>
    <polygon points="1046.0,544.0 1049.0,544.0 1049.0,690.0 1046.0,690.0 1046.0,544.0" fill="rgba(255,255,255,1.000)" stroke="rgba(0,0,0,1.000)" stroke-width="1.0" data-name="Polygon512" data-id="803"/>
    <polygon points="1054.0,680.0 1056.0,680.0 1056.0,710.0 1040.0,710.0 1040.0,680.0 1041.0,680.0 1041.0,682.0 1042.0,684.0 1042.0,685.0 1043.0,687.0 1044.0,688.0 1045.0,689.0 1046.0,689.0 1048.0,689.0 1049.0,689.0 1050.0,689.0 1051.0,688.0 1052.0,687.0 1053.0,685.0 1054.0,684.0 1054.0,682.0 1054.0,680.0" fill="rgba(204,204,204,1.000)" stroke="rgba(0,0,0,1.000)" stroke-width="1.0" data-name="Polygon513" data-id="804"/>
    <polygon points="1041.0,559.0 1040.0,559.0 1040.0,529.0 1056.0,529.0 1056.0,559.0 1054.0,559.0 1054.0,557.0 1054.0,555.0 1053.0,553.0 1052.0,552.0 1051.0,551.0 1050.0,550.0 1049.0,549.0 1048.0,549.0 1046.0,549.0 1045.0,550.0 1044.0,551.0 1043.0,552.0 1042.0,553.0 1042.0,555.0 1041.0,557.0 1041.0,559.0" fill="rgba(204,204,204,1.000)" stroke="rgba(0,0,0,1.000)" stroke-width="1.0" data-name="Polygon514" data-id="805"/>
    <polygon points="1054.0,687.0 1054.0,707.0 1041.0,707.0 1041.0,688.0 1042.0,689.0 1043.0,689.0 1043.0,690.0 1044.0,691.0 1045.0,691.0 1046.0,692.0 1047.0,692.0 1048.0,692.0 1049.0,692.0 1050.0,692.0 1050.0,691.0 1051.0,691.0 1052.0,690.0 1053.0,689.0 1053.0,688.0 1054.0,687.0" fill="rgba(76,76,76,1.000)" stroke="rgba(0,0,0,1.000)" stroke-width="1.0" data-name="Polygon515" data-id="806"/>
    <polyline points="1043.0,680.0 1046.0,680.0" fill="none" stroke="rgba(0,0,0,1.000)" stroke-width="1.0" data-name="PolyLine199" data-id="807"/>
    <polyline points="1043.0,649.0 1046.0,649.0" fill="none" stroke="rgba(0,0,0,1.000)" stroke-width="1.0" data-name="PolyLine200" data-id="808"/>
    <polyline points="1043.0,619.0 1046.0,619.0" fill="none" stroke="rgba(0,0,0,1.000)" stroke-width="1.0" data-name="PolyLine201" data-id="809"/>
    <polyline points="1043.0,589.0 1046.0,589.0" fill="none" stroke="rgba(0,0,0,1.000)" stroke-width="1.0" data-name="PolyLine202" data-id="810"/>
    <polyline points="1043.0,559.0 1046.0,559.0" fill="none" stroke="rgba(0,0,0,1.000)" stroke-width="1.0" data-name="PolyLine203" data-id="811"/>
    <polyline points="1049.0,665.0 1053.0,665.0" fill="none" stroke="rgba(0,0,0,1.000)" stroke-width="1.0" data-name="PolyLine204" data-id="812"/>
    <polyline points="1049.0,634.0 1053.0,634.0" fill="none" stroke="rgba(0,0,0,1.000)" stroke-width="1.0" data-name="PolyLine205" data-id="813"/>
    <polyline points="1049.0,604.0 1053.0,604.0" fill="none" stroke="rgba(0,0,0,1.000)" stroke-width="1.0" data-name="PolyLine206" data-id="814"/>
    <polyline points="1049.0,574.0 1053.0,574.0" fill="none" stroke="rgba(0,0,0,1.000)" stroke-width="1.0" data-name="PolyLine207" data-id="815"/>
    <polygon points="1041.0,551.0 1041.0,531.0 1054.0,531.0 1054.0,551.0 1054.0,550.0 1053.0,549.0 1052.0,548.0 1051.0,548.0 1050.0,547.0 1049.0,547.0 1048.0,547.0 1047.0,547.0 1046.0,547.0 1045.0,547.0 1044.0,548.0 1043.0,548.0 1043.0,549.0 1042.0,550.0 1041.0,551.0" fill="rgba(76,76,76,1.000)" stroke="rgba(0,0,0,1.000)" stroke-width="1.0" data-name="Polygon516" data-id="816"/>
    <polygon points="1040.0,543.0 1041.0,543.0 1041.0,544.0 1040.0,544.0 1040.0,543.0 1040.0,543.0" fill="rgba(0,0,0,1.000)" stroke="rgba(0,0,0,1.000)" stroke-width="1.0" data-name="Polygon517" data-id="817"/>
    <polyline points="1055.0,543.0 1055.0,544.0 1055.0,543.0 1055.0,543.0" fill="none" stroke="rgba(0,0,0,1.000)" stroke-width="1.0" data-name="PolyLine208" data-id="819"/>
    <polygon points="1040.0,695.0 1041.0,695.0 1041.0,696.0 1040.0,696.0 1040.0,695.0 1040.0,695.0" fill="rgba(0,0,0,1.000)" stroke="rgba(0,0,0,1.000)" stroke-width="1.0" data-name="Polygon518" data-id="820"/>
    <polyline points="1055.0,695.0 1055.0,696.0 1055.0,695.0 1055.0,695.0" fill="none" stroke="rgba(0,0,0,1.000)" stroke-width="1.0" data-name="PolyLine209" data-id="822"/>
    <rect x="1088" y="521" width="33" height="64" fill="rgba(255,191,191,1.000)" stroke="rgba(0,0,0,1.000)" stroke-width="0.0" data-name="Rectangle9" data-id="824"/>
    <polygon points="1099.0,540.0 1095.0,538.0 1095.0,529.0 1099.0,528.0 1113.0,528.0 1113.0,529.0 1113.0,539.0 1100.0,539.0 1099.0,540.0" fill="rgba(153,255,255,1.000)" stroke="rgba(0,0,0,1.000)" stroke-width="1.0" data-name="Polygon519" data-id="825"/>
    <polygon points="1106.0,578.0 1106.0,562.0 1107.0,561.0 1107.0,559.0 1110.0,559.0 1110.0,561.0 1111.0,562.0 1111.0,578.0 1106.0,578.0" fill="rgba(0,0,0,1.000)" stroke="rgba(0,0,0,1.000)" stroke-width="1.0" data-name="Polygon520" data-id="826"/>
    <polygon points="1105.0,539.0 1111.0,539.0 1111.0,546.0 1105.0,546.0 1105.0,539.0" fill="rgba(153,255,255,1.000)" stroke="rgba(0,0,0,1.000)" stroke-width="1.0" data-name="Polygon521" data-id="827"/>
    <polygon points="1108.0,546.0 1109.0,546.0 1109.0,559.0 1108.0,559.0 1108.0,546.0" fill="rgba(127,127,127,1.000)" stroke="rgba(0,0,0,1.000)" stroke-width="1.0" data-name="Polygon522" data-id="828"/>
    <polyline points="1107.0,559.0 1110.0,559.0 1110.0,562.0 1107.0,562.0 1107.0,559.0" fill="none" stroke="rgba(0,0,0,1.000)" stroke-width="1.0" data-name="PolyLine210" data-id="829"/>
    <polygon points="1106.0,562.0 1110.0,562.0 1110.0,576.0 1106.0,576.0 1106.0,562.0" fill="rgba(229,229,229,1.000)" stroke="rgba(0,0,0,1.000)" stroke-width="1.0" data-name="Polygon523" data-id="830"/>
    <polygon points="1107.0,563.0 1108.0,563.0 1108.0,576.0 1107.0,576.0 1107.0,563.0" fill="rgba(127,127,127,1.000)" stroke="rgba(255,255,255,1.000)" stroke-width="0.0" data-name="Polygon524" data-id="831"/>
    <polyline points="1108.0,563.0 1108.0,576.0 1108.0,563.0" fill="none" stroke="rgba(255,255,255,1.000)" stroke-width="1.0" data-name="PolyLine211" data-id="833"/>
    <polyline points="1107.0,561.0 1110.0,561.0" fill="none" stroke="rgba(255,255,255,1.000)" stroke-width="1.0" data-name="PolyLine212" data-id="834"/>
    <polygon points="1105.0,546.0 1105.0,545.0 1105.0,540.0 1099.0,540.0 1095.0,538.0 1095.0,529.0 1095.0,531.0 1095.0,537.0 1100.0,539.0 1105.0,539.0 1105.0,546.0" fill="rgba(0,255,255,1.000)" stroke="rgba(0,0,0,1.000)" stroke-width="1.0" data-name="Polygon525" data-id="835"/>
    <polygon points="1095.0,531.0 1100.0,529.0 1113.0,529.0 1113.0,528.0 1099.0,528.0 1095.0,529.0 1095.0,531.0" fill="rgba(0,255,255,1.000)" stroke="rgba(0,0,0,1.000)" stroke-width="1.0" data-name="Polygon526" data-id="836"/>
    <polyline points="1099.0,528.0 1100.0,529.0 1100.0,539.0" fill="none" stroke="rgba(0,0,0,1.000)" stroke-width="1.0" data-name="PolyLine213" data-id="837"/>
    <polyline points="1095.0,537.0 1097.0,538.0" fill="none" stroke="rgba(0,0,0,1.000)" stroke-width="1.0" data-name="PolyLine214" data-id="838"/>
    <polyline points="1100.0,539.0 1099.0,540.0" fill="none" stroke="rgba(0,0,0,1.000)" stroke-width="1.0" data-name="PolyLine215" data-id="839"/>
    <polyline points="1105.0,540.0 1107.0,539.0" fill="none" stroke="rgba(0,0,0,1.000)" stroke-width="1.0" data-name="PolyLine216" data-id="840"/>
    <polygon points="1109.0,529.0 1112.0,529.0 1112.0,539.0 1109.0,539.0 1109.0,529.0" fill="rgba(255,204,0,1.000)" stroke="rgba(127,127,127,1.000)" stroke-width="1.0" data-name="Polygon527" data-id="841"/>
    <polyline points="1095.0,538.0 1095.0,537.0 1095.0,531.0 1095.0,529.0 1095.0,538.0" fill="none" stroke="rgba(0,0,0,1.000)" stroke-width="1.0" data-name="PolyLine217" data-id="843"/>
    <polyline points="1095.0,531.0 1095.0,532.0 1095.0,533.0 1095.0,534.0 1095.0,535.0 1095.0,536.0 1095.0,535.0 1095.0,534.0 1095.0,533.0 1095.0,532.0 1095.0,531.0 1095.0,531.0" fill="none" stroke="rgba(0,0,0,1.000)" stroke-width="1.0" data-name="PolyLine218" data-id="845"/>
    <polyline points="1095.0,533.0 1095.0,534.0 1095.0,535.0 1095.0,534.0 1095.0,533.0 1095.0,533.0" fill="none" stroke="rgba(0,0,0,1.000)" stroke-width="1.0" data-name="PolyLine219" data-id="847"/>
    <polygon points="1103.0,537.0 1103.0,538.0 1102.0,538.0 1102.0,537.0 1103.0,537.0 1103.0,537.0" fill="rgba(255,255,0,1.000)" stroke="rgba(0,0,0,1.000)" stroke-width="1.0" data-name="Polygon528" data-id="848"/>
    <polygon points="1103.0,535.0 1103.0,536.0 1102.0,536.0 1102.0,535.0 1103.0,535.0 1103.0,535.0" fill="rgba(229,229,229,1.000)" stroke="rgba(255,255,255,1.000)" stroke-width="0.0" data-name="Polygon529" data-id="849"/>
    <polygon points="1103.0,532.0 1103.0,533.0 1102.0,533.0 1102.0,532.0 1103.0,532.0 1103.0,532.0" fill="rgba(229,229,229,1.000)" stroke="rgba(255,255,255,1.000)" stroke-width="0.0" data-name="Polygon530" data-id="850"/>
    <polygon points="1103.0,530.0 1103.0,531.0 1102.0,531.0 1102.0,530.0 1103.0,530.0 1103.0,530.0" fill="rgba(229,229,229,1.000)" stroke="rgba(255,255,255,1.000)" stroke-width="0.0" data-name="Polygon531" data-id="851"/>
    <polyline points="1095.0,530.0 1099.0,528.0" fill="none" stroke="rgba(0,0,0,1.000)" stroke-width="1.0" data-name="PolyLine220" data-id="852"/>
    <polyline points="1095.0,538.0 1098.0,539.0" fill="none" stroke="rgba(0,0,0,1.000)" stroke-width="1.0" data-name="PolyLine221" data-id="853"/>
    <polygon points="1095.0,533.0 1099.0,533.0 1099.0,534.0 1095.0,534.0 1095.0,533.0" fill="rgba(127,127,127,1.000)" stroke="rgba(0,0,0,1.000)" stroke-width="1.0" data-name="Polygon532" data-id="854"/>
    <polygon points="1105.0,533.0 1105.0,534.0 1105.0,535.0 1104.0,534.0 1105.0,533.0 1105.0,533.0" fill="rgba(204,204,204,1.000)" stroke="rgba(255,255,255,1.000)" stroke-width="0.0" data-name="Polygon533" data-id="855"/>
    <polygon points="1107.0,533.0 1107.0,534.0 1108.0,534.0 1107.0,534.0 1107.0,535.0 1107.0,534.0 1106.0,534.0 1107.0,534.0 1107.0,533.0 1107.0,533.0" fill="rgba(204,204,204,1.000)" stroke="rgba(255,255,255,1.000)" stroke-width="0.0" data-name="Polygon534" data-id="856"/>
    <polygon points="1106.0,568.0 1109.0,568.0 1109.0,572.0 1106.0,572.0 1106.0,568.0" fill="rgba(255,255,255,1.000)" stroke="rgba(0,0,0,1.000)" stroke-width="1.0" data-name="Polygon535" data-id="857"/>
    <rect x="1089" y="596" width="33" height="64" fill="rgba(255,191,191,1.000)" stroke="rgba(0,0,0,1.000)" stroke-width="0.0" data-name="Rectangle10" data-id="976"/>
    <polygon points="1100.0,615.0 1096.0,613.0 1096.0,604.0 1100.0,603.0 1114.0,603.0 1114.0,604.0 1114.0,614.0 1101.0,614.0 1100.0,615.0" fill="rgba(153,255,255,1.000)" stroke="rgba(0,0,0,1.000)" stroke-width="1.0" data-name="Polygon537" data-id="977"/>
    <polygon points="1107.0,653.0 1107.0,637.0 1108.0,636.0 1108.0,634.0 1111.0,634.0 1111.0,636.0 1112.0,637.0 1112.0,653.0 1107.0,653.0" fill="rgba(0,0,0,1.000)" stroke="rgba(0,0,0,1.000)" stroke-width="1.0" data-name="Polygon538" data-id="978"/>
    <polygon points="1106.0,614.0 1112.0,614.0 1112.0,621.0 1106.0,621.0 1106.0,614.0" fill="rgba(153,255,255,1.000)" stroke="rgba(0,0,0,1.000)" stroke-width="1.0" data-name="Polygon539" data-id="979"/>
    <polygon points="1109.0,621.0 1110.0,621.0 1110.0,634.0 1109.0,634.0 1109.0,621.0" fill="rgba(127,127,127,1.000)" stroke="rgba(0,0,0,1.000)" stroke-width="1.0" data-name="Polygon540" data-id="980"/>
    <polyline points="1108.0,634.0 1111.0,634.0 1111.0,637.0 1108.0,637.0 1108.0,634.0" fill="none" stroke="rgba(0,0,0,1.000)" stroke-width="1.0" data-name="PolyLine222" data-id="981"/>
    <polygon points="1107.0,637.0 1111.0,637.0 1111.0,651.0 1107.0,651.0 1107.0,637.0" fill="rgba(229,229,229,1.000)" stroke="rgba(0,0,0,1.000)" stroke-width="1.0" data-name="Polygon541" data-id="982"/>
    <polygon points="1108.0,638.0 1109.0,638.0 1109.0,651.0 1108.0,651.0 1108.0,638.0" fill="rgba(127,127,127,1.000)" stroke="rgba(255,255,255,1.000)" stroke-width="0.0" data-name="Polygon542" data-id="983"/>
    <polyline points="1109.0,638.0 1109.0,651.0 1109.0,638.0" fill="none" stroke="rgba(255,255,255,1.000)" stroke-width="1.0" data-name="PolyLine223" data-id="985"/>
    <polyline points="1108.0,636.0 1111.0,636.0" fill="none" stroke="rgba(255,255,255,1.000)" stroke-width="1.0" data-name="PolyLine224" data-id="986"/>
    <polygon points="1106.0,621.0 1106.0,620.0 1106.0,615.0 1100.0,615.0 1096.0,613.0 1096.0,604.0 1096.0,606.0 1096.0,612.0 1101.0,614.0 1106.0,614.0 1106.0,621.0" fill="rgba(0,255,255,1.000)" stroke="rgba(0,0,0,1.000)" stroke-width="1.0" data-name="Polygon543" data-id="987"/>
    <polygon points="1096.0,606.0 1101.0,604.0 1114.0,604.0 1114.0,603.0 1100.0,603.0 1096.0,604.0 1096.0,606.0" fill="rgba(0,255,255,1.000)" stroke="rgba(0,0,0,1.000)" stroke-width="1.0" data-name="Polygon544" data-id="988"/>
    <polyline points="1100.0,603.0 1101.0,604.0 1101.0,614.0" fill="none" stroke="rgba(0,0,0,1.000)" stroke-width="1.0" data-name="PolyLine225" data-id="989"/>
    <polyline points="1096.0,612.0 1098.0,613.0" fill="none" stroke="rgba(0,0,0,1.000)" stroke-width="1.0" data-name="PolyLine226" data-id="990"/>
    <polyline points="1101.0,614.0 1100.0,615.0" fill="none" stroke="rgba(0,0,0,1.000)" stroke-width="1.0" data-name="PolyLine227" data-id="991"/>
    <polyline points="1106.0,615.0 1108.0,614.0" fill="none" stroke="rgba(0,0,0,1.000)" stroke-width="1.0" data-name="PolyLine228" data-id="992"/>
    <polygon points="1110.0,604.0 1113.0,604.0 1113.0,614.0 1110.0,614.0 1110.0,604.0" fill="rgba(255,204,0,1.000)" stroke="rgba(127,127,127,1.000)" stroke-width="1.0" data-name="Polygon545" data-id="993"/>
    <polyline points="1096.0,613.0 1096.0,612.0 1096.0,606.0 1096.0,604.0 1096.0,613.0" fill="none" stroke="rgba(0,0,0,1.000)" stroke-width="1.0" data-name="PolyLine229" data-id="995"/>
    <polyline points="1096.0,606.0 1096.0,607.0 1096.0,608.0 1096.0,609.0 1096.0,610.0 1096.0,611.0 1096.0,610.0 1096.0,609.0 1096.0,608.0 1096.0,607.0 1096.0,606.0 1096.0,606.0" fill="none" stroke="rgba(0,0,0,1.000)" stroke-width="1.0" data-name="PolyLine230" data-id="997"/>
    <polyline points="1096.0,608.0 1096.0,609.0 1096.0,610.0 1096.0,609.0 1096.0,608.0 1096.0,608.0" fill="none" stroke="rgba(0,0,0,1.000)" stroke-width="1.0" data-name="PolyLine231" data-id="999"/>
    <polygon points="1104.0,612.0 1104.0,613.0 1103.0,613.0 1103.0,612.0 1104.0,612.0 1104.0,612.0" fill="rgba(255,255,0,1.000)" stroke="rgba(0,0,0,1.000)" stroke-width="1.0" data-name="Polygon546" data-id="1000"/>
    <polygon points="1104.0,610.0 1104.0,611.0 1103.0,611.0 1103.0,610.0 1104.0,610.0 1104.0,610.0" fill="rgba(229,229,229,1.000)" stroke="rgba(255,255,255,1.000)" stroke-width="0.0" data-name="Polygon547" data-id="1001"/>
    <polygon points="1104.0,607.0 1104.0,608.0 1103.0,608.0 1103.0,607.0 1104.0,607.0 1104.0,607.0" fill="rgba(229,229,229,1.000)" stroke="rgba(255,255,255,1.000)" stroke-width="0.0" data-name="Polygon548" data-id="1002"/>
    <polygon points="1104.0,605.0 1104.0,606.0 1103.0,606.0 1103.0,605.0 1104.0,605.0 1104.0,605.0" fill="rgba(229,229,229,1.000)" stroke="rgba(255,255,255,1.000)" stroke-width="0.0" data-name="Polygon549" data-id="1003"/>
    <polyline points="1096.0,605.0 1100.0,603.0" fill="none" stroke="rgba(0,0,0,1.000)" stroke-width="1.0" data-name="PolyLine232" data-id="1004"/>
    <polyline points="1096.0,613.0 1099.0,614.0" fill="none" stroke="rgba(0,0,0,1.000)" stroke-width="1.0" data-name="PolyLine233" data-id="1005"/>
    <polygon points="1096.0,608.0 1100.0,608.0 1100.0,609.0 1096.0,609.0 1096.0,608.0" fill="rgba(127,127,127,1.000)" stroke="rgba(0,0,0,1.000)" stroke-width="1.0" data-name="Polygon550" data-id="1006"/>
    <polygon points="1106.0,608.0 1106.0,609.0 1106.0,610.0 1105.0,609.0 1106.0,608.0 1106.0,608.0" fill="rgba(204,204,204,1.000)" stroke="rgba(255,255,255,1.000)" stroke-width="0.0" data-name="Polygon551" data-id="1007"/>
    <polygon points="1108.0,608.0 1108.0,609.0 1109.0,609.0 1108.0,609.0 1108.0,610.0 1108.0,609.0 1107.0,609.0 1108.0,609.0 1108.0,608.0 1108.0,608.0" fill="rgba(204,204,204,1.000)" stroke="rgba(255,255,255,1.000)" stroke-width="0.0" data-name="Polygon552" data-id="1008"/>
    <polygon points="1107.0,643.0 1110.0,643.0 1110.0,647.0 1107.0,647.0 1107.0,643.0" fill="rgba(255,255,255,1.000)" stroke="rgba(0,0,0,1.000)" stroke-width="1.0" data-name="Polygon553" data-id="1009"/>
    <rect x="1090" y="671" width="33" height="64" fill="rgba(255,191,191,1.000)" stroke="rgba(0,0,0,1.000)" stroke-width="0.0" data-name="Rectangle11" data-id="1011"/>
    <polygon points="1102.0,689.0 1098.0,687.0 1098.0,678.0 1102.0,677.0 1116.0,677.0 1116.0,678.0 1116.0,688.0 1103.0,688.0 1102.0,689.0" fill="rgba(153,255,255,1.000)" stroke="rgba(0,0,0,1.000)" stroke-width="1.0" data-name="Polygon554" data-id="1012"/>
    <polygon points="1109.0,727.0 1109.0,711.0 1110.0,710.0 1110.0,708.0 1113.0,708.0 1113.0,710.0 1114.0,711.0 1114.0,727.0 1109.0,727.0" fill="rgba(0,0,0,1.000)" stroke="rgba(0,0,0,1.000)" stroke-width="1.0" data-name="Polygon555" data-id="1013"/>
    <polygon points="1108.0,688.0 1114.0,688.0 1114.0,695.0 1108.0,695.0 1108.0,688.0" fill="rgba(153,255,255,1.000)" stroke="rgba(0,0,0,1.000)" stroke-width="1.0" data-name="Polygon556" data-id="1014"/>
    <polygon points="1111.0,695.0 1112.0,695.0 1112.0,708.0 1111.0,708.0 1111.0,695.0" fill="rgba(127,127,127,1.000)" stroke="rgba(0,0,0,1.000)" stroke-width="1.0" data-name="Polygon557" data-id="1015"/>
    <polyline points="1110.0,708.0 1113.0,708.0 1113.0,711.0 1110.0,711.0 1110.0,708.0" fill="none" stroke="rgba(0,0,0,1.000)" stroke-width="1.0" data-name="PolyLine234" data-id="1016"/>
    <polygon points="1109.0,711.0 1113.0,711.0 1113.0,725.0 1109.0,725.0 1109.0,711.0" fill="rgba(229,229,229,1.000)" stroke="rgba(0,0,0,1.000)" stroke-width="1.0" data-name="Polygon558" data-id="1017"/>
    <polygon points="1110.0,712.0 1111.0,712.0 1111.0,725.0 1110.0,725.0 1110.0,712.0" fill="rgba(127,127,127,1.000)" stroke="rgba(255,255,255,1.000)" stroke-width="0.0" data-name="Polygon559" data-id="1018"/>
    <polyline points="1111.0,712.0 1111.0,725.0 1111.0,712.0" fill="none" stroke="rgba(255,255,255,1.000)" stroke-width="1.0" data-name="PolyLine235" data-id="1020"/>
    <polyline points="1110.0,710.0 1113.0,710.0" fill="none" stroke="rgba(255,255,255,1.000)" stroke-width="1.0" data-name="PolyLine236" data-id="1021"/>
    <polygon points="1108.0,695.0 1108.0,694.0 1108.0,689.0 1102.0,689.0 1098.0,687.0 1098.0,678.0 1098.0,680.0 1098.0,686.0 1103.0,688.0 1108.0,688.0 1108.0,695.0" fill="rgba(0,255,255,1.000)" stroke="rgba(0,0,0,1.000)" stroke-width="1.0" data-name="Polygon560" data-id="1022"/>
    <polygon points="1098.0,680.0 1103.0,678.0 1116.0,678.0 1116.0,677.0 1102.0,677.0 1098.0,678.0 1098.0,680.0" fill="rgba(0,255,255,1.000)" stroke="rgba(0,0,0,1.000)" stroke-width="1.0" data-name="Polygon561" data-id="1023"/>
    <polyline points="1102.0,677.0 1103.0,678.0 1103.0,688.0" fill="none" stroke="rgba(0,0,0,1.000)" stroke-width="1.0" data-name="PolyLine237" data-id="1024"/>
    <polyline points="1098.0,686.0 1100.0,687.0" fill="none" stroke="rgba(0,0,0,1.000)" stroke-width="1.0" data-name="PolyLine238" data-id="1025"/>
    <polyline points="1103.0,688.0 1102.0,689.0" fill="none" stroke="rgba(0,0,0,1.000)" stroke-width="1.0" data-name="PolyLine239" data-id="1026"/>
    <polyline points="1108.0,689.0 1110.0,688.0" fill="none" stroke="rgba(0,0,0,1.000)" stroke-width="1.0" data-name="PolyLine240" data-id="1027"/>
    <polygon points="1112.0,678.0 1115.0,678.0 1115.0,688.0 1112.0,688.0 1112.0,678.0" fill="rgba(255,204,0,1.000)" stroke="rgba(127,127,127,1.000)" stroke-width="1.0" data-name="Polygon562" data-id="1028"/>
    <polyline points="1098.0,687.0 1098.0,686.0 1098.0,680.0 1098.0,678.0 1098.0,687.0" fill="none" stroke="rgba(0,0,0,1.000)" stroke-width="1.0" data-name="PolyLine241" data-id="1030"/>
    <polyline points="1098.0,680.0 1098.0,681.0 1098.0,682.0 1098.0,683.0 1098.0,684.0 1098.0,685.0 1098.0,684.0 1098.0,683.0 1098.0,682.0 1098.0,681.0 1098.0,680.0 1098.0,680.0" fill="none" stroke="rgba(0,0,0,1.000)" stroke-width="1.0" data-name="PolyLine242" data-id="1032"/>
    <polyline points="1098.0,682.0 1098.0,683.0 1098.0,684.0 1098.0,683.0 1098.0,682.0 1098.0,682.0" fill="none" stroke="rgba(0,0,0,1.000)" stroke-width="1.0" data-name="PolyLine243" data-id="1034"/>
    <polygon points="1106.0,686.0 1106.0,687.0 1105.0,687.0 1105.0,686.0 1106.0,686.0 1106.0,686.0" fill="rgba(255,255,0,1.000)" stroke="rgba(0,0,0,1.000)" stroke-width="1.0" data-name="Polygon563" data-id="1035"/>
    <polygon points="1106.0,684.0 1106.0,685.0 1105.0,685.0 1105.0,684.0 1106.0,684.0 1106.0,684.0" fill="rgba(229,229,229,1.000)" stroke="rgba(255,255,255,1.000)" stroke-width="0.0" data-name="Polygon564" data-id="1036"/>
    <polygon points="1106.0,681.0 1106.0,682.0 1105.0,682.0 1105.0,681.0 1106.0,681.0 1106.0,681.0" fill="rgba(229,229,229,1.000)" stroke="rgba(255,255,255,1.000)" stroke-width="0.0" data-name="Polygon565" data-id="1037"/>
    <polygon points="1106.0,679.0 1106.0,680.0 1105.0,680.0 1105.0,679.0 1106.0,679.0 1106.0,679.0" fill="rgba(229,229,229,1.000)" stroke="rgba(255,255,255,1.000)" stroke-width="0.0" data-name="Polygon566" data-id="1038"/>
    <polyline points="1098.0,679.0 1102.0,677.0" fill="none" stroke="rgba(0,0,0,1.000)" stroke-width="1.0" data-name="PolyLine244" data-id="1039"/>
    <polyline points="1098.0,687.0 1101.0,688.0" fill="none" stroke="rgba(0,0,0,1.000)" stroke-width="1.0" data-name="PolyLine245" data-id="1040"/>
    <polygon points="1098.0,682.0 1102.0,682.0 1102.0,683.0 1098.0,683.0 1098.0,682.0" fill="rgba(127,127,127,1.000)" stroke="rgba(0,0,0,1.000)" stroke-width="1.0" data-name="Polygon567" data-id="1041"/>
    <polygon points="1108.0,682.0 1108.0,683.0 1108.0,684.0 1107.0,683.0 1108.0,682.0 1108.0,682.0" fill="rgba(204,204,204,1.000)" stroke="rgba(255,255,255,1.000)" stroke-width="0.0" data-name="Polygon568" data-id="1042"/>
    <polygon points="1110.0,682.0 1110.0,683.0 1111.0,683.0 1110.0,683.0 1110.0,684.0 1110.0,683.0 1109.0,683.0 1110.0,683.0 1110.0,682.0 1110.0,682.0" fill="rgba(204,204,204,1.000)" stroke="rgba(255,255,255,1.000)" stroke-width="0.0" data-name="Polygon569" data-id="1043"/>
    <polygon points="1109.0,717.0 1112.0,717.0 1112.0,721.0 1109.0,721.0 1109.0,717.0" fill="rgba(255,255,255,1.000)" stroke="rgba(0,0,0,1.000)" stroke-width="1.0" data-name="Polygon570" data-id="1044"/>
  </g>
</svg>
